<svg width="650" height="650" viewBox="0 0 650 650" fill="none" xmlns="http://www.w3.org/2000/svg">
<path d="M601.885 0H47.9883C21.4551 0 0 20.9473 0 46.8457V603.027C0 628.926 21.4551 650 47.9883 650H601.885C628.418 650 650 628.926 650 603.154V46.8457C650 20.9473 628.418 0 601.885 0ZM192.842 553.896H96.3574V243.623H192.842V553.896ZM144.6 201.348C113.623 201.348 88.6133 176.338 88.6133 145.488C88.6133 114.639 113.623 89.6289 144.6 89.6289C175.449 89.6289 200.459 114.639 200.459 145.488C200.459 176.211 175.449 201.348 144.6 201.348ZM553.896 553.896H457.539V403.076C457.539 367.148 456.904 320.811 407.393 320.811C357.246 320.811 349.629 360.039 349.629 400.537V553.896H253.398V243.623H345.82V286.025H347.09C359.912 261.65 391.397 235.879 438.242 235.879C535.869 235.879 553.896 300.117 553.896 383.652V553.896V553.896Z" fill="#F8F3FD"/>
</svg>
