<?xml version="1.0" encoding="UTF-8"?>
<svg id="Layer_1" xmlns="http://www.w3.org/2000/svg" version="1.1" viewBox="0 0 1564 349">
  <!-- Generator: Adobe Illustrator 30.1.0, SVG Export Plug-In . SVG Version: 2.1.1 Build 136)  -->
  <defs>
    <style>
      .st0 {
        fill: #f8f3fd;
      }

      .st0, .st1 {
        fill-rule: evenodd;
      }

      .st1 {
        fill: #eae4ea;
      }
    </style>
  </defs>
  <path id="Layer" class="st1" d="M1460.4,187.9c1.6,22.3,17.6,38.4,42.6,38-18.7,18.5-54.5,27.4-84.1,27.4s-29.7-3.4-35.8-9.8c24.9-3.1,44.8-21.9,47.5-42.9,33.4-37,47-94.3,88-94.3s42.5,26.7,44.9,41.2c-.3,33.1-26.8,61-61,61s-29.9-5.8-42.1-20.6h0Z"/>
  <path id="Layer1" data-name="Layer" class="st0" d="M1271.1,222.3c-6.9,8.2-12.1,10.6-19.1,10.6-10.9,0-24.2-7.4-32.5-40.9-6,22.8-16.1,40.9-37.4,40.9-44.8,0-39-121.3-57.8-121.3s-23.1,121.3-53.6,121.3-17.7-15-20.6-36.4c-10.2,20.8-23.5,36.4-39,36.4-26.5,0-40.1-32.8-44.2-59.6-8.7,40.4-26.1,59.6-42.1,59.6-32.6,0-33.4-105.8-43.8-105.8s-20.2,115.8-50.1,115.8-24.1-131.6-37.4-131.6-22,121.6-45.2,121.6-19-23.1-22.2-47.1c-17.7,31.6-39.7,47.1-69,47.1s-32.5-7.8-44.9-23.4c-14.6,7.2-27.2,12.9-44.1,20.2-.5,63.8-12.3,118.6-64.3,118.6s-41.9-18.9-41.9-44.1c0-48.7,41.3-66.2,78.6-83.5-.2-9.5-.5-19.9-1.2-31.2-9.7,19.6-23.5,32.6-41.9,32.6s-38.2-20.3-38.2-53.9.2-7,.5-10.4c-10.2,10.1-20.8,17.4-31.5,23.9-12.1,33.8-34.1,51.7-52.4,51.7s-16.5-1.1-16.5-13,19-26.9,42.8-41.9c2.6-10.6,3.6-22.4,3.6-32.6,0-19.1-4.5-37-18.6-37s-34.8,30.9-34.8,124.6,2.1,72.4,8.9,93.3c-43.6,9.3-39.7-37.7-36.6-111.4-7.8,10.8-18.2,17.5-31.4,17.5-18.9,0-30.2-15.7-35.6-36.9-8.6,21.2-24.4,36.8-48.5,36.8s-34.9-12.3-40.1-41.5c-20.6,33.4-50.6,51.5-82.2,51.5C36.5,242.8,1,201.4,1,131.5S49.7,4.3,104.8,4.3s58.4,28.8,58.4,45.8c0,24.7-20.2,33.9-32.5,24,2.1-21.9-3.4-45.3-27.1-45.3-33.9,0-65.7,47.9-65.7,98.4s24.4,86.3,56.4,86.3c45.3,0,67.5-41.4,80.2-69.6,12.6-30.8,41.3-56.8,76-56.8s29.5,11.1,23.3,25.7c-47.5-13.5-77.9,29.7-76.2,66.2.8,18,7.3,28,17.7,28,17.1,0,28.7-25.3,32.8-45.4,3.6-18.2,5.5-37.9,20.2-37.9s1.4,0,2.1,0c.7,0,1.3,0,2,.2.7.1,1.3.3,2,.5.6.2,1.2.4,1.9.6,1.4,23.9,3.9,85.1,20.2,85.1s29-23.1,29-74.8-1.1-34.8-4-44.2c6.3-3.1,12.2-4.3,16.4-4.3,9.9,0,13.2,7.4,14.9,24.3,6.7-16.9,18.2-27.9,36.6-27.9s45.5,18.8,45.5,61.7-.2,7.2-.6,10.9c15.9-12.6,27.8-23.1,38.2-37.8,15.5-22,36.6-39.2,64.9-39.2s29.2,9.7,23.8,23.1c-25.8-8.8-75.2,8.1-71.8,69,.7,12.1,6.4,23.5,15.8,23.5s26.5-23.6,29.8-61.6c1.5-16.6,6.9-25.6,25.6-20.4,2.8,30.6,6.3,63.8,7.3,95.4,10.5-4.8,21.9-9.8,34-15.5-5.1-11.6-8.2-25.7-8.2-42.2,0-30.8,19.7-66.9,54.8-66.9s40.3,15.2,40.3,41.6-15.7,49.2-51.1,70.9c6.3,7.2,14.7,11.8,25.3,11.8,29.6,0,68.1-41,61.3-124.9,21-12.1,35,4.7,23.6,50.1,0,2.1,0,4.3,0,6.4,0,2.1,0,4.2,0,6.3v6.3c0,2.1.1,4.3.2,6.4.3,9.8,2.2,9.6,4,.8,9.3-45.2,18.8-85.6,42.7-85.6,45.4,0,30,121,41.7,121s16.3-107.5,47.7-107.5,31.8,113.5,48,113.5,28-49.6,32.1-115.2c27.3-8.8,26,15.8,26,34.1s.3,87.1,25.2,87.1,32-45.5,31.2-120.8c22.3-8.4,26.3,8.5,26.3,18.3s-1,16-2.8,26.1c-.2,21.1.3,48.7,3.7,48.7,4.9,0,11.2-105.3,54.7-105.3s36,131.9,58.3,131.9,30.9-54.2,26.6-115.7c4.8-1.6,7.4-2.7,12.9-2.7,11.9,0,13,12.2,13,30.4,0,35.3-2.9,90,31.7,105h0ZM540.5,242.1c-28.1,14.1-51,30.7-51,61.8s5.7,21.7,16.4,21.7c17.5,0,33.3-15.5,34.6-83.5ZM627.7,178c20.6-14.6,32.4-33.2,33.6-49.4,1-13.9-5-23.5-15.4-23.5-21,0-28.9,42.4-18.2,72.9h0ZM977.2,59.1c-9.7,0-17.5-8.2-17.5-18.4s7.8-18.5,17.5-18.5,17.5,8.2,17.5,18.5-7.8,18.4-17.5,18.4ZM1226.1,64.3c-9.2,0-16.5-7.9-16.5-17.6s7.3-17.6,16.5-17.6,16.4,7.9,16.4,17.6-7.3,17.6-16.4,17.6ZM1563.5,147.5c-2.4-14.5-7.4-41.2-44.9-41.2s-54.6,57.3-88.1,94.2c-10.5,11.7-23.2,21.3-38.6,26.3-17.4,5.9-34.8,5.5-52.1-1-29.9-12.1-50.3-42.3-50.3-74.6C1289.5,68.7,1403.3,39.4,1436.1,0h0c.5.2,1.1.4,1.6.7.5.2,1.1.4,1.6.6.5.2,1.1.4,1.6.7.5.2,1.1.4,1.6.6,26.7,11.2,52.2,26.1,73.6,45.6,28.2,25.9,46.5,58.4,47.3,96.8v2.5h0Z"/>
</svg>