<?xml version="1.0" encoding="UTF-8"?>
<svg id="Layer_1" xmlns="http://www.w3.org/2000/svg" version="1.1" viewBox="0 0 566.9 125.1">
  <!-- Generator: Adobe Illustrator 30.1.0, SVG Export Plug-In . SVG Version: 2.1.1 Build 136)  -->
  <defs>
    <style>
      .st0 {
        fill: #f8f3fd;
      }
    </style>
  </defs>
  <path class="st0" d="M482.8,102.6l4.2-5.7h80v-4.9h-76.4l4.2-5.7h72.2v-4.9h-68.6s4.2-5.7,4.2-5.7h64.4V0H0v75.8h84.5l-4.2,5.7H0v4.9h76.7l-4.2,5.7H0v4.9h68.9l-4.2,5.7H0v22.5h566.9v-22.5h-84.1ZM469.2,22.5l-34.8,47.3h-55.1s34.8-47.3,34.8-47.3h55.1ZM81.6,47.1l18.1-24.6h104.5c26.5,0,33.3,21,25.9,31-5.5,7.4-12,16.3-12,16.3h-40.4c-7.7,0-5.4-3.1-4.1-4.9,2.5-3.4,6.7-9.2,9.1-12.6,2.4-3.3,2.5-5.2-2.5-5.2h-98.7ZM163,102.6h-88.7l36.4-49.4h45.1c5,0,4.9,1.9,2.5,5.2-2.5,3.4-6.7,9.1-9.2,12.5-1.3,1.7-3.6,4.9,4.1,4.9h60.5c-5,6.9-21.3,26.8-50.6,26.8ZM262.9,102.6h-52s19.7-26.8,19.7-26.8h52s0,0,0,0h0l-19.7,26.8ZM338.1,102.6h-52s19.7-26.8,19.7-26.8h52l-19.7,26.8ZM235,69.7l34.8-47.3h52l-20,27.1h23.2l20-27.1h52l-34.8,47.3h-127.3ZM389.7,102.6c-21.3,0-27.1-10.3-20.6-19.1,1.8-2.5,5.7-7.7,5.7-7.7h118.2l-19.7,26.8h-83.6Z"/>
</svg>