<?xml version="1.0" encoding="UTF-8"?>
<svg id="Layer_1" xmlns="http://www.w3.org/2000/svg" version="1.1" viewBox="0 0 923.1 385.5">
  <!-- Generator: Adobe Illustrator 30.1.0, SVG Export Plug-In . SVG Version: 2.1.1 Build 136)  -->
  <defs>
    <style>
      .st0 {
        fill: #f8f3fd;
      }
    </style>
  </defs>
  <path class="st0" d="M296.1,71H19.7V19.7h276.4v51.2ZM315.9,0H0v90.7h315.9V0Z"/>
  <path class="st0" d="M19.7,240.6H0v-90.7h19.7v35.8h35.3v-35.8h19.7v90.7h-19.7v-37.6H19.7v37.6M104.7,200.9h23.5c-.4-6.7-3.2-11.3-10.9-11.3s-10.9,2.5-12.6,11.3ZM119.6,242.1c-20,0-33.7-12.6-33.7-33.4s13.4-34.1,31.1-34.1,28.9,12.9,28.9,32.2v7.3h-41.2c2.3,10,10.2,12.6,18,12.6s11.8-1.4,17.8-5.2h.7v15c-5.2,3.8-12.6,5.7-21.6,5.7M197.4,202.6l-10.2,38h-17.3l-19.7-63.9v-.7h18.9l10.7,38.2,10.2-38.2h15.4l10.3,38.2,10.9-38.2h18.1v.7l-19.7,63.9h-17.3l-10.3-38M276.8,242.1c-15.7,0-22.1-6.2-22.1-20.9v-71.3h19.2v70c0,4.5,1.7,6.1,5.5,6.1s3.2-.4,4.4-.9h.3v15.8c-1.6.6-4.4,1.2-7.3,1.2M308.2,200.9h23.5c-.4-6.7-3.2-11.3-10.9-11.3s-10.9,2.5-12.6,11.3h0ZM323.1,242.1c-20,0-33.7-12.6-33.7-33.4s13.4-34.1,31.1-34.1,28.9,12.9,28.9,32.2v7.3h-41.2c2.3,10,10.2,12.6,18,12.6s11.8-1.4,17.9-5.2h.7v15c-5.2,3.8-12.6,5.7-21.6,5.7M428.1,176h14.2v15.4h-14.2v26.3c0,5.7,2.2,8.3,8,8.3s3.6-.1,5.8-.9h.4v15.1c-2.5.9-6.2,1.9-11.8,1.9-15.5,0-21.6-7.1-21.6-23.5v-27.1h-24.5v26.3c0,5.7,2.2,8.3,8,8.3s3.6-.1,5.8-.9h.4v15.1c-2.5.9-6.2,1.9-11.8,1.9-15.5,0-21.6-7.1-21.6-23.5v-27.1h-9.9v-15.4h9.9v-17.7h19.2v17.7h24.5v-17.7h19.2v17.7M506.9,194.5c10,0,14.8-5.7,14.8-13.8s-4.8-14.1-14.8-14.1h-12.5v27.9h12.5ZM541.7,180.7c0,19.7-13.2,30.5-33.2,30.5h-14.1v29.5h-19.7v-90.7h33.8c20,0,33.2,10.7,33.2,30.8M583.8,220.3v-5.5c-2.9-1.6-6.7-2.2-10.6-2.2-6.2,0-10,2.3-10,7.5s3.8,7.7,9.4,7.7,9.4-2.8,11.2-7.6ZM584.4,234.3c-4.2,5.1-10.4,7.5-17.1,7.5-12.6,0-22.9-7.7-22.9-21.3s10.3-21,25.1-21,9.4.7,14.4,2.2v-1.2c0-7-3.9-10-14.2-10s-12.8,1.9-18.2,4.9h-.7v-15.4c4.9-2.9,13.6-5.4,22.2-5.4,19.5,0,30.1,9.3,30.1,25.5v40.5h-18.6v-6.4M612.7,208.4c0-20.8,14.7-33.8,33.8-33.8s13.2,1.5,18,4.9v16.4h-.7c-4.2-3.2-9.1-5.1-14.8-5.1-9.6,0-16.8,6.5-16.8,17.6s7.3,17.4,16.8,17.4,10.6-1.9,14.8-5.1h.7v16.4c-4.8,3.5-11.2,4.9-18,4.9-19.2,0-33.8-12.9-33.8-33.7M695.7,211.3v29.3h-19.2v-90.7h19.2v51.7l19.3-25.5h21.8v.7l-23.2,29.3,23.2,33.8v.7h-21.9l-19.2-29.3M779.8,220.3v-5.5c-2.9-1.6-6.7-2.2-10.6-2.2-6.2,0-10,2.3-10,7.5s3.8,7.7,9.4,7.7,9.4-2.8,11.2-7.6ZM780.4,234.3c-4.2,5.1-10.5,7.5-17.1,7.5-12.6,0-22.9-7.7-22.9-21.3s10.3-21,25.1-21,9.4.7,14.4,2.2v-1.2c0-7-3.9-10-14.2-10s-12.8,1.9-18.1,4.9h-.7v-15.4c4.9-2.9,13.6-5.4,22.2-5.4,19.5,0,30.1,9.3,30.1,25.5v40.5h-18.6v-6.4M831.2,186.5c3.5-7.1,8.6-11.2,15.7-11.2s5.2.6,6.2,1.2v18.3h-.7c-2.2-.9-4.8-1.5-8.4-1.5-6,0-10.6,3.5-12.2,10.2v37.2h-19.2v-64.6h18.6v10.5M903.9,218.7v-20.8c-3.2-4.6-7.4-6.7-12.2-6.7-8.4,0-14.1,6.1-14.1,17.1s5.7,17,14.1,17,9-2,12.2-6.7ZM904.5,234c-4.1,5.2-10.5,8.1-19.2,8.1-16.6,0-27.1-15.1-27.1-33.7s10.6-33.8,27.1-33.8,14.5,2.6,18.6,7.4v-32.1h19.2v90.7h-18.6v-6.7M0,270.3h56v11H12.6v27.7h39.3v10.7H12.6v30.2h43.4v11H0v-90.7M102.3,295.8c14.4,0,22.4,9.4,22.4,25v40.2h-12v-39.9c0-8.3-4.2-14.2-13.4-14.2s-13.9,4.8-16.1,11.6v42.5h-12v-63.9h12v9.3c3.8-6,10.2-10.6,19.2-10.6M157.1,297.1h16.4v10.3h-16.4v34.4c0,7.3,3.8,9.7,10.6,9.7s3.9-.3,5.4-.9h.4v10.3c-1.7.7-4.2,1.3-7.5,1.3-15,0-20.9-6.8-20.9-19.3v-35.6h-11v-10.3h11v-17h12v17M193.7,322.8h31.8c-.4-9.4-5.1-16.7-15-16.7s-15.1,6.8-16.8,16.7ZM212.7,362.3c-18.7,0-31.5-12.5-31.5-32.5s11.9-34,29.2-34,26.7,12.6,26.7,31.3v5.5h-43.8c1.3,12.9,9.6,19.2,21.1,19.2s12.2-1.6,17.9-5.8h.4v10.6c-5.2,4.1-12.1,5.7-19.9,5.7M263.3,307c2.8-6.8,8.9-10.9,15.8-10.9s5.2.4,6.2,1v11.9h-.4c-1.7-.9-4.6-1.3-7.6-1.3-6.5,0-12,4.3-14.1,11.6v41.7h-12v-63.9h12v9.9M324.3,351.4c11.9,0,18.9-9.4,18.9-22.4s-7-22.3-18.9-22.3-12.6,3.9-15.8,10.2v24.5c3.2,6.2,9.3,10,15.8,10ZM326.3,295.8c19,0,29.2,15.5,29.2,33.2s-10.2,33.2-29.2,33.2-14.5-4.1-17.9-8.4v31.6h-12.1v-88.4h12.1v7.3c3.3-4.5,10-8.6,17.9-8.6M381.8,307c2.8-6.8,8.9-10.9,15.8-10.9s5.2.4,6.2,1v11.9h-.4c-1.7-.9-4.6-1.3-7.5-1.3-6.5,0-12,4.3-14.1,11.6v41.7h-12v-63.9h12v9.9M421.3,271.3c4.2,0,7.7,3.3,7.7,7.5s-3.5,7.5-7.7,7.5-7.7-3.3-7.7-7.5,3.6-7.5,7.7-7.5M415.3,361h12.1v-63.9h-12.1v63.9ZM470.3,323.7c9.1,2.9,19.3,6.7,19.3,18.9s-10.7,19.7-24.5,19.7-16.8-2-21.6-5.8v-11.5h.6c5.4,4.9,13.4,7.1,20.9,7.1s12.9-2.6,12.9-8.1-5.1-7-15.1-10.3c-9-2.9-19-6.2-19-18.3s10.2-19.6,23.1-19.6,14.2,1.6,19.6,5.2v11.6h-.4c-5.2-4.2-11.3-6.7-18.9-6.7s-11.8,3.3-11.8,7.8,4.6,6.5,15,9.9M512.6,322.8h31.8c-.4-9.4-5.1-16.7-15-16.7s-15.1,6.8-16.8,16.7ZM531.6,362.3c-18.7,0-31.5-12.5-31.5-32.5s11.9-34,29.2-34,26.7,12.6,26.7,31.3v5.5h-43.8c1.3,12.9,9.6,19.2,21,19.2s12.2-1.6,17.9-5.8h.4v10.6c-5.2,4.1-12,5.7-19.9,5.7"/>
</svg>