<?xml version="1.0" encoding="UTF-8"?>
<svg id="Layer_1" xmlns="http://www.w3.org/2000/svg" version="1.1" viewBox="0 0 2234.5 477.2">
  <!-- Generator: Adobe Illustrator 30.1.0, SVG Export Plug-In . SVG Version: 2.1.1 Build 136)  -->
  <defs>
    <style>
      .st0 {
        fill: #f8f3fd;
      }
    </style>
  </defs>
  <path class="st0" d="M0,0h227c0,75.7,0,151.3,0,227H0V0h0Z"/>
  <path class="st0" d="M250.2,0h227c0,75.7,0,151.3,0,227-75.6,0-151.3,0-227,0,0-75.7,0-151.3,0-227h0Z"/>
  <path class="st0" d="M2046.9,86.5c20.9-13.6,48-14.9,71.5-8.4.2,14,0,28,0,42.1-11.2-4.9-24.4-8.2-36.2-3.3-9.4,3.7-14.9,13.3-16.4,22.9-1.8,12.2-.6,24.5-.9,36.8,23.9,0,47.9,0,71.8,0,.2-15.5-.2-31.1.2-46.6,16.3-4.6,32.4-9.8,48.6-14.7.1,20.5-.2,41,.2,61.5,16.2-.2,32.4,0,48.6-.1v39.9c-16.3-.7-32.5-.2-48.8-.2,0,22.9,0,45.8,0,68.8.3,12.7-.7,25.5.8,38.1.9,7.5,3.6,15.7,10.6,19.6,11.7,6.6,26.6,3.7,37.3-3.5v40.3c-14,6.1-29.7,7.9-44.9,6.9-14.4-1.1-29.3-6.3-38.7-17.8-10.9-12.9-13.6-30.5-13.9-46.8-.1-35.2,0-70.3,0-105.5-24,0-47.9,0-71.8,0,0,55.2,0,110.4,0,165.6h-49.1c0-55.2,0-110.4,0-165.5-11.4-.2-22.8,0-34.2-.2,0-13.1,0-26.2,0-39.3,11.3-.3,22.7-.1,34,0,.8-17.4-1.8-35.4,3.4-52.3,4.4-15.3,14.2-29.1,27.7-37.8h0Z"/>
  <path class="st0" d="M995.9,89.4c9.9-1.5,20.6,1.9,27.2,9.6,7.7,8.5,9.1,22,3.4,31.9-6.3,11.2-20.4,16.4-32.7,13.7-12.7-2.3-23.4-14.1-22.8-27.3-.4-13.9,11.3-26.3,24.9-27.9h0Z"/>
  <path class="st0" d="M619.6,95.4h71.4c22.2,56.4,44.6,112.8,66.9,169.2,5.7,14.1,11,28.4,17,42.4,28.6-70.5,57.6-140.8,86-211.4,22.9-.4,45.8,0,68.7-.1,0,95.4,0,190.8,0,286.3-16.5,0-33,.1-49.5,0,.2-70.4,0-140.8,0-211.3,0-3.2,0-6.3-.3-9.5-1,1.5-1.8,3-2.6,4.6-28.4,72.1-57.3,144-85.5,216.1-11.8.4-23.5,0-35.3.2-29.3-72.1-58.2-144.3-87.3-216.5-.8-1.5-1.6-3-2.5-4.4-.6,30.9,0,61.7-.3,92.6,0,42.7,0,85.5,0,128.2-15.6,0-31.2,0-46.7,0,0-95.4,0-190.9,0-286.3h0Z"/>
  <path class="st0" d="M1131,176.3c23.7-6.7,49.2-6.5,72.9.2,4.9,1.4,9.6,3.3,14,5.8-.3,15.6,0,31.3-.2,46.9-15.8-12.1-35.9-19.8-56-17.2-16,1.4-31.2,9.7-40.8,22.6-12.3,16-15.1,37.3-13,56.8,1.6,15.3,7.9,30.6,19.8,40.8,12.4,11,29.7,14.9,45.9,13.7,16-1.8,31.1-8.6,44-18.1.1,14.8,0,29.6.1,44.5-20.1,11.9-44.1,15-67.1,13.9-23.5-1.2-46.9-10.1-64-26.7-18.5-17.8-28.5-43.2-29.7-68.7-1.2-26.5,4.2-54.1,19.4-76.2,12.8-18.9,32.7-32.2,54.5-38.5h0Z"/>
  <path class="st0" d="M1667.2,173.2c22.7-4,46.5-1.1,67.9,7.1,0,15.1,0,30.1,0,45.1-15-10.3-33.3-15.9-51.6-15.2-9.2.4-19.3,4.2-23.4,13-3.3,8.6-1,19.9,7.1,25.1,13.9,9.3,30.5,13.3,44.9,21.6,11.4,6.4,22.4,14.7,28.1,26.7,10.8,22.5,6.2,52.3-12.8,69.1-18.1,17-44.3,21.6-68.3,20.8-17.1-1.1-34.2-4.5-49.9-11.5,0-15.8,0-31.6,0-47.5,13.2,9.6,28.4,16.4,44.5,19.2,11.2,1.8,23.4,1.9,33.9-3.1,10-5,11.8-19.2,5.9-27.9-5.6-6.7-13.7-10.4-21.4-14-14.5-6.5-29.7-11.9-42.4-21.7-8.9-7-15.7-16.8-18.3-27.9-3.9-16.3-2.7-34.7,6.8-49,10.8-16.6,29.7-26.6,48.8-30h0Z"/>
  <path class="st0" d="M1327.7,179.7c13.6-8.1,30.8-8.8,45.6-3.8,0,16.4,0,32.7,0,49.1-9.7-6.3-21.8-9-33.2-7.8-13.9,1.6-25,12.3-30.7,24.6-6.2,13-7.4,27.7-7,41.9,0,32.7,0,65.4,0,98.1h-48.4c0-68.4,0-136.7,0-205.1,16.2-.2,32.3-.1,48.5,0,0,11.7,0,23.5,0,35.2,5.2-12.8,13.1-25.2,25.4-32.1h0Z"/>
  <path class="st0" d="M975.4,176.6c16.3,0,32.6-.2,48.8,0-.2,68.3,0,136.7,0,205h-48.7c0-68.4,0-136.7,0-205.1h0Z"/>
  <path class="st0" d="M1576.7,224.4c-8.5-18.9-23.9-34.8-42.9-43.3-21.9-10-46.7-11.3-70.3-8.3-24.7,3.1-48.8,14.8-64.5,34.5-14.3,17.6-21.3,40.2-22.7,62.7-2,26.5,2.4,54.5,18,76.6,13.2,19.1,34.1,32.2,56.7,37,18.9,4,38.6,4,57.5,0,22.1-4.5,42.7-16.8,56.4-34.8,13.4-17,20.1-38.4,21.6-59.7,1.5-21.9-.7-44.5-9.8-64.7h0ZM1529.3,318.6c-4.7,10.6-13.3,19.5-24.1,23.7-12.7,4.9-26.9,5.2-40,1.8-13.3-3.5-24.6-13.1-30.8-25.4-7.9-15.8-9.1-34-7.5-51.4,1.5-15.7,7-31.9,19-42.8,8.7-8.1,20.6-12.1,32.3-12.7,14.8-1,30.5,3.2,41.1,13.9,11.3,11.2,15.7,27.3,16.9,42.8.9,16.9.2,34.5-6.9,50.1h0Z"/>
  <path class="st0" d="M1969.9,230.4c-7.6-20.4-22.7-38-42.2-47.7-22.4-11.3-48.4-12.9-72.9-9.9-19.8,2.5-39.2,10-54.2,23.3-18.4,15.9-29.2,39.2-32.4,63-3,23.8-2,49,7.7,71.3,9.3,21.9,27.7,39.7,49.9,48.4,21.9,8.6,46.1,9.6,69.1,5.8,23.5-3.9,45.8-16.3,60.4-35.3,15.6-19.7,22.2-45.1,22.2-69.9.3-16.6-1.7-33.4-7.6-49h0ZM1925.6,299.9c-1.9,10.8-5.6,21.6-12.7,30.1-7.1,8.6-17.7,13.8-28.7,15.4-11.8,1.8-24.1.9-35.1-3.8-11.9-5-21.1-15.3-25.9-27.1-5.8-14.1-7-29.7-5.8-44.7,1.1-14.6,5.2-29.5,14.9-40.9,8.8-10.6,22.2-16.4,35.8-17.2,13.9-1,28.7,2.2,39.3,11.6,9.8,8.2,15.3,20.4,17.8,32.7,2.8,14.4,2.8,29.4.4,43.8h0Z"/>
  <path class="st0" d="M0,250.2c75.7,0,151.3,0,227,0,0,75.7,0,151.3,0,227H0v-227h0Z"/>
  <path class="st0" d="M250.2,250.2c75.6,0,151.3,0,227,0v227h-227c0-75.7,0-151.3,0-227h0Z"/>
</svg>