<?xml version="1.0" encoding="UTF-8"?>
<svg id="Layer_1" xmlns="http://www.w3.org/2000/svg" version="1.1" viewBox="0 0 418.4 208.7">
  <!-- Generator: Adobe Illustrator 30.1.0, SVG Export Plug-In . SVG Version: 2.1.1 Build 136)  -->
  <defs>
    <style>
      .st0 {
        fill: #f8f3fd;
      }
    </style>
  </defs>
  <path class="st0" d="M155.7,80.9l-13.1,41.2c3.9,1.5,8.4,2.3,13.2,2.3s9.1-.8,12.9-2.2l-12.8-41.3h-.2Z"/>
  <path class="st0" d="M253.4,67.5h-9.1v33.2h9.1c12.1,0,21.7-4,21.7-16.8s-9.6-16.4-21.7-16.4Z"/>
  <path class="st0" d="M0,0v207h211.6L418.6,0H0ZM257.6,129h0s-13.3,0-13.3,0v39.5h-61l-6.1-18.9c-6.5,2.1-13.7,3.3-21.5,3.3s-15.4-1.3-22-3.5l-6.3,19.1h-37.4l4.1-11c-.5.4-1,.8-1.5,1.3-9.4,7.5-21,11.6-35.5,11.9h-2.1c-16.6,0-32.9-4.6-46.6-12.4l12.7-25.2c13.8,8.1,22.4,9.9,34.1,9.7,6.1-.1,10.4-1.3,13.3-4.2,1.7-1.8,2.7-4,2.7-6.4.1-6.6-9.2-9.7-20.6-13.2-9.3-2.9-19.8-6.8-28-12.8-9.7-7.1-14.4-16.1-14.1-28.8.1-9.2,3.6-17.5,9.9-24,9-9.4,23.7-15.1,41.2-15.1h0c15,0,33.4,4.3,46.7,11l-14.4,24.9c-14.5-7-21.8-7.7-30.1-8.1-12.4-.7-18.6,3.7-18.7,8.5-.1,5.8,11.6,11,22.7,14.6,16.8,5.3,38.2,12.5,41.5,33.1l30.7-81.9h35.7l36,97.9V40.6h41.2c39.4,0,57.9,14,57.9,44.6s-19.1,43.8-51.2,43.8Z"/>
  <path class="st0" d="M282.2,191.9h0c0-3.1-1.8-4.4-5.5-4.4h-5.9v15.5h2.3v-6.7h2.7l4.1,6.7h2.6l-4.4-6.8c2.3-.3,4-1.5,4-4.2ZM273.2,194.3h0v-4.8h3.2c1.6,0,3.3.4,3.3,2.3s-1.8,2.5-3.7,2.5h-2.8Z"/>
  <path class="st0" d="M276,181.8c-7.4,0-13.7,5.6-13.7,13.3s6.2,13.5,13.7,13.5,13.6-5.7,13.6-13.5-6.3-13.3-13.6-13.3ZM276,206.4c-6.2,0-11-4.7-11-11.3s4.8-11.1,11-11.1,10.9,4.8,10.9,11.1-4.8,11.3-10.9,11.3Z"/>
</svg>