<?xml version="1.0" encoding="UTF-8"?>
<svg xmlns="http://www.w3.org/2000/svg" xmlns:svg="http://www.w3.org/2000/svg" xmlns:sodipodi="http://sodipodi.sourceforge.net/DTD/sodipodi-0.dtd" xmlns:rdf="http://www.w3.org/1999/02/22-rdf-syntax-ns#" xmlns:inkscape="http://www.inkscape.org/namespaces/inkscape" xmlns:dc="http://purl.org/dc/elements/1.1/" xmlns:cc="http://creativecommons.org/ns#" version="1.1" viewBox="0 0 718.1 718.1">
  <!-- Generator: Adobe Illustrator 30.1.0, SVG Export Plug-In . SVG Version: 2.1.1 Build 136)  -->
  <defs>
    <style>
      .st0, .st1, .st2, .st3, .st4, .st5, .st6, .st7, .st8, .st9, .st10, .st11, .st12, .st13 {
        stroke-width: .2px;
      }

      .st0, .st1, .st2, .st3, .st4, .st5, .st6, .st8, .st9, .st10, .st11, .st12, .st13 {
        stroke: #000;
      }

      .st0, .st1, .st2, .st5, .st6, .st9, .st10 {
        stroke-miterlimit: 11.5;
      }

      .st14 {
        fill: #f8f3fd;
        mix-blend-mode: color;
      }

      .st1 {
        stroke-linecap: round;
      }

      .st1, .st3, .st4, .st6 {
        fill: none;
      }

      .st15 {
        fill: #a9a9a9;
      }

      .st16 {
        fill: #5b5b5b;
      }

      .st17, .st5 {
        fill: #727272;
      }

      .st2, .st7, .st18 {
        fill: #b6b6b6;
      }

      .st19 {
        isolation: isolate;
      }

      .st3, .st7, .st8, .st11 {
        stroke-linecap: square;
        stroke-miterlimit: 5.7;
      }

      .st4, .st20, .st12, .st13 {
        stroke-linejoin: round;
      }

      .st21, .st20, .st11, .st13 {
        fill: #fff;
      }

      .st7 {
        stroke: #b6b6b6;
      }

      .st9 {
        fill: #b2b2b2;
      }

      .st22, .st10 {
        fill: #424242;
      }

      .st20 {
        stroke: #fff;
        stroke-width: .6px;
      }
    </style>
  </defs>
  <g class="st19">
    <g id="Layer_1" inkscape:output_extension="org.inkscape.output.svg.inkscape" inkscape:version="0.48.4 r9939" sodipodi:docname="Flag_of_the_U.S._National_Security_Agency.svg" sodipodi:version="0.32">
      <sodipodi:namedview id="base" width="720px" height="720px" bordercolor="#666666" borderopacity="1.0" fit-margin-bottom="0" fit-margin-left="0" fit-margin-right="0" fit-margin-top="0" gridtolerance="10.0" guidetolerance="10.0" inkscape:current-layer="g3" inkscape:cx="-36.276932" inkscape:cy="196.95099" inkscape:pageopacity="0.0" inkscape:pageshadow="2" inkscape:showpageshadow="false" inkscape:window-height="1096" inkscape:window-maximized="1" inkscape:window-width="1920" inkscape:window-x="-8" inkscape:window-y="-8" inkscape:zoom="0.95904189" objecttolerance="10.0" pagecolor="#ffffff" showgrid="false"/>
      <g id="g3">
        <path id="path5" class="st18" d="M359.1,718.1c198.3,0,359-160.7,359-359S557.3,0,359.1,0,0,160.9,0,359.1c-.1,198.3,160.7,359,359,359Z" inkscape:connector-curvature="0"/>
        <path id="path7" class="st21" d="M359.1,707.3c192.4,0,348.5-156,348.5-348.5S551.6,10.3,359.1,10.3,10.6,166.3,10.6,358.8c0,192.5,156,348.5,348.5,348.5Z" inkscape:connector-curvature="0"/>
        <path id="path9" class="st18" d="M359.1,634.8c152.4,0,275.9-123.5,275.9-275.9S511.4,83,359.1,83c-152.4,0-276,123.5-276,275.9s123.6,275.9,276,275.9h0Z" inkscape:connector-curvature="0"/>
        <path id="path11" class="st22" d="M359.1,628c148.6,0,269.1-120.5,269.1-269.1S507.7,89.7,359.1,89.7,89.9,210.2,89.9,358.9s120.6,269.1,269.2,269.1h0Z" inkscape:connector-curvature="0"/>
        <polyline id="polyline13" class="st13" points="378.2 396.8 352.4 396.6 378.2 394.1"/>
        <path id="path15" class="st20" d="M340.8,540.2l11.6,6.2,12-6.2-12-129.9-11.6,129.9h0ZM352.4,407.4l41.3,126.2,9.2,3.6,5.3-7.2-55.8-122.6ZM393.9,534.1l-6,7.7-8.8-3.7-26.7-129.9,41.5,125.9ZM379.1,538.5l-6.4,5-8.3-3.2-11.9-130.4,26.6,128.6h0ZM352.4,407.4l-41.3,126.2-9.2,3.6-5.3-7.2,55.8-122.6ZM310.9,534.1l6,7.7,8.8-3.7,26.6-129.9-41.4,125.9h0ZM325.8,538.5l6.3,5,8.4-3.2,12-130.4-26.7,128.6h0Z" inkscape:connector-curvature="0"/>
        <polygon id="polygon17" class="st13" points="364.5 540.2 352.4 410.3 340.8 540.2 340.8 540.2 352.4 546.4 364.5 540.2"/>
        <path id="path19" class="st4" d="M352.4,541v-130.4M377.8,395.5l-25.3,1.1" inkscape:connector-curvature="0"/>
        <polyline id="polyline21" class="st13" points="377.5 399.5 352.4 397.2 377.1 396.9"/>
        <line id="line23" class="st4" x1="376.9" y1="398.1" x2="352.4" y2="397.2"/>
        <polyline id="polyline25" class="st13" points="377.6 402.2 352.4 398 377.5 399.5"/>
        <line id="line27" class="st4" x1="377.5" y1="400.8" x2="352.4" y2="398"/>
        <polyline id="polyline29" class="st13" points="377.1 405 352.4 398.7 377.5 402.2"/>
        <line id="line31" class="st4" x1="377.9" y1="403.8" x2="352.4" y2="398.7"/>
        <polyline id="polyline33" class="st13" points="377.1 408 352.4 399.4 377.5 405"/>
        <line id="line35" class="st4" x1="378.4" y1="407" x2="352.4" y2="399.4"/>
        <polyline id="polyline37" class="st13" points="378 411.8 352.4 400.3 378.1 408.6"/>
        <line id="line39" class="st4" x1="378.1" y1="410" x2="352.4" y2="400.3"/>
        <polyline id="polyline41" class="st13" points="379.2 416.7 352.4 401 377.9 411.8"/>
        <line id="line43" class="st4" x1="379.4" y1="414.7" x2="352.4" y2="401"/>
        <polyline id="polyline45" class="st13" points="380.4 422.6 352.4 401.7 379 416.5"/>
        <line id="line47" class="st4" x1="380.4" y1="420" x2="352.4" y2="401.7"/>
        <polyline id="polyline49" class="st13" points="381 429.4 352.4 402.6 380.7 422.7"/>
        <line id="line51" class="st4" x1="380.3" y1="425.4" x2="352.4" y2="402.6"/>
        <polyline id="polyline53" class="st13" points="381.8 438.6 352.4 403.7 380.9 429.1"/>
        <line id="line55" class="st4" x1="381.4" y1="433.8" x2="352.4" y2="403.7"/>
        <polyline id="polyline57" class="st13" points="382.7 451.4 352.4 404.7 382 438.6"/>
        <line id="line59" class="st4" x1="380.6" y1="441.7" x2="352.4" y2="404.7"/>
        <polyline id="polyline61" class="st13" points="387 483.5 352.4 406.3 382.8 451.4"/>
        <line id="line63" class="st4" x1="383.8" y1="463" x2="352.4" y2="406.3"/>
        <polygon id="polygon65" class="st13" points="403 537.2 408.2 530 352.4 407.4 352.4 407.4 393.8 533.6 403 537.2"/>
        <line id="line67" class="st4" x1="352.4" y1="407.4" x2="401.7" y2="533.3"/>
        <polygon id="polygon69" class="st13" points="379.1 538.2 352.4 408.2 393.9 534.1 393.9 534.1 387.9 541.9 379.1 538.2"/>
        <line id="line71" class="st4" x1="386.7" y1="538.2" x2="352.4" y2="408.2"/>
        <polygon id="polygon73" class="st13" points="364.4 540.3 352.4 409.9 379.1 538.5 379.1 538.5 372.7 543.5 364.4 540.3"/>
        <line id="line75" class="st4" x1="371.9" y1="540.8" x2="352.4" y2="409.9"/>
        <polyline id="polyline77" class="st13" points="326.7 396.8 352.4 396.6 326.7 394.1"/>
        <line id="line79" class="st4" x1="327.1" y1="395.5" x2="352.4" y2="396.6"/>
        <polyline id="polyline81" class="st13" points="327.3 399.5 352.4 397.2 327.8 396.9"/>
        <line id="line83" class="st4" x1="328" y1="398.1" x2="352.4" y2="397.2"/>
        <polyline id="polyline85" class="st13" points="327.3 402.2 352.4 398 327.3 399.5"/>
        <line id="line87" class="st4" x1="327.3" y1="400.8" x2="352.4" y2="398"/>
        <polyline id="polyline89" class="st13" points="327.8 405 352.4 398.7 327.3 402.2"/>
        <line id="line91" class="st4" x1="327" y1="403.8" x2="352.4" y2="398.7"/>
        <polyline id="polyline93" class="st13" points="327.8 408 352.4 399.4 327.4 405"/>
        <line id="line95" class="st4" x1="326.5" y1="407" x2="352.4" y2="399.4"/>
        <polyline id="polyline97" class="st13" points="326.9 411.8 352.4 400.3 326.8 408.6"/>
        <line id="line99" class="st4" x1="326.8" y1="410" x2="352.4" y2="400.3"/>
        <polyline id="polyline101" class="st13" points="325.6 416.7 352.4 401 326.9 411.8"/>
        <line id="line103" class="st4" x1="325.5" y1="414.7" x2="352.4" y2="401"/>
        <polyline id="polyline105" class="st13" points="324.5 422.6 352.4 401.7 325.9 416.5"/>
        <line id="line107" class="st4" x1="324.4" y1="420" x2="352.4" y2="401.7"/>
        <polyline id="polyline109" class="st13" points="323.8 429.4 352.4 402.6 324.2 422.7"/>
        <line id="line111" class="st4" x1="324.6" y1="425.4" x2="352.4" y2="402.6"/>
        <polyline id="polyline113" class="st13" points="323.1 438.6 352.4 403.7 323.9 429.1"/>
        <line id="line115" class="st4" x1="323.4" y1="433.8" x2="352.4" y2="403.7"/>
        <polyline id="polyline117" class="st13" points="322.2 451.4 352.4 404.7 322.9 438.6"/>
        <line id="line119" class="st4" x1="324.2" y1="441.7" x2="352.4" y2="404.7"/>
        <polyline id="polyline121" class="st13" points="317.9 483.5 352.4 406.3 322.1 451.4"/>
        <line id="line123" class="st4" x1="321" y1="463" x2="352.4" y2="406.3"/>
        <polygon id="polygon125" class="st13" points="301.9 537.2 296.6 530 352.4 407.4 352.4 407.4 311.1 533.6 301.9 537.2"/>
        <line id="line127" class="st4" x1="352.4" y1="407.4" x2="303.2" y2="533.3"/>
        <polygon id="polygon129" class="st13" points="325.8 538.2 352.4 408.2 310.9 534.1 310.9 534.1 317 541.9 325.8 538.2"/>
        <line id="line131" class="st4" x1="318.1" y1="538.2" x2="352.4" y2="408.2"/>
        <polygon id="polygon133" class="st13" points="340.5 540.3 352.4 409.9 325.8 538.5 325.8 538.5 332.1 543.5 340.5 540.3"/>
        <line id="line135" class="st4" x1="332.9" y1="540.8" x2="352.4" y2="409.9"/>
        <path id="path137" class="st9" d="M555.5,516.5s-6.2-.8-9.9-4.6c-2.6-2.7-6.7-12-6.7-12-5.6-12.5-13.4-24.3-26.9-24.3s-28.8,15.5-34.4,28.1c0,0-1,1.9-2.1,2.7-1.1.8-3.3.6-3.3.6H195.8c-5.4,0-9.8,4.2-10.1,9.5h0c.3,5.3,4.7,9.6,10.1,9.6h276.5s2.2-.2,3.3.6c1.1.8,2.1,2.7,2.1,2.7,5.6,12.6,21,28.1,34.4,28.1s21.3-11.8,26.9-24.4c0,0,4-9.3,6.7-12,3.6-3.7,9.8-4.6,9.8-4.6h0Z" inkscape:connector-curvature="0"/>
        <path id="path139" class="st1" d="M190.9,509.6c1.8-1.7,4.2-1.6,5.4-1.6h277.9s2.6-.3,3.2-.8c1.2-1,1.6-1.9,1.6-1.9,4.9-11.1,20.9-27.7,33.2-27.7s19.9,11.2,24.8,22.3c0,0,1.5,3.8,3.3,7.5M477.6,523.2l2.6,3.6c4.9,11.1,19.6,28.6,31.9,28.6s19.9-11.2,24.8-22.3c0,0,3.1-7.9,5.8-12,2.5-3.9,6-4.6,6-4.6-.3,0,2.2,0,2.2,0-3.5,1.2-6.2,2.9-6.2,2.9" inkscape:connector-curvature="0"/>
        <path id="path141" d="M545.8,516.5s-2.7,1-3.7,3.5c-3.3,7.9-8.9,9.3-12,13.1-3.1,3.7-5,7.5-8.1,10.4-3.4,3.2-9.8,2.5-9.8,2.5,0,0,5.8-2.7,7.7-3.7s4.8-4.6,5-6.9c.2-2.3,0-6.2,0-6.2,0,0,10.2-.8,12-3.3,1.9-2.5,3.7-9.3,3.7-9.3h5.2M483.3,516.5h-3.9s5.2-8.1,7.9-11.2c2.7-3.1,6.2-8.1,7.7-10.2,1.4-2.1,3.5-6.2,3.5-6.2l2.9,3.3-3.1,11.8-9.9,3.1-5.1,9.4" inkscape:connector-curvature="0"/>
        <path id="path143" class="st9" d="M497.3,503c-.2-.7-.1-.3-.1-1-.4-7.5,5.4-14,13-14.4,7.5-.4,13.9,5.4,14.3,13,0,.8,0,1.6,0,2.3.7-.2,1.5-.2,2.2-.3,7.5-.4,13.9,5.4,14.3,12.9.4,7.5-5.4,13.9-12.9,14.3-.8,0-2,0-2.7,0,0,.7.4,1.7.4,2.5,0,7.5-6.1,13.6-13.7,13.6s-13.7-6.1-13.7-13.6.1-1.5.2-2.2c-.8,0-1.5,0-2.3,0-7.5,0-13.7-6.1-13.7-13.6s6.1-13.7,13.7-13.7c.9.1.3.1,1,.2h0Z" inkscape:connector-curvature="0"/>
        <path id="path145" class="st10" d="M521.9,526.2c1.8,1,3.9,1.6,6.1,1.4,6.3-.3,11.2-5.7,10.8-12-.3-6.3-5.7-11.2-12-10.8-2.2.1-4.3.9-6,2.1,1-1.8,1.5-3.9,1.4-6.2-.3-6.3-5.7-11.2-12-10.8-6.3.3-11.2,5.7-10.8,12,.1,1.4.4,2.7.9,3.9-1.2-.5-2.6-.7-4-.7-6.3,0-11.4,5.1-11.4,11.4s5.1,11.4,11.4,11.4,4.3-.6,6.1-1.7c-1.1,1.7-1.7,3.9-1.7,6.1,0,6.3,5.1,11.4,11.4,11.4s11.4-5.1,11.4-11.4c0-2.2-.5-4.3-1.6-6.1h0Z" inkscape:connector-curvature="0"/>
        <path id="path147" class="st1" d="M190.9,523.5c1.8,1.7,4.2,1.6,5.4,1.6h277.9s2.6.3,3.2.8c1.2,1,1.6,1.9,1.6,1.9" inkscape:connector-curvature="0"/>
        <path id="path149" d="M481.4,529.2s-2.3-4.9-4.6-5.8c-2.3-.9-6.8-.6-6.8-.6H193.5c-1.8,0-5.6-2.3-5.6-5.3,0,0,2.3,3.4,5.6,3.6h276.4s5.7-.4,7.4.8c1.7,1.3,4.1,7.3,4.1,7.3" inkscape:connector-curvature="0"/>
        <path id="path151" class="st9" d="M464.3,532.1c2.1,0,3.7-1.7,3.7-3.8v-28.5c0-2.1-1.7-3.7-3.7-3.7s-3.7,1.7-3.7,3.7v28.5c-.1,2.1,1.6,3.8,3.7,3.8Z" inkscape:connector-curvature="0"/>
        <path id="path153" class="st6" d="M460.5,527.2c0,2.1,1.7,3.7,3.7,3.7s3.7-1.7,3.7-3.7M460.5,501.6c0-2.1,1.7-3.8,3.7-3.8s3.7,1.7,3.7,3.8" inkscape:connector-curvature="0"/>
        <path id="path155" class="st0" d="M468,524.4c0,2.1-1.7,3.7-3.7,3.7s-3.7-1.7-3.7-3.7v.7c0,2.1,1.7,3.7,3.7,3.7s3.7-1.7,3.7-3.7v-.7Z" inkscape:connector-curvature="0"/>
        <path id="path157" class="st17" d="M224.2,506.2c.3-.7.6-1.4.9-2.1" inkscape:connector-curvature="0"/>
        <path id="path159" class="st5" d="M186.8,494.6c6.3,2,13-2.5,18.3-6.3l.8,1.2c-2.3,9.1-1.7,19.6-5.1,28.2l4.3.5.5-1.7c3.1-1.8,6.8-4.2,10-7,0,0,10.2-4.3,9.4-4.4l3.6-8c9.5-7,14.4-16.9,19.4-26.4,9.8-24.7,15.4-51.8,16.8-79.7,0,0,2.7-1.1,3.2-.3.7.3,7.2-.6,8.4-2.9l5.2,1.2,6.8-.3c4.7-1.2,6.6-4.2,7.5-7.9l4-.4,8.9-7.7c-2.3-2.9-3.6-4.7-6.1-8.3,0,0-13.7-17.6-17.8-51.2-2.2-18.6,2.3-51,2.3-51h6c-7.1-3.3-15.6-7.4-20.4-14.5-3.5-18.4,11.6-34.7,4-52.6-13.5-21.9-43-23.4-64.5-15.4-36.4,21.4-38,64.2-44.5,101.6l-6,84.8c-1.5,20.7,1.2,41.7-.8,62.1,5-1.6,10-4.6,13.4-9.1,3,13.9,1.3,29.7,0,43.8,7-.1,12.8-5.3,16.4-10.8l.8.8c-.5,13.9-2.3,27.2-5.6,39.8l.8,1.9h0ZM552.4,413.5c-15.3-47.6-8-101.6-17.6-151.4l.8-3.6c-3-18.4-11.9-34.5-17.9-51.8-7-14.4-13.8-31.2-29.9-39.8-10.6-9.1-27.1-4.7-39.3-2.3-12.1,5.1-29.5,14.1-29.2,30.2-.5,13.1,6.6,23.1,8,35.5-.3,15.1-18.3,26-28.6,31.9h18.8s3.9,16.1,3.2,37c-.6,19.7-3.7,41.8-17.4,63.6-.4.7-6.2,9.4-15.9,20.1l19.7,6.9,1.6-5.3c.5.8,1.2.8,2,1.3,1.9,1,4.8.5,7,.7l4.2-.4c2.5-.8,4.8-2.8,5.5-5.6l2.5.8,1.1.8c2.3.3,6.1,1.3,7.6-.8l3.2,5.1,2,8.8c10.6,27.6,11.6,60.9,39,79.7l2.3,1.2,4.8,2,12.8,18.7c3.6,4.7,8.3,7.1,12.8,10,1.9.3,4.6,5.7,6,4.2l2-5.3-3.7-19.1c2.8,1.2,6,1,8.6,1.8l4.2-3.5c-3.7-11.6-5.6-24.2-7.6-36.7v-2.6c9.9,6.4,13.9,1.4,13.9,1.4-3.1-12.5-5.1-27.9-6-42.7l1.8-.5c1.2,2.8,2.7,5.4,4.7,7.8,2.2,2.2,5,3.8,8,3.2l5-1.3h0Z" inkscape:connector-curvature="0"/>
        <path id="path161" class="st11" d="M386.4,262.2c-.5-3.4-2.4-9.4-3.6-13.4,1.3-5.8-4.1-11.3-2-16.6-3.7-10-4.5-19.9-4.8-30.7-1.5-6.6-1.8-13.8-4.5-19.9-3.1-7.1-12.5-9.6-18.3-10.8-5.7-1.2-14.8-1.7-14.8-1.7-2.6-.2-7.2,1.4-6.8,3.4,3.2,5,2.8,9.8,2,13.9l-7.9,2c6.6,1.7,13.2,6.7,12.5,10.1-1,3-6,3.5-6.6,2.9,0,0-9.1-8.1-10.3-8.5-1.2-.3-4.5-2.8-4-2.1.3.3,3.3,4.2,5.6,6.5,2.2,2.1,3.3,5.3,3.3,5.3,2.1,2.1,3.1,3.9,2.8,8.2l-2.8,8-2,7.6c0,4-4.5,7.6-4,11.9-1.5,3.2-3.7,6.8-2.8,10l-5.6,13.7h74.6v.2h0Z" inkscape:connector-curvature="0"/>
        <path id="path163" class="st7" d="M331.7,172.6c3.1,5,2.9,9.7,2,13.9l-7.9,2c6.6,1.7,13.2,6.7,12.5,10.1-1,3-6,3.5-6.6,2.9,0,0-9.1-8.1-10.3-8.5-1.2-.3-4.5-2.8-4-2.1.3.3,3.3,4.2,5.6,6.5,2.2,2.1,3.3,5.3,3.3,5.3-13.6-7.5-18.7-8.5-18.7-8.5l-1.9,2.3c-.8-8-2.8-15.4,1.7-22,4.4-4.7,16.1-3.1,24.3-1.9h0Z" inkscape:connector-curvature="0"/>
        <path id="path165" class="st3" d="M326.2,202.8c-13.7-6.8-18.7-8.5-18.7-8.5l-1.9,2.3c-.8-8-2.8-15.4,1.7-22,4.5-4.8,16.3-3.2,24.4-2" inkscape:connector-curvature="0"/>
        <path id="path167" d="M326.5,219.5c2.8-3.6,5-7.1,6.5-12.8-.7-.5-.7-1.2-1.3-1.7-1.2.5-1.3,4.6-1.8,6.8l-3.4,7.7M320.5,193.1s7.7,5.6,11.3,9c3.1.8,6.4-.7,7.3-3.9-.1-1.7-2.4-4.7-5.6-6.9-1.3-.6-2.8-1.6-4.2-2.2,2.7,2.4,8.5,5.2,7.3,10.3-2.5,2.4-3.9,1.5-5.3.2l-10.8-6.5M324.5,192.4l9.3,4.3s1.9,0,0-.6c-7.5-3.3-13.8-12-22.6-8.3-3,1.7-4.3,6.2-5.6,8.8l1.8-2.2s2.2-3.8,3.7-4.3c6.1-2,9.7.4,9.7.4l3.7,1.9M331.1,186.1c-.3.5.7,1.7.2,2-1.5.7-5.5.5-7.4,0,1.1-.4,5-3.5,7.2-2M313.2,174.4c-4.7,3.3-5.1,6.9-6.9,12.1-.5-6.2,1.4-12.9,6.9-12.1M323.8,200.9c-6.8-5.2-7.7-5.4-15.3-8.2,0,0,.5-.7.8-1.2,7.8,3.1,10.9,6,10.9,6l3.6,3.4M333.7,183.2l.5,1.5c3.4-3.7,1.7-8-2.5-12.2l1.5,4.1c1.4,4.8.2,5.4.5,6.6" inkscape:connector-curvature="0"/>
        <path id="path169" class="st8" d="M334.5,186.7c3.5-.5,3.7,5.6,8,5.2,3.5.2,6.6-2.1,8.4-5.7,2.8.3,5.2.7,7.7-.6l.4-.5c-2.5.9-5.2.4-7.9-.5-3.4-1.1-6.9-3.6-9.8-3.6-2.9-.2-4.1,1.8-5.5,4.7l-1.3,1h0Z" inkscape:connector-curvature="0"/>
        <path id="path171" class="st21" d="M340.4,183.7c-.2,1.8-.7,3.7,1.7,4.6,3,.6,3.4-1.2,4.1-3.3.4-.2,2.5.6,2.5.8-.3,1.3-1.3,3.6-3.4,4.5-1.5.4-2.6.5-3.9-.1-2-.8-3.7-3.5-3.7-5.1-.4-.9,1.7-1.7,2.7-1.4" inkscape:connector-curvature="0"/>
        <path id="path173" d="M314.7,262.2c2-.4,3.6-2.4,5.6-2.9.8,1-3.3,1.9-2.5,2.9h-3.1M330.7,262.2c2-.7,4.6-4.1,6.9-4.1,1.3,1-2.1,2.6-1.6,4.1h-5.3M355,262.2c1.7-.8,3.8-4.2,5.9-3.7,2,.7.1,2.1-.8,3.7h-5.1M378.2,262.2l-1.5-2.3c-.2-.8-1.9-2.1-1.2-2.6,1.8,1.2,1.8,2.6,5.1,4.9h-2.4M340.5,231.7c-1.7,1.8-4,2.6-6.3,2.8-1.5.3-2.5-.5-3.7-1.2v-.8c2.8.7,5,1.5,7.6,0,.9-.3,1.4-1.1,2.4-.8M356.1,230.4c-3.7,6.3-5.9,5.2-10.2,1.7-.8-.3,4.4,1.5,5.6.9l4.6-2.6M365.2,252.8c-2.5.5-4.5,4.2-7.1,1.7-1.7-1.3-2.8-3-2.5-5.1,2.5,1.7,5,2.2,7.6.8,2.5-3.8,6.8-5.1,6.8-10,1.2,4.5-2.1,9.1-4.8,12.6M344.1,254.8c-1.8-.5-4.3,1.2-6.5,0-2.2-1.5-1.8-4.1-2.7-6.3,2.7,2.8,4.8,3.7,8,3.2,2.7-3,7-6.1,8.6-10-1.4,4.8-4.2,9.1-7.4,13.1M325.1,254.8c-1.5-1.3-3,1-4.5-.3-.8-2.6-1.7-5.8-.8-8.8,1.2,2,.3,5.1,3.3,6,4.5.5,4.8-5,8.3-6.3-.5,3.8-4.7,6.1-6.3,9.4M174,269.2c8.5-17.1,14.1-35.5,17.9-54.6-4.3,19-7.2,38.4-17.9,54.6" inkscape:connector-curvature="0"/>
        <path id="path175" class="st17" d="M282.7,299.1c-1.5-1.5-.7-4.5.8-6l-.8,6" inkscape:connector-curvature="0"/>
        <path id="path177" d="M171.7,358.7c-1.5,18.2-2.8,36.4-3.3,54.8,4.3-17.3,5.5-36.1,6.5-54.8h-3.2M190.1,358.7c0,2.1-.1,4.3-.1,6.5-1.3,5.1-5.5,9.1-7.6,13.9-7,14.9-4,34.4-19.4,45.5,1.5,2.2,2.8-.5,4.3-.8,11.3-6.3,9.5-20.3,15.1-29.9.7,14.9.2,31,2,45,4.6-16.6,1.5-35.8,1.3-53.3,1.7-6,5-11.3,8.6-16.4.1-3.5.2-7,.4-10.5h-4.6M209.7,358.7c-.7,12-1.5,24-3,35.6-6.1,7-7.8,15.9-9.1,24.7-6,13.9-4.7,32-20.7,40.7l-.5,1.2c7-.3,12.8-8.5,15.9-13.9,3.2-8.6,6.1-17.3,9.3-25.9.8,17.1-1.3,35-2.8,51.4,7-18.9,6.8-41.8,6-62.9.8-4.8,2.5-9.5,6.8-12.4,0,0,.7-18,1.6-38.4h-3.5M230,358.7c-.7,21.2-2.2,42.5-4.2,63.1-10.6,16.4-15.1,35.3-19.1,54.6-1.7,7.6-9.3,13.1-15.9,16.3h-4.8l.8,2c7.6.6,13.4-3.5,19.1-8-1-6.3,4.8-10,6-15.4,2.7-7.6,3.5-16.1,7.6-23.2-1.7,15.4-3,31.4-5.3,45.8,4.5-7.8,4.5-17.8,6.5-26.6,1.5-12,3.5-23.4,4.3-35.5l5.6-5.6s1.5-37.3,2.8-67.4h-3.4M246.1,358.7c-1.1,29.4-2.9,60-4.7,89.3-13.6,14.1-9.3,35.5-19.3,51.1-.8,3.9-3.4,7.4-6.6,10.4l9.5-5.4c6.1-14.1,10.6-30.4,15-45.7l6.8-8c1.3-31.9,2.6-61.9,3-91.8h-3.7M265.1,358.7c-.7,11-2,22.1-.3,32.4l1.6-.2c1.6-9.6,1.8-21.2,2.2-32.2h-3.5M273.2,358.7c-.6,8.2-1.7,16.4-2.4,24.4,0,0,1.2.6,1.3.1,2.1-7.6,2.5-16.3,2.8-24.5h-1.7M281.3,358.7c-.3,10.5-1.7,23.3-4.9,29.2l5.2,1.2c1.7-9.9,2.3-19.9,2.6-30.4h-2.9M290.3,358.7c-.5,7.9-1.7,15.7-1.9,23.3,2.6-6.2,3.4-14.9,3.9-23.3h-2M298.8,358.7c.1.2.1.3.1.3-1.2,4.5-1.9,17-3.1,21.9l6.5,5.8c0-4,17-2.1,17-2.1-8.7-8.8-15.2-17.4-20.1-25.9h-.4M299.3,358.7c-11.4-19.6-14.1-37.9-14.9-53-.3-12.1.4-21.7.4-21.7l-3.6,9.5c-4.3,2.7-8,.5-12-1.2-2.2-3-5.6-6.1-3.7-10.3,1.3-2.2,3-3.3,4.3-4.8-3.8,1.3-8.8,6.6-13.4,2.3-2-4.8-6.3-9.1-4-15.1,1.3-1.8,1.8-4.2,4-5.6-2.2-.5-4.8,1.3-6.8-.7-3-4.6-2.5-9.6-2-15.3,1.8-2,2.8-4,5.1-5.2-2.7-1.2-6.3-3.6-6-7.5.5-8.3,2.8-15.9,8.8-21.9l-.3-.5c-7,6.3-15.8,11.3-25.2,8-3.2-1.3-3.5-4.8-4.3-7.5-4.5,7.5-13.4,9.3-21.9,10-4.6-.3-7.3-5.7-11.6-6.8,2,3.3,5.5,7.6,9.3,10-1.7,17.7-8.3,33.3-15.9,48.6-3.8,4.6-10.4,4-15.9,5.1,2,2.8,6.6,2.2,8.6,5.1-1.8,26.2-4.5,52.2-6.7,78.3h3.2c.7-13.1,1.3-26.3,2.8-38.8l2-39.5,8-4.3,7.1,7.5c-2.6,25.1-4.2,49.4-4.7,75.1h4.6c.8-23.9,1.2-47.5,2.5-72.3,2-1.5,5.7-.5,7.6-.8,2,5,4.2,10,8.3,13.6-1.7,19.1-2.2,39.4-3.3,59.5h3.4c1.1-26.7,2.4-57.6,2.4-57.6.5-1,1.5-.8,2.3-.8,2.5,6.6,3.7,16.6,12.3,17.9.4,13.3.3,26.9-.1,40.5h3.4c.8-20.3,1.5-37.3,1.5-37.3,2.3,3.8,5.3,9.9,10.8,9.6h1.1c-.2,9-.4,18.3-.8,27.7h3.8c.1-7.9.2-15.8.1-23.7,4.5,2.3,8.1,8,14.4,6.3l.8,1.2c.4,5.3.2,10.8-.2,16.2h3.4c.2-5.3.4-10.6.7-15.4,1.2.5,3.5,1.8,4.3,3.7.1,3.9-.1,7.8-.4,11.8h1.6c.1-3.7.2-7.3.4-10.6l6,1.2c.1,2.6.2,5.9.1,9.4h2.9c.1-2.6.1-5.1.2-7.8l6-4.5c.3,4,.2,8.1-.1,12.3h2c.3-4.4.4-8.8.7-12.6,0,0,5,10.7,5.9,12.6h.7" inkscape:connector-curvature="0"/>
        <path id="path179" class="st5" d="M281.6,497.1c-2.3-.5-4.5-.8-6.8-1.3,9.1-34.7,10.6-73,20.4-107,3.5-3,2.5-9.5,16.9-11.3.9,2.1-9,1.7-10.9,6.8,9.8-6.3,15.3-4,21.1.5,17.8,13.4,6.3,39.2,6.8,57.8l-1.3,2.8-1.2,39c-2.2,4-.8,9.5-1.2,14.3-4.3-1.3-9.5-6.5-14.8-2.8h-1.5l-27.5,1.2h0ZM300.7,360.9l-3,20.5s6.6-3.9,8.5-4.6c1.9-.6,5.7-.5,5.7-.5,0,0-4.4-5.3-5.9-7.4-1.6-1.9-5.3-8-5.3-8h0Z" inkscape:connector-curvature="0"/>
        <path id="path181" d="M240.9,480.7c-2.7,3.2-4.3,7-8,9.1,2-7.1,8.6-14.1,11.6-21.9,10.6-23.9,15.3-50.5,17.4-78,1.4,32.7-6.2,63.7-21,90.8M270,236.5c-1.2,6.3,0,12.6,3.7,17.6-10.3-8.8-5.6-21.9-4-33.2,2-8,7.5-16.6,3.7-25.1,8.5,13.2-3.3,26.8-3.4,40.7" inkscape:connector-curvature="0"/>
        <path id="path183" class="st17" d="M230.1,221.8c-3.5,20.2-13.6,37.7-25.9,54.3-2.3,2.2-6.1,2.3-9.1,1.2-2.2-1-4.1-3.3-5.5-5.2,6-15.8,12.1-31.5,14.6-48.6,7.8.8,13.9-4.3,19.9-8.5,1.2,2.6,4,4.6,6,6.8M247.4,239.4c-3,5.6-5.8,12.1-4,18.7-8,11.6-13.9,25.2-25.9,34.2-4.2,2-7.5-2.2-8.8-5.2-5.3-11.1,8.6-18.1,11.1-27.9,5.8-11.8,10.8-23.7,13.6-36.7,5.5.5,9.9-1.8,13.9-5.2-1.7,6.6-7.2,16.6,0,22.1" inkscape:connector-curvature="0"/>
        <path id="path185" d="M214.2,244.5c-1.7-1.3,0-3.8.5-5.6,2.3-4.7,3.7-9.8,4.8-15.1l.3,1.2-5.6,19.5M221.5,280c-3,2.2-4.8,6.8-9.3,5.1-.8-3.3,3.6-2.7,5.3-4.5,9.1-13.8,16.3-28.5,22.6-43.8-5,15-11.8,29.1-18.6,43.2M252.5,250.5l6.3-4c-.6,3-3.8,3.5-6.3,4M207.9,262.1c-3,3.5-3.5,10-8.8,12,5.8-7.6,9.3-17.8,12.8-27.2,1.1,5.9-3.5,9.1-4,15.2" inkscape:connector-curvature="0"/>
        <path id="path187" class="st17" d="M250.5,279.5c1.3,2.5,6.3,2.5,4.8,6-6.7,9.5-11.5,20.7-21.2,27.9-5,2-8.6-3.7-11.5-6.8-1.5-2.7-2.2-5.5-2.5-8.6,11.8-10.1,16.9-23.7,24.7-35.8,7.4,2.9.9,12.2,5.7,17.3" inkscape:connector-curvature="0"/>
        <path id="path189" d="M260.5,273.6l6.3-8.3c-1.5,3.3-3,6.1-6.3,8.3M276.8,286.7l2.5-5.5-.5,3.5-2,2" inkscape:connector-curvature="0"/>
        <path id="path191" class="st17" d="M268.8,296.3h1.2v2l-17.9,27.9c-1.7,1.6-4.5,2-6.6,1.2-3.5-2.5-8-5.8-8-10.3,10.6-7.8,14.1-20.1,20.6-30.4,1.9,4,4.9,10.1,10.7,9.6" inkscape:connector-curvature="0"/>
        <path id="path193" d="M230.1,307.4h-3.5c-.8-2.5,3.2-1.5,4.3-3.2,4.6-5,8.1-10.5,11.6-15.9-2.9,6.8-7.2,14.6-12.4,19.1" inkscape:connector-curvature="0"/>
        <path id="path195" class="st17" d="M278.8,299.9c-1,5.6,7.1,8,4.5,13.9-6,7.1-8.1,16.6-14.8,23.9-4.7,3.7-8.6-1.7-12.5-3.6-1-1.3-1.7-2.8-2-4.3,8.8-9,13.1-19.6,18.4-29.9,1.9,1.7,4.2,0,6.4,0" inkscape:connector-curvature="0"/>
        <path id="path197" d="M248.5,321.9c-1.5,1-2.8,2.2-4.8,2,6.1-4.8,10.6-12.8,14.8-19.6l-10,17.6" inkscape:connector-curvature="0"/>
        <path id="path199" class="st17" d="M288,330.2c-.5,2.7-3.3,5.9-6.1,7.6-1.3-.3-2.5.2-3.5,1.2-.3.7.3,1.2.8,1.5,2.7,0,5-1.2,7.1-2.7.7-1.2,1.9-2.6,2.6-3.7.2,2.1,1.3,4.3,2,6.7-.4.5-2.8,1.9-3.8,2.2-4.8,3.8-10.3,0-14.4-2.5l-1.2-1.2,13.5-24.9c.4,4.9,1.9,10.9,3,15.8" inkscape:connector-curvature="0"/>
        <path id="path201" d="M258.8,333c7.1-2.8,9.8-10.8,13.6-16.8-3.6,6-4.1,17.1-13.6,16.8M239.4,208.3c1.5-2.8,1.8-6.1,4.7-8.5.6,3.4-2.2,6-4.7,8.5M252.9,224.3c-.2-3,3.2-3.8,4.8-6.8-.2,2-3.5,4.6-4.8,6.8M420.7,299.3c-.4,8.5,1.3,48.2-33.3,83.4l19.7,7,1.6-5.3c.5.8,1.2.8,2,1.3,1.9,1,1.4.7,3.7.9l7.5-.6c2.5-.8,4.8-2.8,5.5-5.6l2.5.8,1.1.8c2.3.3,6.1,1.3,7.6-.8l3.2,5.1,2,8.8c10.6,27.6,11.6,60.9,39,79.7l2.3,1.2,4.8,2,12.8,18.7c3.6,4.7,8.3,7.1,12.8,10,1.9.3,4.6,5.7,6,4.2l2-5.3-3.7-19.1c2.8,1.2,6,1,8.6,1.8l4.2-3.5-2,.5c-4.1-2-9.5-2.7-13.1-6.5-16.3-17.6-13.3-43.1-29.9-60.6-6.3-34.2-8.5-70.2-13.6-105.1,5.3-5,3.5-14.8,12-16.8,5.5,30.1,5.5,62.4,9.1,93.3,3.3,1.3,6.6,3.5,8.8,6.6,1.8,25.1,4.8,49.6,14.4,71.4-1.2-8.5-4.2-17.1-5.3-25.9l-3.2-30.7c4.1,12.8,6.3,28.6,15.1,34.4,9.5,6.3,13.9,1.4,13.9,1.4-1.5-2-2.8-.7-4.6-1.5-27.2-10.1-13.5-45.1-34.4-61.4l-7.5-80.5-1.7-11.4c3-5.5,4-11.8,5.1-17.9l8.5-2.5.7,5.1,4.5,86.5,4,2.8c2.5,20.1,2.5,41.7,10.3,59.4-5-16.8-5.1-37-6-55.4,11.5,8.5,8.6,23.4,15.1,34.2l1.8-.5c-6.2-14.8-3.1-33.6-20-43.3-2-31-4-62.1-6-93.1,1-1.8,1.3-4,2.8-5.6,2.1,5.1,8.6,6.1,13.4,6,5.1,41.8,5.3,85.6,15.3,125.5-5.5-41.5-8.6-85-12.8-127.4,2.5-1,5.2-2.7,6.8-5.1-.7-1.5,1.2-2.3,0-3.7-4.2,3.7-9.5,6.8-14.8,4.8l-4.5-4.8c-8.8-15.8-15.9-32.4-23.1-49,2.2.8,6.3.5,8.8-1.2,3-2.7,5.6-6,7.1-9.6-4.5,3.6-11.8,7-17.9,4.5l-.8-.8c-7.6,5.8-18.1,11.1-28.2,7.2-1.8,4.8-3.3,11.1-9.1,12.8l-4.5.3c1.2,2.8,4.1,5.8,5.7,8.8,1,4.8,1.8,11.6-.9,15.9-1.6,4.6-10.6,2-7.1,8.8.5,4.8,1,10.4-2,14.3-4.3,4.6-9.8,8.6-15.1,8-.8,4.5-7.1,12.8-7.1,12.8,0,0,.3,5,0,9.5M429.3,236.5c5.6-17.9-14.4-33-4-50.9-5.8,18.1,14.6,33,4,50.9M470.8,196.4l-.3.3c-1.3-.8-2.6-3-2-4.3.8.8,2.3,2.2,2.3,4" inkscape:connector-curvature="0"/>
        <path id="path203" class="st5" d="M487.5,205.8c7.5,16.1,13.6,32.9,21.9,48.6.3,3.8-1.8,6.8-4,9.6-2.7,1.8-6,3-9.1,2-13.1-15.8-22.6-32.7-31.2-50.3,8.8,1.1,16.1-3.9,22.4-9.9h0Z" inkscape:connector-curvature="0"/>
        <path id="path205" d="M453.2,214.6c-2.8,0-6.5-2.5-9.5-4.3l.8-1.7c3.9-.4,6.7,3.7,8.7,6M524.2,248.5c-5.5-12.8-11.1-26.1-14.8-39,5.8,12.6,9.7,26.1,14.8,39M501.8,260.5c-4.7-1.3-6.5-7.5-9.1-11.6-5.3-10.3-12-20.1-14.3-31.9,5.1,15.6,16.6,28.5,23.4,43.5" inkscape:connector-curvature="0"/>
        <path id="path207" class="st5" d="M491.8,269.2c1.3,6-.3,11.6-3.2,16.3-2.5,3.1-5.8,5.5-9.6,4.5-9.3-11.5-18.3-23.1-24.2-35.9-.8-3.2,2-5.8,2.3-8.8,1-6.3-1.2-11.4-2.7-16.8,3.2-3,5.5-7,6.6-11.1,10.6,16.8,16.9,36.1,30.8,51.8h0Z" inkscape:connector-curvature="0"/>
        <path id="path209" d="M447.7,237.7c1,1.3,1.7,2.8,2,4.5-3.5-2.5-7.6-4.8-10-8.5,3.4-.5,5.5,2.2,8,4M485.5,283.5c-1.5,2.3-3.8-1-4.8-2.3-8.3-14.4-17.4-28.4-22.2-44.3,9.1,15.6,16.4,31.9,27,46.6M435.7,265.6c-4.8-3.3-8-8.1-10-13.1,5.9,1.5,8.9,8,10,13.1" inkscape:connector-curvature="0"/>
        <path id="path211" class="st17" d="M451.2,255.6c6.8,13.9,14.9,27.2,25.5,39.5,1.3,5.3-2,8.8-4.8,12.3-2.8,2.3-6.3,3.3-10.3,2.8-8.3-9-13.4-19.2-19.6-29.1,6.1-7,6.3-16.6,7.6-25.5h1.6" inkscape:connector-curvature="0"/>
        <path id="path213" d="M465.6,298.3c1.7,2,6.2.5,5.5,4.3-2.3,1.3-4.3-.5-6.3-1.2-5.5-8.6-11.3-17.2-15.1-26.7,4.8,8.2,10.3,15.5,15.9,23.6" inkscape:connector-curvature="0"/>
        <path id="path215" class="st17" d="M437.7,281.5c5,11.4,11.8,22.2,20.2,32.4.5,4.8-3.3,8.6-7.1,11.1-3.8,1.3-8.1-1-9.1-4.8-3.5-12.6-20.4-22.9-11.1-37.5,2.3-.3,4.7-.7,7.1-1.2" inkscape:connector-curvature="0"/>
        <path id="path217" d="M446.5,315c1.3,2.7,6.8,2.3,4.6,6.3-3.3.5-6.1-2-7.5-4.8l-10-25.4,12.9,23.9" inkscape:connector-curvature="0"/>
        <path id="path219" class="st17" d="M440.1,326.5c-2.3,5.7-8.5,7.3-13.9,8-3.2-.2-8.6-1.5-9.4-3.3,1.1-4.7,2.7-12.6,3.3-19,4.3,5.5,4.1,17.1,12.9,17.6,1.3-.5.7-1.8.8-2.8-7.1-3.2-9.7-13-13.5-19.3.5-3.2.4-6.3.6-9.6.7-.7,2.2-1.5,3.7-1.8l15.5,30.2" inkscape:connector-curvature="0"/>
        <path id="path221" class="st5" d="M437.2,337.8c3.5-2.6,4-11.8,10-6l4.8-.8,1.7,4.3c3,35,9.6,69,15.4,102.4,10.5,9.3,12.4,22.6,17.9,34.2-15.3-9.8-23.7-26.9-29.4-43-5.3-12.8-8.3-26.4-13.1-39.3,0,0-6.1-35.2-7.3-51.8h0Z" inkscape:connector-curvature="0"/>
        <path id="path223" class="st17" d="M425.3,339.8c1.2,11.4,3.8,22.2,6.8,33,1.2-5-1.8-9.3-2-14.4-.7-5.8-1.3-11.8-2.8-17.4,1.3-1,2.8-1.3,4.5-1.1,2.2,13.9,5,27.7,8.3,41.3-1.3-3-5-.7-7.1-2-14.9-7.6-7.3-26.7-12.8-39.3l.5-2,4.6,1.9" inkscape:connector-curvature="0"/>
        <path id="path225" class="st5" d="M519.6,503.2l-3.1-18.9c-9.5-10.4-13.8-23.2-17.9-35.8-1.3,11.1,2.2,21.7,3.7,31.9h-.5c-6.3-14.1-7.1-30.4-8.8-46.3-2.7-4.5-5.3-10.3-10.6-12.6-3.3-35.5-9.6-69.7-12.8-105.2h-8.5l-3.5,11.1c4.1,36,8.5,71.9,16.3,106.4,15.8,19.9,13,48.3,35.8,64.6l9.9,4.8h0Z" inkscape:connector-curvature="0"/>
        <path id="path227" class="st17" d="M409.9,379.6c.5.8,1.1,1.4,2,1.9,1.9,1,4.6,1.1,6.8,1.3,2.7-.5,5-3.5,5.5-5.6-6.3-10.8-4.8-27.7-6.9-40.3-.6.2-1.4-1.2-1.9-.6-.9,2.7-2.6,6.3-2.7,8,1.5,8.8,4.4,18.6,2.7,28.1-2.7-8.1-.4-18-3.7-25.7-2.3,5.1-3.4,7.4-5.6,11.6l3.4,19.8c0,.5.2,1,.4,1.5M403.4,362.5l2.8,13.8s-1.9-3.2-5-3.6-5.1-.3-5.1-.3l7.3-9.9" inkscape:connector-curvature="0"/>
        <path id="path229" class="st5" d="M401.1,495.1c-4.8,2.1-9.9,3.5-15.1,5.1l-1.1-23.1-1.3-1.3-2.7-29.8v-1.2l-1.3-1.5c3.3-20.4-10.3-41.7,2.5-59.4,4.6-3.1,10.1-5.6,16.3-4,3.5,1.1,6.3,4,9.1,6.3-.2-1.7-1.7-3.8-3.2-5.5-3.2-4.2-8.5-4.3-12.8-5.1,3.3-1.3,6.6-1.3,9.9,0,4.6,2,8.1,6.6,10.8,10.6,3.6,12.1,4.2,25.2,7.1,37.5,4.3,24.1,10.6,47.3,15.3,71.4-4-.5-7.3.8-11.3.3l-22.2-.3h0Z" inkscape:connector-curvature="0"/>
        <path id="path231" class="st0" d="M423.3,495.4c-23.1-15.4-18.4-43.2-26.2-65.4-1.2-6-2.3-12.1-4-17.9,1,19.1,7,37,10.3,55.4,3,4.6,2.5,10.9,3.7,16.3-1.5,4-2.7,8-6,11.3l22.2.3h0ZM309.1,495.8l-6.8-17.1c1.2-7.6,2.5-15.6,2-23.4-3.1,14.3-7.9,31.7-22.7,41.8l27.5-1.3h0Z" inkscape:connector-curvature="0"/>
        <path id="path233" d="M326.2,398.7v.3c-4-1.2-9.3-2-12.8-5.5-4.8,2.7-11.1,3-16.8,2.7v-.7c5.8-2.2,11.6-3.8,16.8-7.3,3.7,4.2,9.5,7.5,12.8,10.5M311.5,414.6l2.3.3c4.3,8.6,9.8,16.8,12.8,25.9-9.3-5.6-10-17.4-15.1-25.4l-6.8,39c1.7-20.2,6.1-39.2,8.5-58.9.6,6.8-1.3,12.6-1.7,19.1" inkscape:connector-curvature="0"/>
        <path id="path235" class="st8" d="M400.7,398.2c7.8,17.9,12.9,37.7,20.6,54.6-9-17.4-16.1-36.2-21.4-54.6h.8Z" inkscape:connector-curvature="0"/>
        <path id="path237" d="M309.5,405.5c-7.1,18.9-8.5,40.3-23.6,56.1l-.7-.8,15.9-33.4,8.3-26.4v4.5M311.1,447.6c4,11.6,8.8,22.7,13.1,34.2-8.1-9.4-13.6-21.6-13.9-34.2h.8M394.3,457.6c-1.8,4.6-3.1,9.4-7.1,13.1l8-21.4c1.4,1.7.5,6-.9,8.3" inkscape:connector-curvature="0"/>
        <path id="path239" class="st21" d="M420.7,299.3s1.6,41.3-23.3,71.8c-27.3,33.4-44.9,39.6-44.9,39.6,0,0-17.6-6.2-44.9-39.6-24.8-30.4-23.3-71.8-23.3-71.8h136.4Z" inkscape:connector-curvature="0"/>
        <path id="path241" class="st16" d="M347.1,408v-108.8h-11.6v100.6s5.2,4.1,11.6,8.2ZM302.7,364.4v-65.3h-10.7v43.7c0,0,5.1,14.1,10.7,21.6ZM324.2,389.5v-90.4h-10.7v78.8c0,0,4.5,5.3,10.7,11.6ZM357.7,408v-108.8h11.6v100.6s-5.2,4.1-11.6,8.2h0ZM402.2,364.4v-65.3h10.7v43.7c0,0-5.1,14.1-10.7,21.6ZM380.7,389.5v-90.4h10.7v78.8c0,0-4.5,5.3-10.7,11.6Z" inkscape:connector-curvature="0"/>
        <path id="path243" class="st15" d="M417.6,262.2s4.2,18.7,3.2,37c0-.1-136.6-.1-136.6,0,.1-18.5,3.2-37,3.2-37h130.2Z" inkscape:connector-curvature="0"/>
        <polygon id="polygon245" class="st12" points="58.1 435.4 58.1 435.4 68 449.4 65.1 457.9 58.1 435.4"/>
        <polygon id="polygon247" class="st13" points="58.1 435.4 58.1 435.4 57.9 452.5 65.1 457.9 58.1 435.4"/>
        <polygon id="polygon249" class="st12" points="41.6 457.5 41.6 457.5 57.9 452.5 65.1 457.9 41.6 457.5"/>
        <polygon id="polygon251" class="st13" points="41.6 457.5 41.6 457.5 57.8 463 65.1 457.9 41.6 457.5"/>
        <polygon id="polygon253" class="st12" points="57.5 480.1 57.5 480.1 57.8 463 65.1 457.9 57.5 480.1"/>
        <polygon id="polygon255" class="st13" points="57.5 480.1 57.5 480.1 67.7 466.4 65.1 457.9 57.5 480.1"/>
        <polygon id="polygon257" class="st12" points="83.9 471.9 83.9 471.9 67.7 466.4 65.1 457.9 83.9 471.9"/>
        <polygon id="polygon259" class="st13" points="83.9 471.9 83.9 471.9 74.1 458 65.1 457.9 83.9 471.9"/>
        <polygon id="polygon261" class="st12" points="84.3 444.3 84.3 444.3 74.1 458 65.1 457.9 84.3 444.3"/>
        <polygon id="polygon263" class="st13" points="84.3 444.3 84.3 444.3 68 449.4 65.1 457.9 84.3 444.3"/>
        <polygon id="polygon265" class="st12" points="663 427 663 427 663.8 444 656.8 449.6 663 427"/>
        <polygon id="polygon267" class="st13" points="663 427 663 427 653.7 441.2 656.8 449.6 663 427"/>
        <polygon id="polygon269" class="st12" points="637.2 436.7 637.2 436.7 653.7 441.2 656.8 449.6 637.2 436.7"/>
        <polygon id="polygon271" class="st13" points="637.2 436.7 637.2 436.7 647.9 450.1 656.8 449.6 637.2 436.7"/>
        <polygon id="polygon273" class="st12" points="638.5 464.3 638.5 464.3 647.9 450.1 656.8 449.6 638.5 464.3"/>
        <polygon id="polygon275" class="st13" points="638.5 464.3 638.5 464.3 654.5 458.3 656.8 449.6 638.5 464.3"/>
        <polygon id="polygon277" class="st12" points="665.2 471.6 665.2 471.6 654.5 458.3 656.8 449.6 665.2 471.6"/>
        <polygon id="polygon279" class="st13" points="665.2 471.6 665.2 471.6 664.3 454.5 656.8 449.6 665.2 471.6"/>
        <polygon id="polygon281" class="st12" points="680.3 448.5 680.3 448.5 664.3 454.5 656.8 449.6 680.3 448.5"/>
        <polygon id="polygon283" class="st13" points="680.3 448.5 680.3 448.5 663.8 444 656.8 449.6 680.3 448.5"/>
        <path id="path285" class="st0" d="M380.8,446h0c6.8-6.3,11.1-14.5,11.5-23.1l-.3-.3c-2.5,8-8,14.6-11.1,22.2v1.2h-.1Z" inkscape:connector-curvature="0"/>
        <path id="path287" d="M392.3,408.7h-.3l-.5-6.3.5-.2.3,5.3v1.2M404.7,393.5c-4.6,1-9.3-.2-13.3-2-3.8,2.5-8,4.7-12.6,5.1,2.6-3.5,8.3-5.8,11.9-9.9,3.9,4,8.7,6,14,6.8" inkscape:connector-curvature="0"/>
        <path id="path289" class="st2" d="M300.8,508s3.4-13.5,13.4-13.5,9.1,2.2,11.2,4.1c1.9,1.7,3.9,4.3,3.2,5.8-.1.1-.7.8-.8.9-.4.3-4.6,2.7-5.5,3-2.7.8-7.9,1-10.9,1.2-4,.3-7.3-1.7-8.3-1.7-1.1,0-2.3.2-2.3.2h0Z" inkscape:connector-curvature="0"/>
        <path id="path291" d="M304.6,507.5s-1.8-2,.4-4.5c.3-.4,1.7-.5,2.3-1.9,1.2-2.6,5.7-3.6,8-3.4,3.4.3,10.9,6.3,10.9,6.3,0,0,1.6,2.7-.1,1.6-1.3-.9-2.3-2.3-4.4-1.9s-5.7,3.1-8.2,2.4-4.8-2.9-5.8-2.6c-.9.4-3.1,4-3.1,4" inkscape:connector-curvature="0"/>
        <path id="path293" class="st2" d="M328.6,504.1c2.1,1.1,3.8,2.8,5.5,5.3,1.7,2.5,1.4,7.9-.1,11.5-1.2,2.7-8.4,6.2-8.4,6.2,0,0,3.7-7.6,3.3-10.6-.3-2.6-2-4-3.4-5.5-1.2-1.2-3.6-2.6-3.6-2.6,0,0,2.9-2.7,4.6-3.1,1.6-.4,2.1-1.2,2.1-1.2Z" inkscape:connector-curvature="0"/>
        <path id="path295" d="M325.8,505.7l1.2-.4s4,3.1,5.1,6.4c.5,1.4,1.2,3.8-.4,7.8-1,2.4-2.8,4.2-2.8,4.2,0,0,1.6-3,2.6-6.9.5-1.8-.1-4.6-2.5-7.4-1.2-1.4-3.2-3.7-3.2-3.7" inkscape:connector-curvature="0"/>
        <path id="path297" class="st2" d="M287.8,507.5s-1,5.2-.7,9.5c.3,4.6,3.7,9.4,7,10,4.1.8,6.5.4,6.5.4-1.3-1.2-5.4-4.3-5.7-7.4-.3-3.1,1-4.3,1.3-6.3.3-2.1,1.1-3.1,1.1-3.1,0,0-2.8-1.6-4.5-2.2-1.5-.6-5-.9-5-.9Z" inkscape:connector-curvature="0"/>
        <path id="path299" d="M292.1,508.2s-1.6,3.2-1.6,5.8c0,4.6.3,6.1,1.2,8,.8,1.6,4.9,3.8,4.9,3.8,0,0-3.1-2.4-3.6-6.1-.5-3.7.2-8.3,1.1-10.5l-2-1" inkscape:connector-curvature="0"/>
        <path id="path301" class="st2" d="M291.8,496.4s-10.9.4-13.2-.1c-2.3-.5-2.6-.9-4.4-.8-1.9.1-10.4,2-12.3,5.5s-3.1,5.6-3,6.2,3.5,1,4.7,1.5c1.1.4,5.4,1,6.3,1.2,5.4,1.2,12-.4,9.6-.1,3-.4,6.5-1.8,7.3-2.5.7-.7,1.9-1.8,2.3-2.9.4-1.2,2.7-8,2.7-8h0ZM307.5,496.9s-4.6-10.2-7.9-14c0,0-5,6.5-6.4,9.3-1.5,2.8-5.8,10.1-5.7,11.1.1,1-.8,3.1-.5,3.5s.8.5,3.3.9,3.7,1.1,4.8,2c1,.8,3.3,1.1,4,1s1.7-2.7,1.7-2.7c0,0,1.7-4.8,2.8-6.4,1.1-1.7,3.9-4.7,3.9-4.7Z" inkscape:connector-curvature="0"/>
        <path id="path303" d="M302.9,502.8s-1.8-2.1-3.2-2.7c-1.4-.6-4-.7-4-.7,0,0-2.1.8-2.2,1.7-.1.8-.1,1.8.3,2.1.4.3,1.3.9,3.4,1.5,2.1.5,4.4,1.3,4.4,1.3l1.3-3.2" inkscape:connector-curvature="0"/>
        <path id="path305" class="st2" d="M259.7,507.7s-1.1,5.2.5,11.1c1,3.7,3.6,7.1,6.3,8.2,2.7,1.1,10.4.2,10.4.2,0,0-5.1-.8-7.9-5.9-1.4-2.5-1.1-6.2-.9-8s.9-3.4.9-3.4c0,0-4.3-.9-5.1-1-1-.3-4.2-1.2-4.2-1.2Z" inkscape:connector-curvature="0"/>
        <path id="path307" d="M263,508.7s-.3,4.3-.1,6.6c.2,2.4,2.2,4.8,2.2,4.8,0,0-.8-3.2-.8-5s.3-6.2.3-6.2l-1.6-.2M288.1,501.5s-6-.3-9-.1c-3,.2-4.6.9-5.2,1.4-.6.4-4.8,1.1-4.8,1.1l-5.2,5,3.4.6c3.7-.6,1.3-2.8,8-3.2,3.5-.2,10.7-2.4,12.4-3.5l.4-1.3" inkscape:connector-curvature="0"/>
        <path id="path309" class="st2" d="M407,494.5s-2.1.1-5.9.6-11,.1-12.8,2c-1.9,1.9-7.4,4.4-9.2,8.2-1.9,3.8-2.2,6-1.5,6.6.7.6.9.4,3,.7s4.5,1.2,7.3,1.7c5,.8,7.3-2.1,9.2-3,2.5-1.3,7.7-2.7,9.4-3,1.8-.3,1-5.1,1-5.1l-.5-8.7h0ZM387.1,514.3s-.3,4.9,1.3,8c1.7,3.1,3,3.2,5,3.7s4.5.4,4.5.4c0,0-3.1,3.5-6.6,2.9-3.4-.6-8.5-4.9-10-7-2.3-3.5-2.2-9.8-2.2-9.8,0,0,3.8.5,4.9.8,1.4.5,3.1,1,3.1,1Z" inkscape:connector-curvature="0"/>
        <path id="path311" d="M404.5,499.2c0,.4-2.1,2.3-2.1,2.3l-6.5,2-4.9,2.2-4.6,3.1s-2.5,2.6-2.7,3c-.2.4-.4,1.5-.4,1.5l3.4.9s0-1,1-1.8c.8-.7,1.7-1.4,2.3-1.9,1.4-1,3.7-2.3,5-2.6,1.2-.3,4.6-2.2,5.1-2.6s1.8.1,3.1-.8c1.4-1,1.3-5.3,1.3-5.3M383.4,513.3s-.3,4.8.3,6.5c.6,1.8,2.5,3.5,2.5,3.5,0,0-1.3-3.6-1.3-5.4-.1-1.1.4-4.1.4-4.1l-1.9-.5" inkscape:connector-curvature="0"/>
        <path id="path313" class="st2" d="M419.8,495c1.8-.2,3.3,0,7.6-.8,4.3-.7,7,.1,10,.8,4.4,1.1,9.2,4.4,10.1,5.6,1.1,1.4,2.4,6.5,0,7.7-2.4,1.1-5.3,2.8-7.3,2.1-2-.7-8.3-1-11.2-1.6-2.9-.5-5-.3-5-.3l-4.2-13.5ZM448.1,508s.9,2.7,1,6.1c.1,3.4-.8,6-1.8,8.2-1.1,2.7-6.7,4.9-6.7,4.9,0,0,2.3-3.5,3.1-6.1.8-2.6-.1-6.1-.4-7.5s-1.6-3.1-1.6-3.1c0,0,1.2-.2,2.3-.6,1.1-.4,4.1-1.9,4.1-1.9h0Z" inkscape:connector-curvature="0"/>
        <path id="path315" d="M445.1,509.6s.8.6,1.5,3.5c.5,2.4.3,5.8.3,5.8,0,0,1.1-3.7.8-5.9-.3-2.2-1.4-4-1.4-4l-1.2.6" inkscape:connector-curvature="0"/>
        <path id="path317" class="st2" d="M410.7,488.3c-2.7.1-5.7,1.9-7.5,3.9-1.8,2.1-1.5,5.8-.7,8.2.7,2.4,2.8,6.4,4.9,8.7,2.1,2.3,5.7,3.8,9.1,3.6s8.5-.5,8.6-3.2-.9-6.1-1.7-8.7c-.7-2.6-1.9-5.4-3.6-7.6-2.7-3.4-4.1-5-9.1-4.9h0Z" inkscape:connector-curvature="0"/>
        <path id="path319" d="M423.2,500s.5,1.5.5,1.9.1,1.8.1,1.8c0,0-3.2,2.4-4.8,2.2-1.6-.2-4.5-.4-6.3-2.3-1.9-1.9-3.1-4.5-3.1-4.5,0,0,6.3,2.6,9.2,2.5,1.2-.1,4.4-1.6,4.4-1.6" inkscape:connector-curvature="0"/>
        <path id="path321" class="st2" d="M413,512s2.3,2.7,2.4,4.9-.2,4.6-1.1,6.1-3.1,5.3-3.1,5.3c0,0,2.2.3,4.6-1.1,2.4-1.4,5.3-3.8,6.2-7,.8-3,.4-8.3.4-8.3,0,0-3.6,1.1-6.6,1.1-1.2,0-2.8-1-2.8-1Z" inkscape:connector-curvature="0"/>
        <path id="path323" d="M417.7,515s-.1,3.9-.3,5.2c-.2,1.2-1.2,3.6-1.2,3.6,0,0,2.2-3.1,2.5-5s0-4.2,0-4.2l-1,.4M444.9,499.8c1.8,2,3.8,4.5,2.3,7.3-.2.5-.7.3-1.2.3-1.8-2.2-.8-6.5-4.8-6.8-5-2.8-12.5,1.3-17.1-2.3,5.1-1.2,11.9-1.2,17.9,0l2.9,1.5" inkscape:connector-curvature="0"/>
        <polygon id="polygon325" class="st9" points="204.3 536.4 197.7 536.4 197.7 527.7 259.7 527.7 259.7 536.4 253.1 536.4 253.1 545.8 259.7 545.8 259.7 558.8 231.5 558.8 231.5 545.8 236.5 545.8 236.5 536.4 220.9 536.4 220.9 536.4 220.9 545.8 225.9 545.8 225.9 558.8 197.7 558.8 197.7 545.8 204.3 545.8 204.3 536.4"/>
        <path id="path327" class="st6" d="M257.4,527.7v7.3h-6.6v10.8M257.4,545.8v11.6h-25.9M236.5,536.4v-1.5h-17.8v10.8M223.6,545.8v11.6h-25.9M204.3,536.4v-1.5h-6.4" inkscape:connector-curvature="0"/>
        <path id="path329" d="M385,262.2l-5.4-13.7,1.7-.2-4.1-13.3,1.9.2-5.2-11.2,2.1.4-2.3-11h1.2l-2.1-8.3,2.1-.2-3.3-10.6,2.1,9.7-2.5-.4,2.7,8.5-2.1-.4,3.1,11.4-2.7-.2,5,11s-3.3-1.5-2.5-.2,5.2,13.7,5.2,13.7l-2.5.2,5.8,14.5h1.8" inkscape:connector-curvature="0"/>
        <path id="path331" d="M101.8,507.6c.6,1.1,1.2,2.3,1.9,3.4.7,1.1,1.5,2.1,2.3,3.1l-12.3,8c-2.4,1.5-6,3.7-8,5.6-1.9,1.8-3,3-3.5,5.5-.4,2.2,0,4.2,1.3,6.1,2.6,4,5.5,5.2,10.2,4.3,2.4-.4,7.3-3.6,9.5-5l13.1-8.5c.3.6.6,1.3,1,1.8.4.6.8,1.1,1.2,1.6l-15.4,9.9c-5,3-9.5,6-15.5,3.5-3.2-1.3-5.7-3.8-7.6-6.7-3.4-5.2-5.4-12-.8-17.2,1.4-1.6,3.1-3,4.9-4.1l17.7-11.3M122.5,538.9l3.3,3.9c-1.4,10.7-2.4,21.6-4.1,32.5l18.4-15.5c.3.6.8,1.2,1.2,1.7s.9,1,1.4,1.5l-27,22.7-2.8-3.4c1.2-8.8,2.5-17.2,3.4-25.6l.9-8.1-19,16c-.4-.6-.8-1.1-1.2-1.7-.4-.5-1-1-1.4-1.5l26.9-22.5M147.8,567.7c.8,1,1.6,2,2.6,2.9.9.9,1.9,1.7,2.9,2.5l-24.9,25c-.8-1-1.6-2-2.6-2.9-.9-.9-1.9-1.7-2.9-2.5l24.9-25M146,614.1c-.9-.9-1.8-1.9-2.8-2.7s-2-1.6-3.1-2.3l20.7-23.9c-2.8-2.4-5.5-4.2-7.7-5.7.5-.5,1.1-.9,1.6-1.5.5-.5.8-1.2,1.2-1.8l20.1,17.3c-.5.5-1.1.9-1.6,1.5s-.9,1.2-1.3,1.8c-2.1-2.3-4.1-4.5-6.5-6.6l-20.6,23.9M194.4,606.7c-.5.5-1.1,1.1-1.5,1.6-.4.6-.7,1.3-1.1,1.9-2.3-2.2-4.9-4.5-9.2-7.6l-6.5,9,4.3,3.1c1.9,1.4,3.7,2.4,5.4,3.3-.5.5-1.1,1.1-1.5,1.6-.4.6-.8,1.3-1.1,1.9-1.4-1.3-3-2.7-4.8-4.1l-4.3-3.1-7.7,10.6c4.3,3,7.3,4.9,10,6.4-.5.5-1.1,1.1-1.5,1.6-.4.6-.8,1.3-1.1,1.9l-15.9-11.5,20.6-28.4,15.9,11.8M213.3,618.1c9.3,5.9,9.4,14.8,5.2,22.1-5.8,10.1-16.4,12-25.5,6.7l-12.5-7.2,17.5-30.3,15.3,8.7ZM188.7,640.9l3.8,2.2c6.1,3.5,12.6,3.2,18.6-7.2,4.8-8.4,2.8-14-3.5-17.6l-4.4-2.5-14.5,25.1M290.5,673.9c-2.1,3.6-3.9,6.5-5.6,9.8-.8-.2-1.5-.4-2.4-.6-.8-.2-1.6-.2-2.4-.3l21.2-32.2c.7.2,1.2.4,1.9.5.7,0,1.3.2,1.9.2l7.3,37.8c-1.4-.4-2.8-.8-4.3-1.1s-2.9-.4-4.4-.6c-.4-4-.8-7.6-1.5-11.2l-11.7-2.3ZM301.7,672.8l-2.2-12.6-7,10.9,9.2,1.7M332.8,691c-1.3-.2-2.5-.5-3.8-.6s-2.6,0-3.9,0l2.9-31.5c-3.6-.3-6.9-.3-9.6-.2.2-.7.4-1.4.5-2.2.1-.7,0-1.4-.1-2.2l26.4,2.4c-.2.7-.4,1.4-.4,2.1-.1.8,0,1.5,0,2.2-3-.7-6-1.3-9.1-1.6l-2.9,31.7M497.8,650.4c.6,4.1.9,7.5,1.6,11.1-.8.3-1.5.6-2.2,1s-1.4.8-2.1,1.2l-3-38.5c.6-.2,1.2-.4,1.8-.8.6-.3,1.1-.6,1.7-1l29,25.4c-1.4.6-2.7,1.1-4.1,1.8-1.3.7-2.6,1.5-3.8,2.2-2.8-2.9-5.3-5.5-8.1-7.9l-10.8,5.5ZM506,642.7l-9.5-8.6,1.1,12.9,8.4-4.3M536.5,598.9c.7-.3,1.3-.6,1.9-1,.6-.4,1.1-1,1.7-1.4,9.1,10.6,16.4,19.2,23.5,26.7-1.2.7-2.5,1.4-3.7,2.2s-2.2,1.7-3.3,2.6c-4.9-6.5-10.2-12.5-15.3-18.6,1.2,8.7,2.4,17.4,3.9,26-.6.3-1.2.6-1.6,1.1-6.7-4-14.6-8.3-22.3-12.8,4.1,8.2,7.4,14.5,11.3,20.6-.7.4-1.5.7-2.2,1.2s-1.2,1-1.8,1.5c-4.3-9.6-9.6-20.4-15.5-32.2.7-.3,1.3-.6,1.9-1,.6-.4,1.1-.9,1.6-1.4,7.6,4.6,15.5,9,23.4,13.4-.9-8.3-1.8-17.4-3.5-26.9M561.2,578.4c.4.6.8,1.3,1.2,1.8.5.6,1.1,1,1.6,1.5-2.6,1.7-5.6,3.7-9.5,7.2l7.2,8.4,4.1-3.5c1.7-1.5,3.2-3,4.5-4.5.4.6.8,1.3,1.2,1.9.5.5,1.1,1,1.6,1.5-1.6,1.1-3.4,2.3-5.1,3.8l-4.1,3.5,8.5,9.9c3.9-3.5,6.4-5.9,8.6-8.3.4.6.8,1.3,1.2,1.9.5.5,1.1,1,1.6,1.5l-14.9,12.8-22.8-26.6,15.1-12.8M564.2,575.6l7.6-7.8c1.7-1.7,4.2-4.5,6.6-5.2,3.2-1,5.9-.5,8.4,1.9,3.6,3.5,3.6,8.1,1,12.2,5.5,1.4,11.1,2.5,16.7,3.6l3.7.8c-1.2,1-2.3,2-3.5,3.2s-2.1,2.3-3.1,3.5l-12-3.2c-1.5-.4-4.2-1-6.4-1.6l-.2.3,11.8,11.5c-1,.8-2,1.7-2.9,2.6-.9.9-1.7,1.9-2.5,2.9l-25.2-24.7h0ZM581.5,581.7c4.1-3.5,4.2-7.2.4-10.9-.5-.5-1.1-1-2-1.6-3.6-2.4-6,.7-8.2,2.9l9.8,9.6M585,553.5c.9-.9,1.9-1.8,2.7-2.8s1.5-2.1,2.3-3.1l27,22.7c-.9.9-1.8,1.8-2.7,2.8-.8,1-1.5,2.1-2.3,3.1l-27-22.7M634.6,536.7l3,3.5c-.5,3.4-2.1,6.8-4.1,9.6-6.4,9-16.8,11.8-25.3,5.7-10.9-7.8-10.6-18.9-4.1-28,2-2.8,5.1-5.6,8.1-7.1,1.2,1.4,2.4,2.7,3.6,4l-.4.6c-3.4,0-6.9,1.5-8.8,4.2-4.9,7-.3,14.5,5.9,18.9,7.2,5.1,14.7,5.2,19.3-1.3,1.8-2.6,2.7-6.6,2.2-9.7l.6-.4M636.8,523.5c2.8,3.1,4.9,5.8,7.5,8.3-.4.7-.9,1.3-1.3,2-.4.7-.7,1.5-1.1,2.2l-23.9-30.3c.4-.5.7-1,1.1-1.6.3-.6.6-1.2.8-1.8l38.2,4.9c-.8,1.3-1.7,2.4-2.4,3.7-.7,1.3-1.3,2.6-1.9,4-3.9-.8-7.5-1.6-11.2-2.1l-5.8,10.7h0ZM639.4,512.5l-12.7-1.8,8.1,10.1,4.6-8.3M26.6,408.2l-.6-7.2c10.5-11.3,20.7-23,31.7-34.1l-34.1,2.6c.1-1,.1-2,0-2.9-.1-1-.2-2-.4-2.9l49.9-3.9.4,6.2c-8.7,9.2-17.1,17.7-25.1,26.6l-7.7,8.6,35.2-2.7c0,1,0,2,0,2.9,0,1,.3,2,.5,2.9l-49.8,3.9M59,341.8c5.3,2.4,9.7,4.7,14.6,6.5-.2,1.2-.4,2.2-.6,3.4,0,1.2,0,2.3,0,3.5l-48.4-25.6c.2-.9.4-1.8.5-2.7.1-.9.1-1.8.1-2.8l52.5-15.4c-.3,2.1-.7,4.1-1,6.2-.2,2.1-.2,4.2-.2,6.3-5.5,1.2-10.6,2.2-15.7,3.7-.1-.1-1.7,16.9-1.7,16.9ZM56,326.1l-17.6,4.8,16.3,8.5,1.3-13.3M83.9,284.6c-.6,1.7-1.2,3.5-1.7,5.2-.4,1.8-.7,3.6-1,5.4l-43.6-10.9c-1.3,5-1.9,9.6-2.3,13.4-1-.4-1.9-.8-3-1.1-1-.2-2-.3-3.1-.4l9.1-36.5c1,.4,1.9.8,2.9,1.1,1.1.3,2.1.3,3.1.4-1.5,4-3.1,8.1-4.2,12.4l43.8,11M42.7,248.5c.8-1.7,1.6-3.3,2.2-5,.6-1.7,1.1-3.5,1.5-5.3l47,17.4c-.8,1.7-1.6,3.3-2.2,5s-1.1,3.5-1.5,5.3l-47-17.4M108.7,224.9c-7.7,14.2-21.2,19.2-35.8,11.4-12.8-6.9-18.1-21.8-9.4-37.8,9.9-18.3,25.7-16.7,35.7-11.4,12.6,6.7,18,22.1,9.5,37.8h0ZM80.6,226.6c8.3,4.5,19.3,5.5,24.5-4.1,5.4-9.9-2.1-19.7-12.8-25.4-8.3-4.5-19.9-5.8-25.1,3.9-4.9,8.8-1,17.8,13.4,25.6M86.7,162.7l4.6-5.6c15.3-.8,30.8-2.1,46.4-2.5l-26.3-21.8c.7-.6,1.4-1.4,2-2.1.6-.7,1.2-1.6,1.7-2.4l38.6,32-4,4.7c-12.7.5-24.6.9-36.6,1.7l-11.5.8,27.2,22.5c-.7.7-1.4,1.4-2,2.1-.6.7-1.1,1.6-1.7,2.4l-38.4-31.8M156.2,137.5c2.2,5.4,3.7,10.1,5.9,14.8-.9.7-1.9,1.3-2.7,2.1-.9.8-1.7,1.6-2.5,2.4l-16.9-52.1c.8-.5,1.5-1,2.3-1.6.7-.6,1.3-1.2,2-2l48.4,25.4c-1.7,1.3-3.4,2.4-5,3.8s-3,2.9-4.5,4.3c-4.8-3-9.2-5.8-13.8-8.3l-13.2,11.2h0ZM165,124.2l-16-8.7,5.8,17.4,10.2-8.7M203.1,113.8c5.4-3.4,9.7-6.7,13.6-9.8.4.9.8,2,1.4,2.9.5.9,1.3,1.7,2,2.4l-23.4,14.8-26.6-42c1.6-.9,3.3-1.6,4.8-2.6s3-2.1,4.4-3.2l23.8,37.5M249.9,51.9c-2.8-3.1-6.3-4.4-10.1-2.8-5.4,2.1-6.4,5.7-4.9,9.6,3.6,9.2,23.6-.6,29.7,14.9,3.4,8.7-1.6,17.9-12.1,22-3.7,1.5-8.1,2.2-12.1,1.4-.3-3.2-.7-6.3-1.4-9.4l1.3-.5c2.9,4.3,7.6,5.6,12.3,3.8,4.2-1.7,7-5.5,5.2-10.2-4.3-10.9-23,1-29.4-15.4-3.1-7.8-.2-16.4,10.1-20.4,4.9-1.9,10-1.8,12-1,0,2.5.2,5,.5,7.6l-1.1.4M290.7,30.4c.1,1,.2,2.1.4,3.1.3,1,.7,2,1.1,3-4.5.5-9.4,1.2-16.6,3.2l3.9,15.2,7.3-1.9c3.2-.8,6-1.9,8.5-2.9.1,1,.2,2.1.4,3.1.2,1,.7,2,1.1,2.9-2.7.3-5.7.8-8.9,1.6l-7.4,1.9,4.6,18c7.2-1.9,11.9-3.5,16.1-5.2.1,1,.2,2.1.4,3.1.3,1,.7,2,1.1,2.9l-26.9,7-12.1-48,27-7M348.2,64.7l-.9,6.4c-4.1,2.7-9.2,4.2-14,4.7-15.5,1.7-28.3-6.6-30-21.4-2.1-18.9,10-29,25.8-30.8,4.8-.5,10.7.1,15.2,1.9-.4,2.5-.5,5-.8,7.7h-1c-3.1-3.5-8.1-5.8-12.8-5.3-12.1,1.3-15.6,13.4-14.5,24.1,1.4,12.4,8.4,20.4,19.6,19.2,4.5-.5,9.5-3.4,12.4-6.9l1,.4M359.8,22.9c1.8.3,3.6.6,5.4.7s3.7,0,5.5,0l-1.3,20.7c-.3,4-.8,10-.4,13.8.4,3.6.9,5.9,3.3,8.6,2.2,2.3,4.9,3.5,8.1,3.7,6.8.4,10.6-1.8,13.5-8,1.5-3.1,2.1-11.4,2.3-15l1.4-22.1c.9.2,1.9.3,2.9.4.9.1,2,0,2.9,0l-1.6,26c-.7,8.3-1.2,15.9-9.1,20.6-4.1,2.6-9.2,3.3-14,3-8.8-.6-18.2-3.9-20.3-13.6-.6-2.9-.8-6.1-.6-9l2-29.8M421.2,28.8l15.1,3.6c3.3.8,8.6,1.9,11.2,4.2,3.5,3.1,4.9,6.8,3.8,11.6-1.7,7-7.2,10.3-14.1,10.2,2.3,7.7,5.2,15.3,7.9,22.9l1.7,5.1c-2.1-.6-4.2-1.4-6.4-1.9-2.1-.5-4.3-.8-6.5-1.2l-4.9-16.9c-.6-2.2-1.8-5.9-2.8-9h-.5c0,0-5.4,22.7-5.4,22.7-1.7-.6-3.5-1.2-5.2-1.6-1.8-.4-3.6-.6-5.4-.9l11.5-48.8h0ZM426.5,54.2c7.3,2.5,11.8-.2,13.6-7.5.2-1,.4-2.1.5-3.6.3-6.2-5.2-6.9-9.5-7.9l-4.6,19M469.3,41.8c1.7.8,3.3,1.6,5,2.2,1.7.6,3.5,1,5.3,1.5l-17.1,47.1c-1.7-.7-3.3-1.6-5-2.2s-3.5-1-5.3-1.5l17.1-47.1M490.9,105.4c-1.6-.9-3.1-1.9-4.8-2.8-1.6-.8-3.4-1.4-5.1-2.1l19.8-40.3c-4.7-2.3-9-3.9-12.6-5.1.6-.9,1.2-1.7,1.7-2.7.4-.9.7-1.9,1-2.9l33.8,16.7c-.6.8-1.2,1.7-1.7,2.6-.5,1-.7,2-1.1,3-3.6-2.3-7.3-4.7-11.3-6.7l-19.7,40.3M528.3,102.8c.8-10.9,2.3-21.7,3.4-32.8,1.7,1.4,3.4,2.8,5.2,4s3.7,2.3,5.6,3.4c-.6,4.4-1.5,9.5-2.2,14.2-.7,4.5-1.2,8.4-1.1,9.8,4.2-1.3,15.5-8.2,21.3-11.8.9.8,1.8,1.5,2.8,2.2s2,1.3,3,1.8c-9.6,4.8-19.1,9-28.2,14.1l-12.7,18.6c-1.4-1.2-2.8-2.4-4.3-3.4s-3.1-1.9-4.7-2.8l11.9-17.3M572.4,145.9c-5.3,2.4-9.9,4.2-14.5,6.6-.8-.9-1.4-1.8-2.2-2.7s-1.7-1.6-2.5-2.4l51.2-19.2c.5.8,1.1,1.5,1.7,2.2.7.7,1.3,1.3,2.1,1.9l-23.2,49.5c-1.3-1.7-2.6-3.3-4-4.8-1.5-1.6-3-2.9-4.5-4.3,2.8-4.9,5.4-9.4,7.6-14.2l-11.7-12.6h0ZM586.2,154.1l8-16.3-17.1,6.6,9.1,9.7M614.6,222.4c-5.1-4.5-9.9-9.2-13.4-14.6-8.4-12.9-9.4-28.7,5-38,15.3-9.9,30.3-3.8,39.4,10.3,3.4,5.3,5.5,10.9,5.8,17.2-2.5.4-5,1.2-7.3,2.3l-.6-.9c2.3-5.5,1.6-11.3-1.6-16.1-6.6-10.2-19.1-9.3-29.4-2.6-10.7,6.9-13.5,16.4-7.5,25.7,2,3.1,4.3,4.7,6.1,5.6l14.3-9.3c.9,1.6,1.7,3.3,2.7,4.8s2.2,3,3.3,4.4l-16.8,11.2M673,236.5c-1,.3-2.1.5-3,.9-1,.4-1.8,1.1-2.7,1.6-1.3-4.3-2.8-9.1-6-15.8l-14.3,6.4,3.1,6.9c1.3,3,2.8,5.6,4.3,7.9-1,.3-2.1.5-3,1-.9.4-1.8,1.1-2.7,1.6-.8-2.6-1.7-5.5-3.1-8.5l-3.1-6.9-16.9,7.6c3.1,6.8,5.5,11.2,7.8,15-1,.3-2.1.5-3,1-.9.4-1.8,1.1-2.7,1.6l-11.4-25.4,45.4-20.3,11.3,25.4M678.5,250.3l1.9,7c-8.2,13-16.1,26.4-24.7,39.4l33-8.9c0,1,.3,2,.6,2.9.2.9.6,1.9,1,2.8l-48.4,13.1-1.6-6c6.9-10.6,13.5-20.6,19.7-30.8l6-9.8-34.1,9.2c-.2-.9-.3-2-.5-2.9-.3-.9-.7-1.9-1-2.8l48.1-13.2M655,354.3l-6.4-1c-2.6-4.2-4-9.2-4.4-14.1-1.4-15.6,7.2-28.2,22.1-29.5,19-1.7,28.8,10.6,30.2,26.5.4,4.8-.3,10.7-2.3,15.2-2.5-.4-5-.7-7.6-1v-1c3.6-3,5.9-8,5.5-12.7-1.1-12.1-13.1-15.9-23.8-15-12.4,1.1-20.6,8-19.6,19.2.4,4.5,3.2,9.5,6.6,12.5l-.3.9M666.7,374.6c9.8-4.9,19.9-9,30-13.8-.3,2.2-.7,4.4-.8,6.5-.2,2.2,0,4.4,0,6.6-4.1,1.7-8.9,3.6-13.4,5.3-4.2,1.7-7.9,3.2-9,4,3.2,3,15,9.2,21,12.3-.2,1.2-.4,2.3-.4,3.6,0,1.2,0,2.3,0,3.5-9-5.8-17.4-11.9-26.5-17.1l-22.5-1.4c.3-1.8.6-3.6.7-5.5,0-1.8,0-3.7,0-5.5l21,1.5M367.3,657.2c-.1.7-.3,1.5-.3,2.2s.2,1.5.3,2.2c-3.1-.4-6.6-.8-11.9-.7v11.1h5.4c2.3,0,4.4-.2,6.3-.5-.1.7-.2,1.5-.2,2.2s.1,1.5.3,2.2c-1.9-.3-4-.5-6.3-.5h-5.4v13.1c5.2,0,8.7-.3,11.9-.7-.1.7-.3,1.5-.3,2.2s.2,1.5.3,2.2h-19.6v-35h19.5M267.9,679.2c-1.2-.5-2.4-1-3.6-1.4s-2.5-.6-3.8-.9l9.1-30.3c-3.5-1-6.7-1.6-9.4-2.1.3-.7.7-1.3.9-2.1.2-.7.3-1.4.4-2.1l25.4,7.6c-.3.7-.7,1.3-.9,2-.2.8-.3,1.5-.4,2.2-2.8-1.2-5.6-2.5-8.6-3.4l-9.1,30.5M432.2,685.9c-11.2,2.4-20.2-2.5-22.7-14.1-2.2-10.1,3.4-19.9,16.1-22.6,14.5-3.1,21,6.1,22.7,14,2.2,9.9-3.6,20-16.1,22.7h0ZM418.2,671.5c1.4,6.6,6,13,13.6,11.3,7.8-1.7,9.6-10.3,7.8-18.7-1.4-6.6-6.1-13.4-13.7-11.8-7.1,1.5-10.1,7.8-7.7,19.2M388.6,663.5c-1.2-2.7-3.2-4.4-6.2-4.3-4.1.2-5.7,2.4-5.5,5.4.3,7.1,16.2,5.1,16.7,17.1.3,6.7-5.3,11.8-13.4,12.1-2.9,0-6-.4-8.5-1.9.5-2.2,1-4.5,1.2-6.7h1c.9,3.6,3.9,5.6,7.5,5.5,3.2,0,6.1-2.1,5.9-5.7-.3-8.4-15.8-4.7-16.4-17.3-.3-6,3.7-11.2,11.6-11.5,3.8-.2,7.2,1.1,8.4,2.2-.6,1.7-1,3.5-1.4,5.3l-.9-.2M254.5,644.8c.1-3-1.1-5.4-3.8-6.5-3.8-1.6-6.2-.2-7.3,2.5-2.7,6.5,12.5,11.4,7.9,22.5-2.6,6.2-9.8,8.4-17.3,5.3-2.7-1.1-5.3-2.9-6.9-5.3,1.4-1.8,2.8-3.6,4-5.6l.9.4c-.7,3.6,1.1,6.7,4.5,8.1,3,1.2,6.4.7,7.8-2.7,3.2-7.7-12.4-10.9-7.5-22.6,2.3-5.6,8.1-8.6,15.4-5.5,3.5,1.4,6,4,6.7,5.5-1.2,1.3-2.4,2.7-3.5,4.2l-.9-.3M459.3,655.8l12.1-4.3,1.6,3.5-12.4,4.4,5.7,16.1-6.5,2.3-11.8-33.3,18.9-6.7,1.6,3.5-12.7,4.5,3.5,10h0Z" inkscape:connector-curvature="0"/>
      </g>
      <sodipodi:namedview id="base" width="720px" height="720px" bordercolor="#666666" borderopacity="1.0" fit-margin-bottom="0" fit-margin-left="0" fit-margin-right="0" fit-margin-top="0" gridtolerance="10.0" guidetolerance="10.0" inkscape:current-layer="g3" inkscape:cx="-36.276932" inkscape:cy="196.95099" inkscape:pageopacity="0.0" inkscape:pageshadow="2" inkscape:showpageshadow="false" inkscape:window-height="1096" inkscape:window-maximized="1" inkscape:window-width="1920" inkscape:window-x="-8" inkscape:window-y="-8" inkscape:zoom="0.95904189" objecttolerance="10.0" pagecolor="#ffffff" showgrid="false"/>
      <path class="st14" d="M359,0C160.7,0,0,160.8,0,359s160.7,359,359,359,359-160.7,359-359C718.1,160.8,557.3,0,359,0Z"/>
    </g>
  </g>
</svg>