<?xml version="1.0" encoding="UTF-8"?>
<svg id="Layer_1" xmlns="http://www.w3.org/2000/svg" version="1.1" viewBox="0 0 418 150">
  <!-- Generator: Adobe Illustrator 30.1.0, SVG Export Plug-In . SVG Version: 2.1.1 Build 136)  -->
  <defs>
    <style>
      .st0 {
        fill: #f8f3fd;
      }
    </style>
  </defs>
  <path class="st0" d="M283.7,108.5h-.1c-17.8,12.6-38.8,25.8-61.5,39.7l-.9.5c-.4.1-.5.6-.4.9.1.4.6.5.9.4.1,0,.2-.1.3-.2l.7-.4c19.3-10,41.4-21.9,63.6-34.2l.4-.2c-1.3-2-2.3-4.2-3-6.5ZM400.5,13.9c-28-30.9-208.6-3.1-285.3,13.7l-1.8.4c-.4,0-.6.4-.6.8,0,.3.3.6.7.5,0,0,0,0,.1,0l1.8-.3c63.6-11.3,195.9-27,224.3,1.2,8.7,8.6,6.7,19.7-3.4,32.8,5.6,3.6,9.5,9.3,11,15.8,39.3-26.1,65.7-51.1,53.2-64.9Z"/>
  <g>
    <path class="st0" d="M133,84.3c-2.2,0-4.3.7-6.1,2-1.8,1.5-3,3.7-3.3,6-.6,3.1-.3,5.2.9,6.6,1.4,1.4,3.3,2.1,5.3,2,1.5,0,3-.3,4.4-.9,1.3-.6,2.5-1.6,3.3-2.8.9-1.4,1.6-3,1.9-4.6.5-2.8.1-4.8-1.2-6.2-1.3-1.4-3.2-2.2-5.2-2.1ZM101.9,123.1l8.3-46.8h15l-1.2,6c1.6-2.1,3.8-3.6,6.3-4.5,3.1-1.3,6.4-1.9,9.7-2,3.9,0,6.3.2,9.2,1.7,2.7,1.4,4.9,3.7,6,6.6,1.2,3,1.5,6.3.8,9.5-.8,5.5-3.9,10.5-8.4,13.7-4.6,3.3-8.7,4.2-14.6,4.2-1.8,0-3.6-.2-5.3-.6-1.2-.3-2.3-.7-3.4-1.3-1-.7-2-1.6-2.8-2.6l-2.8,16.1h-16.8ZM275,111h-17.4l8.8-48.6,16.9.4-8.3,48.2ZM188.2,75.9l1.2-7.1,17.8-3.8-1.9,10.9h8.8l-1.7,7.1h-8.5l-5.1,28h-17.3l5.2-28h-6.5l1.3-7h6.7ZM49.6,98.5c-4.7,1-9.4,1.5-14.2,1.5-8.1,0-14.6-4-14.2-11.5.2-4.9,6.1-15.3,20.9-15.3,4.7-.1,9.3,1.1,13.3,3.6l2.1-12.1c-5.3-2.1-11.1-3.1-16.8-2.8-19.5.2-38.2,9-40.5,27s20,22.9,29.9,22.9,11.7-.3,17.2-.8l2.3-12.5ZM239.3,95l-2.9.8-6.7,1.2c-1.6.1-3.1.6-4.5,1.4-.8.5-1.4,1.3-1.5,2.2-.2.9.1,1.9.9,2.4.9.6,2.3.8,4.3.8,1.5,0,3-.2,4.4-.6,1.3-.4,2.5-1,3.6-1.9.7-.6,1.2-1.4,1.5-2.3.4-1.3.7-2.6.9-4ZM257.7,83.5c-.1,1.7-.4,3.3-.8,5.8l-3.1,17.5c-.3,1.4.4,2.9,1.7,3.6v.6h-17.9v-4.5c-2.7,1.6-5.6,2.8-8.6,3.7-2.8.7-5.7,1.1-8.6,1-5.7,0-9-.6-11.3-2.6s-3.4-3.4-3.3-6.2c.2-1.9,1-3.7,2.2-5.2,1.3-1.4,2.9-2.6,4.7-3.3,2.3-1,4.6-1.7,7.1-2,3.2-.5,7.6-1,13.5-1.5,2-.2,3.9-.6,5.8-1.3,1.2-.5,1.7-1,1.9-2s-.2-2.8-2.6-3.3c-6.4-1.3-18.4.8-24.6,2.3l3.3-9c7.9-1.3,15.9-1.9,23.9-2,12.7,0,16.8,3.8,16.7,8.4h0ZM155.5,111l6.2-34.9h17.1l-6.2,34.9h-17.1ZM162.7,68.1c.5-2.9,5-5.2,10.1-5.2s8.7,2.3,8.2,5.2-5,5.2-10.1,5.2-8.7-2.4-8.2-5.2ZM85.5,94.9c-.9.4-1.9.6-2.9.8l-6.6,1.2c-1.6.1-3.2.6-4.6,1.4-.8.5-1.4,1.3-1.5,2.3-.2.9.2,1.8,1,2.3,1.3.7,2.7,1,4.2.9,1.5,0,3-.3,4.4-.7,1.3-.4,2.5-1,3.6-1.9.7-.6,1.2-1.4,1.5-2.3.5-1.3.8-2.6.9-4ZM103.9,83.5c0,1.7-.4,3.2-.8,5.8l-3.1,17.4c-.3,1.4.4,2.9,1.7,3.6v.7h-17.9v-4.4c-2.7,1.5-5.6,2.7-8.6,3.6-2.8.7-5.6,1.1-8.5,1.1-5.8,0-9.1-.6-11.3-2.6s-3.5-3.4-3.4-6.3c.2-1.9,1-3.7,2.2-5.1,1.3-1.5,2.9-2.6,4.7-3.4,2.3-1,4.7-1.6,7.2-2,3.1-.5,7.5-1,13.4-1.5,2,0,4-.5,5.8-1.3,1.3-.5,1.7-1,1.9-2s-.2-2.8-2.6-3.3c-6.4-1.2-18.4.8-24.6,2.4l3.3-9.1c7.9-1.3,15.9-1.9,23.9-2,12.7,0,16.8,3.7,16.7,8.4Z"/>
    <path class="st0" d="M344.6,88.2l3.9-.4c1.3,0,2.4.3,2.5,1.5s-1.3,6-1.6,7.3l-2.7,11.7c-1,4.8-2.2,9.8-3.2,13.8h6.8l3.8-18.6c11.8-12.2,16.3-16.2,19-16.2,1.1-.1,2.1.7,2.2,1.8,0,.1,0,.3,0,.4.1,2.1-1.3,7-1.7,8.4l-4,13.5c-.8,3.1-1.5,5.8-1.4,7.8s1.9,4.3,4.5,4.3c5,0,8.7-5.2,11.8-10.3l-.9-1.7c-1.3,2-4.2,6.5-6.6,6.5s-1.4-.5-1.4-1.7c0-1.9.4-3.7,1-5.5l4.4-15.9c1.1-4.4,1.7-7.2,1.7-8.7s-1.9-4.3-4.5-4.3c-4.5,0-10.5,3.3-23.1,17.8h-.2l1.6-7.1c.9-3.9,1.7-7.9,2.5-10.7-4.7,1.7-9.6,3.1-14.5,4.1v2.2ZM411.5,88.6c-.1-2.8-1.5-4.7-4.4-4.7-7,0-14.4,13.7-15.7,19.2,11.4,0,20.4-6.8,20.1-14.5ZM413,110.1l1.3.9c-3.4,6.9-10.3,12.5-18.5,12.5s-12.1-4.4-12.4-12.7c-.6-15,13.5-28.9,24.9-28.9s9.5,2.2,9.7,7.5c.4,11.9-16.3,15.5-27.3,15.7-.4,1.4-.5,2.9-.4,4.4.2,5,3.2,9.1,9.3,9.1s10.7-4.3,13.4-8.5ZM295.1,100.4c.3,10.9,7.2,19.8,16.2,19.8,17.4,0,24.8-21.4,24.3-35.7-.4-10.9-7.4-19.8-16.4-19.8-15,0-24.7,21.3-24.1,35.7ZM285.9,99.8c-.7-18.6,13.9-37.6,35-37.6s23.4,9.5,23.9,23.9c.7,19.6-12.9,37.6-35,37.6s-23.4-9.4-23.9-23.9Z"/>
  </g>
</svg>