<?xml version="1.0" encoding="UTF-8"?>
<svg id="svg9498" xmlns="http://www.w3.org/2000/svg" xmlns:svg="http://www.w3.org/2000/svg" version="1.1" viewBox="0 0 1024 251">
  <!-- Generator: Adobe Illustrator 30.1.0, SVG Export Plug-In . SVG Version: 2.1.1 Build 136)  -->
  <defs>
    <style>
      .st0 {
        fill: #f8f3fd;
      }
    </style>
  </defs>
  <path id="path9291" class="st0" d="M185.4,90.2h-118.4v-24.9h118.4v24.9ZM184.4,185.8h-26.4v-76.9h26.4v76.9ZM139.3,185.8h-26.4v-76.9h26.4v76.9ZM94.4,185.8h-26.4v-76.9h26.4v76.9ZM126.1,7.1C60.7,7.1,7.7,60.1,7.7,125.5s53,118.4,118.4,118.4,118.4-53,118.4-118.4S191.5,7.1,126.1,7.1"/>
  <path id="path9307" class="st0" d="M975,114.6c12.5,0,14.9,10.4,15.5,20.5h-29.6c.3-9.1,2.9-20.5,14.1-20.5ZM976.6,173c-13.3,0-15.7-11.5-15.7-22.6h55.5c0-26.9-9.6-50.9-40.8-50.9s-40.5,21.9-40.5,46.7,15.5,42.1,41.3,42.1,35.7-7.5,37.1-27.2h-22.4c-1.6,8-6.1,12-14.4,12M874.2,117.3h-18.7v-33.1h18.9c10.7,0,19.5,4.5,19.5,16.3s-8.8,16.8-19.7,16.8h0ZM895,126.1c14.9-4.3,26.1-13.3,26.1-29.9s-21.6-30.9-41.6-30.9h-49.8v120.5h25.9v-48.8h20.3c23.2,0,17.6,32.3,21.3,48.8h28.3c-12.8-22.7,2.7-53.3-30.4-59.7M777.2,123.9h-22.4c-.5-6.1-6.1-9.3-12-9.3s-13.1,1.6-12.8,8.5c.3,5.3,6.1,6.9,10.4,8l9.6,2.4c14.7,3.2,31.5,9.3,31.5,26.9s-21.9,27.7-39.5,27.7-34.4-7.7-35.7-26.4h23.2c.8,7.5,6.7,11.2,13.9,11.2s14.7-2.7,14.7-10.4c0-16-50.1-4.5-50.1-37.1s19.7-26.1,36.3-26.1,30.4,6.1,32.8,22.7l.3,1.9M694.8,123.9h-22.4c-.5-6.1-6.1-9.3-12-9.3s-13.1,1.6-12.8,8.5c.3,5.3,6.1,6.9,10.4,8l9.6,2.4c14.7,3.2,31.5,9.3,31.5,26.9s-21.9,27.7-39.5,27.7-34.4-7.7-35.7-26.4h23.2c.8,7.5,6.7,11.2,13.9,11.2s14.7-2.7,14.7-10.4c0-16-50.1-4.5-50.1-37.1s19.7-26.1,36.3-26.1,30.4,6.1,32.8,22.7l.3,1.9M584.1,86.1h26.7v-20.8h-26.7v20.8ZM584.9,185.8h25.1v-84h-25.1v84ZM514.3,185.8l-12-40c-2.7-8.8-4.3-17.6-6.1-26.4-1.3,6.4-2.4,12.8-4.3,18.9l-1.9,6.7-11.2,40.8h-29.6l-27.5-84h28.3l11.7,44,1.6,6.1,1.3,5.9c.5,3.5,1.1,6.9,1.6,10.4,1.3-10.1,3.7-19.7,6.4-29.3l10.4-37.1h28.8l10.9,38.7c2.7,9.1,4.5,18.1,5.9,27.5l.8-4.8c1.1-8,3.2-15.7,5.6-23.7l10.4-37.6h26.9l-28.8,84h-29.3M412.2,99.1h-24.8c-.3-11.7-8.8-18.4-20.3-18.4s-21.3,3.7-21.3,15.5c0,26.7,69.8,9.1,69.8,52.8s-23.2,39.2-47.7,39.2-51.2-9.9-50.9-40.5h26.4c0,13.3,7.2,22.4,21.3,22.4s24.3-3.7,24.3-16.3c0-28-68.8-9.1-68.8-54.1s24.8-37.1,47.7-37.1,42.7,11.7,44.3,36.5"/>
</svg>