<?xml version="1.0" encoding="UTF-8"?>
<svg id="svg72" xmlns="http://www.w3.org/2000/svg" xmlns:svg="http://www.w3.org/2000/svg" version="1.1" viewBox="0 0 1024 119">
  <!-- Generator: Adobe Illustrator 30.1.0, SVG Export Plug-In . SVG Version: 2.1.1 Build 136)  -->
  <defs>
    <style>
      .st0 {
        fill: #f8f3fd;
      }
    </style>
  </defs>
  <path id="path28" class="st0" d="M118.7,83.4c0,5.1-1.3,8.9-3.9,11.4-2.6,2.5-6.2,3.8-10.7,3.8H27c0,.1-6.7.1-6.7.1v-30.8h6.7c0,0,79.1,0,79.1,0,8.4.8,12.6,6,12.6,15.4M128.1,11.6c-2.5-2.5-5.8-4.4-9.8-5.9-4-1.4-8.7-2.2-14.2-2.2H3.4v16.8h100.8c4.5,0,8,1.3,10.7,3.8,2.6,2.5,3.9,6.4,3.9,11.4s-1.3,8.9-3.9,11.6c-2.6,2.7-6.2,4-10.7,4H20.4c0,0-17,0-17,0v64.3h100.8c5.6,0,10.4-.7,14.4-2.2,3.9-1.5,7.3-3.4,9.8-5.9,2.5-2.4,4.4-5.4,5.6-8.6,1.2-3.3,1.8-6.9,1.8-10.8v-9.6c0-11.3-13.3-18.4-18.4-18.4s-.4-.2-.4-.4.2-.4.4-.4c5.1,0,18.4-7.1,18.4-18.4v-9.6c0-3.7-.6-7.3-1.9-10.7-1.2-3.3-3.2-6.3-5.7-8.7M581,115.4h132.4v-16.8h-132.4v16.8ZM581,67.9h132.4v-16.8h-132.4v16.8ZM750.1,17.3c-10.2,9.1-15.3,23.5-15.3,42.7s1.2,18.6,3.7,25.6c2.5,6.9,6.3,12.7,11.4,17,5.1,4.4,11.7,7.6,19.6,9.6,8,2,17.7,3.1,28.8,3.1h68.7v-16.8h-67.9c-16.3,0-28.3-3.2-35.8-9.5-7.5-6.3-11.3-16.2-11.3-29.3s3.8-22.9,11.4-29.5c7.5-6.6,19.6-10,35.9-10h67.7V3.6h-68.5c-21.9,0-38.2,4.6-48.4,13.7M619.5,20.4h94V3.6h-94v16.8ZM1003.6,3.6v47.6h-115.1c0,0,0,64.2,0,64.2h17v-47.4h98.1v47.4h17.1V3.6h-17.1ZM300.6,89.2c-7.5,6.2-19.5,9.4-35.8,9.4h-5.1c-16.3,0-28.3-3.2-35.8-9.5-7.5-6.3-11.3-16.2-11.3-29.3s3.9-22.9,11.4-29.5c7.5-6.6,19.6-10,35.9-10h5.5c15.9.1,27.7,3.6,35.2,10.2,7.5,6.7,11.3,16.6,11.3,29.4s-3.8,22.9-11.3,29.2M265.3,3.6h-6.3c-21.9,0-38.2,4.6-48.4,13.7-10.2,9.1-15.3,23.5-15.3,42.7s1.3,18.6,3.7,25.6c2.5,6.9,6.3,12.7,11.4,17,5.1,4.4,11.7,7.6,19.6,9.6,8,2,17.7,3.1,28.8,3.1h6.7c11,0,20.7-1,28.7-3.1,7.9-2,14.6-5.3,19.7-9.6,5.1-4.4,8.9-10.1,11.4-17,2.5-7,3.7-15.6,3.7-25.6,0-19.3-5.2-33.7-15.4-42.7-10.3-9.1-26.5-13.7-48.3-13.7M157.1,115.4h17V3.6h-17v111.8Z"/>
  <path id="path30" class="st0" d="M465.8,20.4h57.6v95h17V20.4h57.6V3.6h-132.2v16.8ZM465.9,91.3L368.3,3.6h-17.8v111.8h17V26.6l99,88.9h16.4V41.8h-17v49.5Z"/>
</svg>