<?xml version="1.0" encoding="UTF-8"?>
<svg id="Layer_1" xmlns="http://www.w3.org/2000/svg" version="1.1" viewBox="0 0 441.5 154">
  <!-- Generator: Adobe Illustrator 30.1.0, SVG Export Plug-In . SVG Version: 2.1.1 Build 136)  -->
  <defs>
    <style>
      .st0 {
        fill: #f8f3fd;
      }
    </style>
  </defs>
  <g>
    <path class="st0" d="M384.7,66.7c-1.3-1.1-3.2-.9-4.3.4l-13.5,17.5c-.4.6-1.3,1.1-2.1,1.1s-1.7-.4-2.1-1.1l-13.5-17.5-.4-.4c-1.3-1.1-3.2-.9-4.3.4l-15.8,20.3h72.3l-15.8-20.3-.4-.4Z"/>
    <path class="st0" d="M364.6,0c-42.6,0-77,34.4-77,77s34.4,77,77,77,77-34.4,77-77S407.1,0,364.6,0ZM400.9,87.5v23.1h-72.7v-23.1h.4v-31.4l15.8-20.1c.6-.6,1.5-1.1,2.4-1.1s1.7.4,2.4,1.1l13.3,17.5h0c.4.9,1.3,1.3,2.6,1.1.9,0,1.7-.4,2.4-1.1l13.3-17.5c.6-.6,1.5-1.1,2.4-1.1s1.7.4,2.1,1.1l15.8,20.1v31.4Z"/>
  </g>
  <path class="st0" d="M43.8,74.4v-.4c10.7-.9,19.5-5.3,19.5-16s-9.8-14.3-21-14.3-29.1.4-42.3,0v4.1c2.8-.2,9.6.2,9.6,3.6v51.3c0,3.4-7.1,3.8-9.6,3.8v4.1c12.8-.4,28.2,0,41.1,0,13.5-.2,25.7-4.7,25.7-18.6s-10.3-17.3-22.9-17.5ZM25.4,47.9c1.1,0,4.5-.2,5.6-.2h2.8c9.8,0,13.3,4.3,13.3,12.4s-3.6,12.4-13.3,12.4h-8.3v-24.6ZM33.1,106.1h-7.9v-29.3h8.3c11.8,0,16,3.8,16,13.9s-3.6,15.4-16.5,15.4Z"/>
  <path class="st0" d="M152.7,110.3h-18v-4.1c2.8,0,10.3-.2,10.3-3.8v-47.3h-.2l-26.9,56.2h-3.2l-26.3-56.4h-.2v47.7c0,3.6,7.5,3.8,10.3,3.8v4.1c-7.5-.2-17.5-.4-25,0v-4.1c2.8,0,9.2-.2,9.2-3.8v-51.1c0-3.4-6.6-3.8-9.2-3.8v-4.1c8.6.4,17.5.4,26.1,0l22.7,47.5,23.1-47.3c8.1.4,17.3.2,25.7,0v4.1c-2.8,0-9.8.2-9.8,3.8v50.9c0,3.6,7.1,3.8,9.8,3.8v4.1c-6-.2-12.2-.2-18.2-.2Z"/>
  <path class="st0" d="M213.6,42.3c-24.4,0-38.3,12.4-38.3,34.6s13.5,34.6,38.1,34.6,38.1-12.4,38.1-34.6-13.5-34.6-37.8-34.6ZM213.6,107.6c-18.8,0-20.3-17.7-20.3-30.6s1.3-30.4,20.3-30.4,20.1,17.7,20.1,30.4-1.3,30.6-20.1,30.6Z"/>
</svg>