<?xml version="1.0" encoding="UTF-8"?>
<svg id="svg1291" xmlns="http://www.w3.org/2000/svg" xmlns:svg="http://www.w3.org/2000/svg" xmlns:sodipodi="http://sodipodi.sourceforge.net/DTD/sodipodi-0.dtd" xmlns:rdf="http://www.w3.org/1999/02/22-rdf-syntax-ns#" xmlns:inkscape="http://www.inkscape.org/namespaces/inkscape" xmlns:dc="http://purl.org/dc/elements/1.1/" xmlns:cc="http://creativecommons.org/ns#" version="1.1" viewBox="0 0 1000 250">
  <!-- Generator: Adobe Illustrator 30.1.0, SVG Export Plug-In . SVG Version: 2.1.1 Build 136)  -->
  <defs>
    <style>
      .st0 {
        fill: #f8f3fd;
      }
    </style>
  </defs>
  <path class="st0" d="M981.9,0h-213c-10.2,0-18.8,8.1-18.8,18v214c0,9.9,5.7,18,15.9,18h213c10.2,0,21.1-8.1,21.1-18V18c0-9.9-7.9-18-18.1-18ZM821.4,214.3h-35.7v-119h35.7v119ZM803.6,75.9c-12.3,0-22.3-10-22.3-22.3,0-12.3,10-22.3,22.3-22.3s22.3,10,22.3,22.3c0,12.3-10,22.3-22.3,22.3ZM964.3,214.3h-35.7v-59.6c0-15.8-6.3-29.7-21.1-29.7s-26.5,12.2-26.5,32.1v57.2h-35.7v-119h33.7v17.2h.4c5.1-9.2,20.3-18.6,39-18.6,36,0,46,19.1,46,54.5v66.1Z"/>
  <path class="st0" d="M678.6,109.4h-.4c-7.3-8.8-19.3-15.7-38.6-15.7-31.2,0-56.5,24.5-56.5,61.1s25.6,60.9,55.4,60.9,34.7-7.1,42.1-15.7h.4v14.2h33.3V35.7h-35.7v73.7ZM648.6,189c-20.4,0-31.9-15.2-31.9-34.5s11.5-33.9,31.9-33.9,32.4,13.6,32.4,33.9-12,34.5-32.4,34.5Z"/>
  <path class="st0" d="M514.6,93.8c-40.7,0-62.2,23.8-62.2,58.4s23.8,63.7,61.2,63.7,45.4-9.8,53.8-20.7h0l-22.3-18c-4.8,6.5-15.5,14.9-31,14.9s-25.5-12.5-27.9-22.8l-.2-3.7h84.7s.7-4,.7-8.1c0-40.6-21.7-63.7-56.8-63.7ZM486.1,142.9c1-11.8,10.2-25.3,27.5-25.3s23.7,12.7,23.5,25.3h0s-51,0-51,0Z"/>
  <path class="st0" d="M149.8,32.2c-.3,0-.7,0-1,0-11.8.3-21.2,10.1-20.9,21.9.3,11.4,9.5,20.6,20.9,20.9,11.8.3,21.6-9.1,21.9-20.9s-9.1-21.6-20.9-21.9Z"/>
  <polygon class="st0" points="35.7 35.7 0 35.7 0 214.3 107.1 214.3 107.1 178.6 35.7 178.6 35.7 35.7"/>
  <rect class="st0" x="131" y="95.2" width="35.7" height="119"/>
  <polygon class="st0" points="452.4 95.2 410.7 95.2 369 142.9 369 35.7 333.3 35.7 333.3 214.3 369 214.3 369 154.8 413.1 214.3 455.2 214.3 404.8 149.2 452.4 95.2"/>
  <path class="st0" d="M263.5,93.8c-18.7,0-33.9,9.4-39,18.6h-.4v-17.2h-33.7v119h35.7v-57.2c0-17.9,8.6-32.1,26.5-32.1s21.1,12.2,21.1,29.7v59.6h35.7v-66.1c0-31.6-10-54.5-46-54.5Z"/>
</svg>