<?xml version="1.0" encoding="utf-8"?>
<!-- Generator: Adobe Illustrator 30.1.0, SVG Export Plug-In . SVG Version: 9.03 Build 0)  -->
<svg version="1.0"
	 id="Layer_1" xmlns:sodipodi="http://sodipodi.sourceforge.net/DTD/sodipodi-0.dtd" xmlns:rdf="http://www.w3.org/1999/02/22-rdf-syntax-ns#" xmlns:inkscape="http://www.inkscape.org/namespaces/inkscape" xmlns:cc="http://creativecommons.org/ns#" xmlns:dc="http://purl.org/dc/elements/1.1/" xmlns:svg="http://www.w3.org/2000/svg" inkscape:output_extension="org.inkscape.output.svg.inkscape" inkscape:version="0.46" sodipodi:docname="notice_of_meeting_2006.svg" sodipodi:version="0.32"
	 xmlns="http://www.w3.org/2000/svg" xmlns:xlink="http://www.w3.org/1999/xlink" x="0px" y="0px" viewBox="0 0 876.5 147.8"
	 style="enable-background:new 0 0 876.5 147.8;" xml:space="preserve">
<style type="text/css">
	.st0{fill:#F8F3FD;}
</style>
<g>
	<path class="st0" d="M330.4,78.5l-4.8-17.9c-5.7-20.4-12.1-44.8-12.1-44.8h-24.6c0.9,2.1,1.5,4.1,1.5,6.3c0,2.5-7.6,19.8-14.8,35
		L267.6,74c-13.6,29.1-23.4,47.2-31.2,54.9h27.1c-0.6-2.2-0.7-3.7-0.7-5.1c-0.1-6.3,5.6-17.1,7.9-22.4l2.3-5h13.5
		c13.3,0,21.7-1,26.4-3.2l2.8,9.8c7.8,26.7,8.5,26.9,18.2,26.9c3.1,0,11-0.3,17.3-1C344,123.2,338.7,108.5,330.4,78.5z M279.9,81.7
		l18.3-39.4l11.4,39.4H279.9z"/>
	<path class="st0" d="M210.3,65.3c12.4-3.2,26.1-12.3,26.1-27c0-22-21.1-22.6-31.6-22.6h-44.2c2.2,1.8,3.1,6.9,3.2,14.8
		c0.1,9.2-0.7,22.4-1.9,39.5l-0.4,7c-2.2,30.2-3.5,47.3-8.5,51.7h39.5c30.2,0,48.6-15.5,48.6-35.1C241.1,75.6,227.9,67.1,210.3,65.3
		z M183.9,53.6c0.6-8.3,1.3-16,2.5-23.9c2.8-0.3,5.7-0.3,7.9-0.3c13.3,0,19.6,5.3,19.6,12.9c0,13.2-13.2,18.1-27.5,18.1h-2.9
		C183.5,60.8,183.9,53.6,183.9,53.6z M191.3,115c-7.6,0-10.8-2.2-10.8-3.2c0.1-7.3,0.4-13.5,1-20.8l1.2-16.7h8.1
		c14.9,0,26.8,5.3,26.8,19.8C217.5,107.1,207.1,115,191.3,115z"/>
	<path class="st0" d="M696.9,78.5l-4.8-17.9c-2.2-7.9-12.2-44.8-12.2-44.8l-24.6,0c0.9,2.1,1.5,4.1,1.5,6.3c0,3.1-7.3,19.2-14.8,35
		L634.1,74c-5.8,12.6-11.9,24.7-17.1,34.4c-8.5,5.7-13.2,6.1-31.9,6.1c-5.3,0-7.3-1.2-7.3-6.3c0-11.1,1.5-22.6,2.2-33.7l0.6-7.2
		c2-30,3.7-48.2,8.1-51.6h-30.9c2,2.2,2.8,7,2.9,14.6c0.2,9.2-0.7,22.4-1.9,39.5l-0.4,7.2c-2.2,30-3.7,46.6-8.2,51.7l80,0
		c-0.6-2.1-0.7-3.7-0.7-5.1c0-6.2,4.5-14.9,7.9-22.4l2.3-5H653c13.3,0,21.7-1,26.4-3.2l2.8,9.8c7.8,26.7,8.5,26.9,18.2,26.9
		c3.1,0,11.4-0.3,17.3-1C710.6,123.2,705.3,108.5,696.9,78.5z M646.6,81.7l18.2-39.4l11.4,39.4H646.6z"/>
	<path class="st0" d="M771.2,68c5.6-9.4,31.9-50.8,37.8-52.1h-30.3c1.2,1.3,1.6,4.2,1.6,6.9c0,3.4-1.5,6.9-3.2,9.7
		c-7,11.4-12.4,19.8-20.2,31.9c-3.2-9.2-8.6-21.7-16-38.2c-4.7-10.3-6.7-11.3-14.4-11.3c-4.3,0-13,0.4-19.9,1
		c4,1.9,10.3,11.7,15.7,22.1c8.5,16.6,14.1,30.2,18.2,44.4c0.3,10-1.9,41.4-7.3,46.6l30.6,0c-2.3-2.3-3.2-9.2-3.2-14.4
		c0-12.3,0.9-23.4,2.6-31.8C765.2,78.4,768.5,72.4,771.2,68z"/>
	<path class="st0" d="M440.8,110.3l-23-30.5c-1.6-2.1-4.2-5.4-5.7-6.7c15.1-4.7,27.2-14.6,27.2-32.8c0-22.1-18.7-24.5-32.4-24.5
		c0,0-24.3,0-41.7,0c2.2,1.8,3.1,6.7,3.2,14.8c0.2,9.2-0.7,22.4-1.9,39.4l-0.4,7.2c-2.5,34.6-4.1,47.7-8.5,51.7h30.6
		c-2.1-1.9-2.9-6.6-3.1-14.2c0-6.9,0.4-16.1,1.2-27.7l0.6-8.5h0.7c4,0,5.9,2.8,8.3,6.1l31.6,43.9c2.8,3.8,4.8,5.1,13.2,5.1
		c5.6,0,14.2-0.3,20.7-1C456.3,130.1,455.2,129.2,440.8,110.3z M393.1,64.9c-1.8,0-3.7-0.2-5.1-0.4l0.6-7.9
		c1-13.5,1.8-21.8,2.6-26.6c2.6-0.3,6-0.3,8.8-0.3c10.7,0,16.8,5.1,16.8,13.9C416.8,56.4,407.1,64.9,393.1,64.9z"/>
	<path class="st0" d="M851.4,63.6c-11.1-7.2-21.8-13-21.8-21.7c0-10.3,8.5-14.2,18.2-14.2c11,0,21.1,6.4,25.8,14.9l2.9-26.8
		c-7.8,0-15.4-2.2-27.5-2.2c-20.9,0-41.1,8.1-41.1,32.2c0,16.1,11.7,25,30.2,36.2c8.8,5.3,16,10.5,16,19c0,10-8.8,15.7-20.6,15.7
		c-15.4,0-25.8-8.9-31.3-20.2l-1.9,28.3c11.6,4.4,21.8,6.3,31.6,6.3c23.9,0,44.5-13,44.5-34.3C876.2,80.6,863.6,71.2,851.4,63.6z"/>
	<path class="st0" d="M478.1,76.2c0-22.4,9.8-48.5,34-48.5c12.1,0,21.2,6.9,26.8,17l2.9-28.9c-9.8,0-15.5-2.2-27.7-2.2
		c-38.8,0-59.2,29-59.2,66.5c0,26.9,16.8,51,46,51c22.4,0,36-11.3,41.9-30c-14.5,10.1-23.1,12.7-33,12.7
		C491.8,113.8,478.1,100.5,478.1,76.2z"/>
	<path class="st0" d="M112.2,17.3c-1.8,0-3.5,0.2-5,0.7c-4.9,1.5-8.2,5-8.2,8.8c0,5.6,4.5,6.8,4.5,6.8s-1.5,3.1-6.8,3.8
		c-1,0.1-2,0.2-2.9,0.2c-4,0-7.4-1.3-10.5-5.7c-3-4.2-2.9-12.9-3.1-15.8c-0.1-2.9-0.8-9.5-3.9-12.2C73.3,1.1,69.5,0.2,64.8,0
		c-0.3,0-0.6,0-0.9,0c-3.9,0-4.7,0.7-6,2.1c-0.5,0-1,0-1.6,0c-3,0-6.9,0.4-10.2,2.7c-3.2,2.1-4.7,5.8-3,8.6c0,0,1.1-1.7,4.9-1.7
		c0.5,0,1.1,0.1,1.7,0.1c5.2,0.6,9,3.3,8.5,10.5c-0.4,7.2-3.1,15.2-14.2,15.3c0,0-1.4,0-2.9-0.1c-5.1-0.6-6.8-3.8-6.8-3.8
		s4.4-1.2,4.5-6.8c0-3.8-3.4-7.3-8.2-8.8c-1.6-0.5-3.3-0.7-5.1-0.7c-5.7,0-12.1,2.4-16.4,8C-0.5,38.2-1.2,57,1.1,74.4
		c2.4,17.5,13.5,33.7,13.8,34.1c0.2,0.3,0.4,0.5,0.7,0.5c0.1,0,0.2-0.1,0.4-0.2c4.8-4.6,9.4-11,11.3-15.2c2.1,1.7,1,5.2-0.2,9
		c-1.1,3.9-3.7,9-4.7,10.7c-0.9,1.6-2.2,3.5-0.5,4.5c0.2,0.1,0.4,0.2,0.6,0.2c2.1,0,7.2-3.7,12.8-11.3c6.3-8.5,9.5-16,9.5-16
		c0.5,0.1,1.2,0.9,1.1,3c-0.1,2.2-2.3,10.2-6.6,17.7c-4.4,7.5-8.4,12.2-9.2,13.2c-0.5,0.6-0.1,1,0.2,1.3c0.3,0.2,8.1,7.4,19.3,13.5
		c13.3,7.1,19.2,8.4,19.2,8.4s5.9-1.2,19.2-8.3c11.2-6.1,19-13.4,19.3-13.6c0.3-0.2,0.7-0.6,0.2-1.2c-0.8-1-4.8-5.7-9.2-13.2
		c-4.3-7.4-6.6-15.5-6.7-17.7c-0.1-2.2,0.6-2.9,1.1-3c0,0,3.2,7.6,9.5,16c5.7,7.5,10.7,11.3,12.8,11.3c0.3,0,0.5-0.1,0.7-0.2
		c1.6-1,0.4-2.9-0.5-4.5c-0.9-1.6-3.6-6.8-4.7-10.7c-1.1-3.8-2.2-7.4-0.1-9c2,4.2,6.5,10.6,11.3,15.2c0.1,0.1,0.3,0.2,0.4,0.2
		c0.2,0,0.4-0.2,0.6-0.5c0.4-0.5,11.5-16.6,13.8-34.1c2.4-17.5,1.6-36.2-8.2-49.1C124.4,19.7,117.9,17.3,112.2,17.3z"/>
</g>
</svg>
