<?xml version="1.0" encoding="UTF-8"?>
<svg id="Layer_1" xmlns="http://www.w3.org/2000/svg" version="1.1" viewBox="0 0 855.8 277.7">
  <!-- Generator: Adobe Illustrator 30.1.0, SVG Export Plug-In . SVG Version: 2.1.1 Build 136)  -->
  <defs>
    <style>
      .st0 {
        fill: #f8f3fd;
      }
    </style>
  </defs>
  <g id="Ebene_2">
    <g id="interzero_4C">
      <g id="interzero_4C-2">
        <g id="zero_waste_solutions">
          <g id="zero">
            <polygon id="z" class="st0" points="36.8 228.8 3.6 228.8 3.6 234.7 27 234.7 1.6 270.9 1.6 276.6 36.8 276.6 36.8 270.9 10.5 270.9 36.8 232.9 36.8 228.8"/>
            <path id="e" class="st0" d="M48.9,247.8c-.2-7.7,5.8-14.2,13.5-14.6,7.2,0,12.9,5.9,12.9,13,0,.5,0,1.1-.1,1.6h-26.3ZM75.5,262.1c-1.7,5.6-7,9.3-12.8,9.2-5.1,0-9.8-2.7-12.2-7.2-1.5-3.4-2.2-7.1-2-10.8h34.7c.4-13.3-6-25.7-20.9-25.7-12.6.3-22.6,10.9-22.2,23.5,0,.6,0,1.1.1,1.7,0,13.4,7.4,24.8,21.9,24.8,9.1.3,17.3-5.4,20.3-14l-7-1.4Z"/>
            <path id="r" class="st0" d="M92.8,228.8v47.8h7.3v-24.1c-.2-3.6.6-7.1,2.4-10.3,2.3-4.7,7.1-7.6,12.3-7.5h1.5v-7.1l-2.7-.2c-7.7,0-11.8,6-14,12.5h-.2v-11.2h-6.6Z"/>
            <path id="o" class="st0" d="M140.5,271.5c-4.3,0-8.3-2.3-10.4-6-1.9-4.1-2.9-8.6-2.7-13.1-.1-4.1.7-8.2,2.4-12,2-4.1,6.2-6.8,10.8-6.8,4.2,0,8.1,2.1,10.4,5.6,2.2,4,3.3,8.5,3,13.1.2,4.2-.6,8.4-2.4,12.2-2,4.2-6.3,6.9-11,6.9ZM139.8,277.6c12.5-.2,22.5-10.5,22.3-23.1,0-.7,0-1.4-.1-2,0-12.6-7-24.8-21-24.8s-21.9,11.5-21.9,24.8c0,12.6,6.4,25.2,20.7,25.2h0Z"/>
          </g>
          <g id="waste">
            <polygon id="w" class="st0" points="249.8 228.8 243.7 228.8 233 264.6 222.3 228.8 216.9 228.8 206.9 264.5 196.6 228.8 189.2 228.8 203.5 276.6 209.6 276.6 219.4 241.2 230 276.6 236 276.6 249.8 228.8"/>
            <path id="a" class="st0" d="M281.4,247c-6.2-.4-12.5.6-18.4,2.8-5.3,2.3-8.8,7.5-8.8,13.3.2,8.2,7,14.8,15.2,14.6.5,0,1,0,1.4-.1,7.1.5,13.8-3.4,16.8-9.9l.8,8.9h7.3c-.8-3.3-1.2-6.7-1-10.1v-18.5c.7-5.6-.7-11.2-4-15.7-4-3.6-9.3-5.3-14.7-4.7-8.8,0-19.3,3.1-20.6,13.1l6.9,1.1c1.3-6.6,7.1-8.5,13.1-8.5s12.1,3.2,12.1,11.6v2.1h-6.2ZM287.6,255.6c.4,8.6-6.3,15.8-14.9,16.2,0,0-.2,0-.2,0-5.3,0-10.4-2.4-10.4-8.4,0-9.9,11.9-10.9,19.4-10.9h6.1v3.1Z"/>
            <path id="s" class="st0" d="M302.7,263.9c2.8,9,11.6,14.7,21,13.6,9.3,0,19.9-4,19.9-14.8,0-4.3-2.1-8.4-5.7-10.8-3.1-1.8-6.5-2.9-10-3.3l-7-1.2c-4.2-.7-8.6-1.8-8.6-7s5.8-7,10.2-7c5.3-.5,10.3,2.6,12.2,7.5l6.8-1.4c-2.6-8-10.5-13.1-18.9-12-8.8,0-17.9,4.1-17.9,14s6.7,11.9,14,13.3l7.8,1.4c4.1.8,9.3,2.2,9.3,7.2s-6.5,7.9-11.6,7.9-13.4-2.4-14.4-8.9l-7.2,1.4Z"/>
            <path id="t" class="st0" d="M376.3,271.2l-5.6.5c-6,0-7.6-2.9-7.6-8.5v-28.9h10.6v-5.8h-10.6v-12.6l-7.3.7v11.9h-8.5v5.8h8.5v27.7c0,9.5,3.1,15.6,13.6,15.6l7.1-.6v-5.8Z"/>
            <path id="e-2" class="st0" d="M387.5,247.8c-.2-7.7,5.8-14.2,13.5-14.6,7.2,0,12.9,5.9,12.9,13,0,.5,0,1.1-.1,1.6h-26.3ZM414.1,262.1c-1.7,5.6-7,9.3-12.8,9.2-5.1,0-9.8-2.7-12.2-7.2-1.5-3.4-2.2-7.1-2-10.8h34.7c.4-13.3-6-25.7-20.9-25.7-12.6.3-22.6,10.9-22.2,23.5,0,.6,0,1.1.1,1.7,0,13.4,7.4,24.8,21.9,24.8,9.1.3,17.3-5.4,20.3-14l-7-1.4Z"/>
          </g>
          <g id="solutions">
            <path id="s-2" class="st0" d="M452.5,263.9c2.8,9,11.6,14.7,21,13.6,9.3,0,19.9-4,19.9-14.8,0-4.3-2.1-8.4-5.7-10.8-3.1-1.8-6.5-2.9-10-3.3l-7-1.2c-4.2-.7-8.6-1.8-8.6-7s5.8-7,10.2-7c5.3-.5,10.3,2.6,12.2,7.5l6.8-1.4c-2.6-8-10.5-13.1-18.9-12-8.7,0-17.9,4.1-17.9,14s6.7,11.9,14,13.3l7.8,1.4c4.1.8,9.3,2.2,9.3,7.2s-6.5,7.9-11.6,7.9-13.4-2.4-14.4-8.9l-7.2,1.4Z"/>
            <path id="o-2" class="st0" d="M521.7,271.5c-4.3,0-8.3-2.3-10.4-6-1.9-4.1-2.9-8.6-2.7-13.1-.1-4.1.7-8.2,2.4-12,2-4.1,6.2-6.8,10.8-6.8,4.2,0,8.1,2.1,10.4,5.6,2.2,4,3.3,8.5,3,13.1.2,4.2-.6,8.4-2.4,12.2-2,4.2-6.3,6.9-11,6.9ZM521,277.6c12.5-.2,22.5-10.5,22.3-23.1,0-.7,0-1.4-.1-2,0-12.6-7-24.8-21-24.8s-21.9,11.5-21.9,24.8c0,12.6,6.4,25.2,20.7,25.2h0Z"/>
            <polygon id="l" class="st0" points="560.8 212.1 557.2 212.1 553.5 212.1 553.5 276.6 560.8 276.6 560.8 212.1"/>
            <path id="u" class="st0" d="M610.8,276.6v-47.8h-7.3v25.4c.3,4.3-1,8.6-3.7,12-2.4,3.1-6,4.9-9.9,4.9-3.2,0-6.1-1.8-7.7-4.5-1.2-2.7-1.8-5.7-1.6-8.8v-29.1h-7.3v29.1c-.4,5.1.9,10.1,3.8,14.3,3.1,3.5,7.6,5.5,12.2,5.4,6.6-.2,12.4-4.3,14.7-10.5h.2v9.5h6.7Z"/>
            <path id="t-2" class="st0" d="M646.7,271.2l-5.6.5c-6,0-7.6-2.9-7.6-8.5v-28.9h10.6v-5.8h-10.6v-12.6l-7.3.7v11.9h-8.5v5.8h8.5v27.7c0,9.5,3.1,15.6,13.6,15.6l7.1-.6v-5.8Z"/>
            <path id="i" class="st0" d="M661.4,228.8h-7.3v47.8h7.3v-47.8ZM657.7,220.8c-2.8,0-5.1-2.3-5.1-5.1,0-2.8,2.3-5.1,5.1-5.1,2.8,0,5.1,2.3,5.1,5.1,0,2.8-2.3,5.1-5.1,5.1Z"/>
            <path id="o-3" class="st0" d="M692.7,271.5c-4.3,0-8.3-2.3-10.4-6-1.9-4.1-2.9-8.6-2.7-13.1-.1-4.1.7-8.2,2.4-12,2-4.1,6.2-6.8,10.8-6.8,4.2,0,8.1,2.1,10.4,5.6,2.2,4,3.3,8.5,3,13.1.2,4.2-.6,8.4-2.4,12.2-2,4.2-6.3,6.9-11,6.9ZM692.1,277.6c12.5-.2,22.5-10.6,22.3-23.1,0-.7,0-1.4-.1-2,0-12.6-7-24.8-21-24.8s-21.9,11.5-21.9,24.8c0,12.6,6.4,25.2,20.7,25.2h0Z"/>
            <path id="n" class="st0" d="M730.9,228.8h-7v47.8h7.3v-25c-.4-4.6,1-9.2,3.8-12.9,2.4-3,6-4.8,9.9-4.8,3.3,0,6.4,1.6,8.2,4.3,1.1,2.8,1.6,5.8,1.3,8.8v29.6h7.3v-26.4c.5-5.2-.3-10.4-2.3-15.2-2.8-4.8-8-7.6-13.6-7.4-6.5,0-12.4,4-14.9,10.1h-.2v-8.8Z"/>
            <path id="s-3" class="st0" d="M770.4,263.9c2.8,9,11.6,14.7,21,13.6,9.3,0,19.9-4,19.9-14.8,0-4.3-2.1-8.4-5.7-10.8-3.1-1.8-6.5-2.9-10-3.3l-7-1.2c-4.2-.7-8.6-1.8-8.6-7s5.8-7,10.2-7c5.3-.5,10.3,2.6,12.2,7.5l6.8-1.4c-2.6-8-10.5-13.1-18.9-12-8.7,0-17.9,4.1-17.9,14s6.7,11.9,14,13.3l7.8,1.4c4.1.8,9.3,2.2,9.3,7.2s-6.5,7.9-11.6,7.9-13.4-2.4-14.4-8.9l-7.2,1.4Z"/>
          </g>
        </g>
        <g id="inbterzero_">
          <g id="inter">
            <g id="i-2">
              <polygon class="st0" points="3.6 58.7 3.6 163.7 34 163.7 34 58.7 18.2 58.7 3.6 58.7"/>
              <path class="st0" d="M18.2,0C8.2,0,0,8.2,0,18.2c0,10.1,8.2,18.2,18.2,18.2,10.1,0,18.2-8.2,18.2-18.2C36.5,8.2,28.3,0,18.2,0c0,0,0,0,0,0"/>
            </g>
            <path id="n-2" class="st0" d="M116.7,56.6c-13.4-.9-25.7,7.2-30.2,19.9h-.4v-17.8h-28.7v105h30.4v-56.5c-.4-6.4.8-12.8,3.5-18.6,2.5-4.8,7.4-7.8,12.8-7.9,15.3,0,13.9,15.7,13.9,26.5v56.5h30.4v-64.9c0-9.5,0-22.7-5.8-30.6-6.2-7.9-15.9-12.2-25.8-11.6"/>
            <path id="t-3" class="st0" d="M208.4,124.5v-41.8h22.5v-24.2h-22.5V25.6l-26.5,2.1-2.7,30.8h-18.4v24.2h17.2v46.3c0,10.3,0,22.9,8.5,30,8.1,5.1,17.6,7.5,27.1,6.8,5.7-.2,11.4-.8,17-1.9l2.1-.4v-22.9l-9.5.4c-14.7.6-14.7-4.3-14.7-16.5"/>
            <path id="e-3" class="st0" d="M297,76.5c13.2,0,17,10.5,17.6,21.9h-37.2c1-12,6.2-21.9,19.6-21.9M344.9,116.4c.9-14.5-2.8-29-10.8-41.1-9.2-11.9-23.4-18.8-38.5-18.6-32.7,0-51.1,25-51.1,56s20.5,53.1,51.9,53.1c22.4.6,42.3-14.4,47.8-36.2l-28.1-2.1c-.7,9.6-9,17-18.6,16.5-11.2,0-20.3-9-20.4-20.2,0-.8,0-1.6.1-2.4l.2-5.2h67.4Z"/>
            <path id="r-2" class="st0" d="M392.5,78.3h-.4v-19.6h-28.3v105h30.4v-40.1c0-18.6,2.9-37.4,26.1-36.2v-30.4l-5.2-.4c-13.2-1-19.4,10.6-22.5,21.7"/>
          </g>
          <g id="zero_">
            <polygon id="z-2" class="st0" points="516.5 78.1 516.5 58.7 439.3 58.7 439.3 80.6 483.8 80.6 434.3 142.3 434.3 163.7 518.6 163.7 518.6 141.2 465.7 141.2 516.5 78.1"/>
            <path id="e-4" class="st0" d="M580.7,76.5c13.2,0,17,10.5,17.6,21.9h-37.2c1-12,6.2-21.9,19.6-21.9M628.6,116.4c1-14.5-2.8-29-10.7-41.1-9.2-11.9-23.4-18.8-38.5-18.6-32.7,0-51.1,25-51.1,56s20.5,53.1,51.9,53.1c22.4.6,42.3-14.4,47.8-36.2l-28.1-2.1c-.7,9.6-9,17-18.6,16.5-11.2,0-20.3-9-20.4-20.2,0-.8,0-1.6.1-2.4l.2-5.2h67.4Z"/>
            <path id="r-3" class="st0" d="M676.2,78.3h-.4v-19.6h-28.3v105h30.4v-40.1c0-18.6,2.9-37.4,26.1-36.2v-30.4l-5.2-.4c-13.2-1-19.4,10.6-22.5,21.7"/>
            <path id="o-4" class="st0" d="M762.1,145.5c-17.4,0-17.2-25.6-17.2-37.6s1-31.2,17.4-31.2c6.5-.7,12.5,3.3,14.5,9.5,2.5,8.4,3.7,17.2,3.3,26.1,0,12.6-.8,33.3-18,33.3M762.1,56.6c-32,0-49.8,23.8-49.8,54.4s17.6,54.8,49.8,54.8,50.7-23.8,50.7-53.8-17.8-55.4-50.7-55.4"/>
            <g id="_">
              <path class="st0" d="M826.8,17.1h4c3.4,0,4.4,1.3,4.4,2.7,0,2.4-1.9,3.7-4.8,3.7h-3.7v-6.4ZM819.8,12.1v26.3h7v-9.5h4.2l4.2,9.5h7.4l-4.9-11.4c3-1,5-3.9,4.9-7,0-5.2-4-7.9-9.9-7.9h-12.8ZM811.2,25.3c0-10.7,8.5-19.5,19.2-19.5,10.7,0,19.5,8.5,19.5,19.2,0,0,0,.2,0,.3,0,10.7-8.7,19.4-19.4,19.4s-19.4-8.7-19.4-19.4M830.6,0c-13.7-.2-25,10.8-25.2,24.5,0,.3,0,.5,0,.8,0,13.9,11.3,25.2,25.3,25.2,13.9,0,25.1-11.3,25.2-25.2.3-13.7-10.7-25.1-24.4-25.3-.3,0-.5,0-.8,0"/>
            </g>
          </g>
        </g>
      </g>
    </g>
  </g>
</svg>