<svg width="1771" height="927" viewBox="0 0 1771 927" fill="none" xmlns="http://www.w3.org/2000/svg">
<path d="M821.269 827.806C819.886 827.806 818.503 827.173 817.605 825.955C816.075 823.913 816.488 821.045 818.53 819.516L947.229 722.602C949.272 721.072 952.13 721.484 953.66 723.527C955.19 725.57 954.777 728.437 952.735 729.967L824.036 826.88C823.211 827.512 822.24 827.806 821.269 827.806Z" fill="#775275"/>
<path d="M949.968 827.805C948.997 827.805 948.026 827.512 947.202 826.88L818.502 729.967C816.46 728.437 816.075 725.57 817.577 723.527C819.107 721.512 821.992 721.072 824.008 722.602L952.716 819.516C954.749 821.045 955.143 823.912 953.641 825.955C952.743 827.173 951.36 827.805 949.977 827.805H949.968Z" fill="#775275"/>
<path d="M827.379 719.762H815.123V820.706H827.379V719.762Z" fill="#775275"/>
<path d="M956.087 719.762H943.831V820.706H956.087V719.762Z" fill="#775275"/>
<path d="M869.671 353.881C867.125 353.881 865.082 351.811 865.082 349.292V103.884C865.082 101.329 867.143 99.2952 869.671 99.2952C872.2 99.2952 874.261 101.356 874.261 103.884V349.283C874.261 351.839 872.2 353.872 869.671 353.872V353.881Z" fill="#808080"/>
<path d="M901.548 353.881C899.002 353.881 896.968 351.811 896.968 349.292V186.133C896.968 183.577 899.029 181.544 901.548 181.544C904.067 181.544 906.137 183.614 906.137 186.133V349.292C906.137 351.848 904.076 353.881 901.548 353.881Z" fill="#808080"/>
<path d="M924.641 353.881C922.094 353.881 920.052 351.811 920.052 349.292V4.5892C920.052 2.03354 922.113 0 924.641 0C927.169 0 929.23 2.07018 929.23 4.5892V349.283C929.23 351.839 927.169 353.872 924.641 353.872V353.881Z" fill="#808080"/>
<path d="M965.403 913.974H956.279L956.087 912.298V829.335H965.403C968.773 829.335 971.512 826.587 971.512 823.216C971.512 819.845 968.773 817.088 965.403 817.088H804.817C801.446 817.088 798.707 819.836 798.707 823.216C798.707 826.596 801.446 829.335 804.817 829.335H815.15V911.547L814.884 913.974H804.817C801.446 913.974 798.707 916.722 798.707 920.102C798.707 923.482 801.446 926.221 804.817 926.221H813.528L813.428 927H827.406V926.221H943.858V927H957.736L957.635 926.221H965.403C968.773 926.221 971.512 923.473 971.512 920.102C971.512 916.731 968.773 913.974 965.403 913.974ZM934.176 829.335L885.609 865.884L837.042 829.335H934.185H934.176ZM827.378 833.558L877.96 871.636L827.378 909.715V833.558ZM837.061 913.974L885.627 877.426L934.194 913.974H837.052H837.061ZM943.831 909.724L893.249 871.646L943.831 833.567V909.724Z" fill="#7C797E"/>
<path d="M965.403 732.422H804.817C801.446 732.422 798.707 729.674 798.707 726.303C798.707 722.932 801.446 720.175 804.817 720.175H965.403C968.773 720.175 971.512 722.923 971.512 726.303C971.512 729.683 968.773 732.422 965.403 732.422Z" fill="#775275"/>
<path d="M956.133 434.463L955.19 346.544H819.501L818.558 434.463L813.419 720.147H961.308L956.142 434.463H956.133Z" fill="#775275"/>
<path d="M956.133 434.463L955.19 346.544H911.743V720.156H961.308L956.142 434.472L956.133 434.463Z" fill="#5F3461"/>
<path d="M843.171 346.535L842.851 434.453L839.434 720.138H862.142L863.232 434.453V346.535H843.171Z" fill="#AD92AD"/>
<path d="M727.717 714.459C725.143 714.459 723.054 712.37 723.054 709.796V421.483C723.054 418.909 725.143 416.82 727.717 416.82C730.291 416.82 732.379 418.909 732.379 421.483V709.796C732.379 712.37 730.291 714.459 727.717 714.459Z" fill="#4A494B"/>
<path d="M1025.01 714.459C1022.43 714.459 1020.35 712.37 1020.35 709.796V421.483C1020.35 418.909 1022.43 416.82 1025.01 416.82C1027.58 416.82 1029.66 418.909 1029.66 421.483V709.796C1029.66 712.37 1027.57 714.459 1025.01 714.459Z" fill="#4A494B"/>
<path d="M806.732 730.791C804.158 730.791 802.07 728.703 802.07 726.129V421.483C802.07 418.909 804.158 416.82 806.732 416.82C809.306 416.82 811.395 418.909 811.395 421.483V726.129C811.395 728.703 809.306 730.791 806.732 730.791Z" fill="#7C797E"/>
<path d="M941.092 730.791C938.518 730.791 936.439 728.703 936.439 726.129V421.483C936.439 418.909 938.527 416.82 941.092 416.82C943.657 416.82 945.754 418.909 945.754 421.483V726.129C945.754 728.703 943.666 730.791 941.092 730.791Z" fill="#7C797E"/>
<path d="M806.247 468.721L697.947 460.065C694.53 459.799 691.956 456.786 692.25 453.36C692.515 449.934 695.547 447.36 698.946 447.653L806.98 456.282H938.793L1046.83 447.653C1050.24 447.387 1053.26 449.934 1053.52 453.36C1053.79 456.786 1051.24 459.799 1047.83 460.065L939.526 468.721H939.04H939.068H806.247Z" fill="#4A494B"/>
<path d="M1047.35 620.586H1046.84L938.802 611.957H806.997L698.963 620.586C695.592 620.879 692.533 618.305 692.267 614.879C692.002 611.454 694.548 608.44 697.965 608.174L806.265 599.518H939.553L1047.85 608.174C1051.27 608.44 1053.84 611.454 1053.55 614.879C1053.28 618.131 1050.56 620.614 1047.37 620.614L1047.34 620.586H1047.35Z" fill="#4A494B"/>
<path d="M822.598 396.989H790.867C781.835 396.989 774.516 404.326 774.516 413.367V660.799C774.516 669.849 781.835 677.177 790.867 677.177H822.598C831.629 677.177 838.948 669.84 838.948 660.799V413.367C838.948 404.317 831.629 396.989 822.598 396.989Z" fill="#636164"/>
<path d="M820.271 396.989H793.249C789.667 396.989 786.772 399.892 786.772 403.474V670.692C786.772 674.273 789.676 677.177 793.249 677.177H820.271C823.852 677.177 826.747 674.273 826.747 670.692V403.474C826.747 399.892 823.843 396.989 820.271 396.989Z" fill="#949297"/>
<path d="M956.957 396.989H925.227C916.195 396.989 908.876 404.326 908.876 413.367V660.799C908.876 669.849 916.195 677.177 925.227 677.177H956.957C965.989 677.177 973.308 669.84 973.308 660.799V413.367C973.308 404.317 965.989 396.989 956.957 396.989Z" fill="#636164"/>
<path d="M954.603 396.989H927.572C923.999 396.989 921.096 399.892 921.096 403.474V670.692C921.096 674.273 923.999 677.177 927.572 677.177H954.603C958.176 677.177 961.079 674.273 961.079 670.692V403.474C961.079 399.892 958.176 396.989 954.603 396.989Z" fill="#949297"/>
<path d="M709.883 396.989H687.001C678.867 396.989 672.271 403.593 672.271 411.736V662.429C672.271 670.573 678.867 677.177 687.001 677.177H709.883C718.017 677.177 724.612 670.573 724.612 662.429V411.736C724.612 403.593 718.017 396.989 709.883 396.989Z" fill="#636164"/>
<path d="M683.731 396.989H701.437C707.41 396.989 712.283 401.853 712.283 407.853V666.487C712.283 672.396 707.501 677.205 701.584 677.205H683.126C677.154 677.205 672.308 672.341 672.308 666.368V408.485C672.308 402.164 677.429 397.016 683.758 397.016L683.731 396.989Z" fill="#949297"/>
<path d="M1041.36 677.205H1064.24C1072.37 677.205 1078.97 670.6 1078.97 662.457V411.764C1078.97 403.621 1072.37 397.016 1064.24 397.016H1041.36C1033.22 397.016 1026.63 403.621 1026.63 411.764V662.457C1026.63 670.6 1033.22 677.205 1041.36 677.205Z" fill="#636164"/>
<path d="M1068.14 677.205H1049.68C1043.79 677.205 1038.99 672.414 1038.99 666.487V407.853C1038.99 401.871 1043.84 396.989 1049.83 396.989H1067.54C1073.85 396.989 1078.99 402.118 1078.99 408.457V666.341C1078.99 672.322 1074.13 677.177 1068.17 677.177L1068.14 677.205Z" fill="#949297"/>
</svg>
