<svg width="1771" height="789" viewBox="0 0 1771 789" fill="none" xmlns="http://www.w3.org/2000/svg">
<path d="M1102.45 558.935H1034.4C1028.74 558.935 1024.12 554.273 1024.12 548.494V302.467C1024.12 296.714 1028.71 292.025 1034.4 292.025H1102.45V558.935Z" fill="#ADAAB1"/>
<path d="M1112.6 564.779H1089.8C1086.28 564.779 1083.42 561.87 1083.42 558.286V292.688C1083.42 289.11 1086.28 286.195 1089.8 286.195H1112.6V564.779Z" fill="#949297"/>
<path d="M978.067 470.53L1024.12 523.021V327.933L978.067 380.398V470.53Z" fill="#949297"/>
<path d="M1023.59 788.275L1007.1 637.139H990.183L1002.98 768.062L888.506 660.339C886.512 658.437 883.409 658.463 881.389 660.339L768.829 766.977L781.504 637.36H764.557L748.123 787.905H759.096C759.336 787.957 759.583 788.028 759.849 788.028H1004.95V788.204H1023.62L1023.6 788.275H1023.59ZM884.934 671.495L935.289 718.876H834.917L884.934 671.495ZM936.478 728.155L885.149 776.451L834.164 728.155H936.478ZM822.944 730.206L872.838 777.464H773.076L822.944 730.206ZM897.486 777.464L947.522 730.375L997.566 777.464H897.486Z" fill="#7C797E"/>
<path d="M1007.08 637.165L993.806 515.45H978.242L988.462 619.893L888.064 525.443C886.318 523.787 883.597 523.787 881.85 525.443L783.277 618.828L793.374 515.45H777.81L764.505 637.412H781.452V637.217H995.209C995.332 637.217 995.449 637.165 995.598 637.165H1007.08ZM884.98 535.189L929.049 576.649H841.203L884.98 535.189ZM930.088 584.772L885.168 627.049L840.54 584.772H930.088ZM830.742 586.57L874.396 627.932H787.062L830.716 586.57H830.742ZM895.979 627.938L939.783 586.726L983.586 627.938H895.979Z" fill="#775275"/>
<path d="M978.261 515.45H993.826L981.125 399.137H966.898L976.489 497.139L887.843 413.747C886.24 412.241 883.792 412.241 882.188 413.747L795.289 496.074L804.756 399.111H790.53L777.829 515.424H793.393V515.249H978.235V515.424L978.261 515.45ZM885.032 422.604L925.069 460.264H845.287L885.032 422.604ZM925.985 467.647L885.194 506.022L844.67 467.647H925.985ZM835.768 469.27L875.415 506.834H796.12L835.768 469.27ZM895.005 506.86L934.776 469.446L974.547 506.86H895.005Z" fill="#7C797E"/>
<path d="M966.872 399.137H981.099L969.567 293.538L956.529 293.59L965.223 382.508L887.506 309.382C886.097 308.077 883.935 308.077 882.525 309.382L806.458 381.443L815.003 294.032L801.964 294.084L790.504 399.17H804.73V398.949H966.82V399.17L966.866 399.144L966.872 399.137ZM885.051 317.174L920.355 350.393H849.995L885.051 317.174ZM921.18 356.912L885.194 390.774L849.456 356.912H921.18ZM841.618 358.341L876.578 391.462H806.626L841.586 358.341H841.618ZM893.863 391.482L928.945 358.483L964.028 391.482H893.863Z" fill="#775275"/>
<path d="M944.127 195.53C944.127 197.952 945.51 200.043 947.503 201.056L955.152 279.312L887.24 215.419C885.999 214.256 884.11 214.256 882.896 215.419L816.568 278.253L824.119 201.082C826.158 200.069 827.593 197.971 827.593 195.504V187.634H813.607L802.003 294.025L815.042 293.973V293.629H962.249C962.515 293.629 962.782 293.577 963.048 293.506H969.554L957.996 187.608H944.107V195.478L944.133 195.53H944.127ZM885.103 222.262L915.959 251.287H854.462L885.103 222.262ZM816.561 287.188L847.131 258.241L877.701 287.188H816.561ZM854.001 256.982H916.667L885.227 286.571L854.001 256.982ZM892.798 287.188L923.465 258.339L954.107 287.188H892.798Z" fill="#7C797E"/>
<path d="M630.362 266.118C626.985 266.118 624.245 263.325 624.245 259.897V6.22049C624.245 2.76611 626.992 0 630.362 0C633.732 0 636.478 2.78559 636.478 6.22049V259.897C636.478 263.351 633.732 266.118 630.362 266.118Z" fill="#636164"/>
<path d="M1144.36 266.118C1140.98 266.118 1138.24 263.325 1138.24 259.897V6.22049C1138.24 2.76611 1140.98 0 1144.36 0C1147.73 0 1150.47 2.78559 1150.47 6.22049V259.897C1150.47 263.351 1147.73 266.118 1144.36 266.118Z" fill="#636164"/>
<path d="M1175.68 252.443V182.407C1178.06 180.803 1179.64 178.089 1179.64 174.979C1179.64 170.044 1175.7 166.07 1170.84 166.07H600.792C595.935 166.07 592 170.07 592 174.979C592 179.005 594.649 182.355 598.24 183.466V251.384C594.649 252.495 592 255.852 592 259.878C592 264.812 595.935 268.786 600.792 268.786H1170.85C1175.71 268.786 1179.64 264.786 1179.64 259.878C1179.64 256.767 1178.06 254.027 1175.69 252.449L1175.68 252.443ZM664.691 183.881H711.819V250.956H664.691V183.881ZM655.03 250.962H607.902V183.888H655.03V250.962ZM721.455 183.881H768.583V250.956H721.455V183.881ZM778.245 183.881H825.372V250.956H778.245V183.881ZM835.015 183.881H882.142V250.956H835.015V183.881ZM891.804 183.881H938.932V250.956H891.804V183.881ZM948.568 183.881H995.696V250.956H948.568V183.881ZM1005.36 183.881H1052.49V250.956H1005.36V183.881ZM1062.12 183.881H1109.25V250.956H1062.12V183.881ZM1118.91 183.881H1166.04V250.956H1118.91V183.881Z" fill="#4A494B"/>
</svg>
