<svg width="1771" height="1003" viewBox="0 0 1771 1003" fill="none" xmlns="http://www.w3.org/2000/svg">
<path d="M1096.56 1002.57H1110.66L1102.15 923.715L1083.43 752.447H1060.09L1077.7 926.265L1082.24 970.536L889.833 792.615C886.479 789.508 881.3 789.532 877.946 792.615L688.06 969.412L692.489 926.233L710.04 752.734H686.674L667.976 923.66L659.42 1003H684.586L684.61 1002.71H1094.78C1095.41 1002.71 1095.99 1002.61 1096.6 1002.49L1096.58 1002.56L1096.56 1002.57ZM883.874 810.978L968.169 888.909H800.167L883.882 810.978H883.874ZM970.161 904.189L884.24 983.625L798.901 904.189H970.161ZM780.123 907.567L863.638 985.306H696.608L780.123 907.567ZM904.898 985.33L988.66 907.877L1072.42 985.33H904.882H904.906H904.898Z" fill="#7C797E"/>
<path d="M1083.41 752.471L1061.99 556.61H1040.23L1057.64 728.722L888.996 572.806C886.128 570.161 881.699 570.161 878.831 572.806L712.502 727.655L729.79 556.849H708.032L686.61 752.79H709.976L710.024 752.375H1060.04V752.471H1083.41ZM883.993 588.468L956.036 655.086H812.444L884.001 588.468H883.993ZM957.733 668.128L884.304 736.028L811.361 668.128H957.733ZM795.324 671.019L866.681 737.462H723.934L795.292 671.019H795.324ZM901.958 737.462L973.539 671.282L1045.12 737.462H901.942H901.966H901.958Z" fill="#775275"/>
<path d="M1040.25 556.634H1062.01L1041.56 369.655H1021.31L1037.67 531.252L888.606 393.428C886.009 391.022 881.97 391.022 879.364 393.428L732.514 530.16L748.734 369.87H728.483L708.032 556.873H729.79L729.837 556.482H1040.2V556.602L1040.24 556.626L1040.25 556.634ZM884.041 407.64L949.471 468.139H819.056L884.049 407.64H884.041ZM951.001 479.986L884.312 541.648L818.085 479.986H951.009H951.001ZM803.513 482.607L868.307 542.931H738.696L803.49 482.607H803.513ZM900.357 542.939L965.373 482.83L1030.39 542.939H900.357Z" fill="#7C797E"/>
<path d="M1021.32 369.655H1041.57L1029.29 257.309L1023.02 200.745H1004.35L1010.19 259.324L1019.04 346.751L888.184 225.76C885.873 223.625 882.32 223.625 880.042 225.76L751.228 345.659L759.983 259.3L765.847 200.434H747.173L740.855 257.285L728.555 369.87H748.806L748.83 369.528H1021.35V369.623L1021.33 369.647L1021.32 369.655ZM884.113 238.292L941.807 291.645H826.808L884.113 238.292ZM943.17 302.089L884.36 356.462L825.964 302.089H943.178H943.17ZM813.097 304.4L870.258 357.609H755.936L813.097 304.4ZM898.484 357.609L955.813 304.591L1013.14 357.609H898.477H898.484Z" fill="#775275"/>
<path d="M559.995 332.355C555.693 332.355 552.212 328.881 552.212 324.579V7.7755C552.212 3.47348 555.685 0 559.995 0C564.305 0 567.779 3.47348 567.779 7.7755V324.587C567.779 328.889 564.305 332.363 559.995 332.363V332.355Z" fill="#7C797E"/>
<path d="M1213.17 332.355C1208.87 332.355 1205.39 328.881 1205.39 324.579V7.7755C1205.39 3.47348 1208.86 0 1213.17 0C1217.48 0 1220.95 3.47348 1220.95 7.7755V324.587C1220.95 328.889 1217.48 332.363 1213.17 332.363V332.355Z" fill="#7C797E"/>
<path d="M1247.91 228.023H522.185C516.011 228.023 511 223.02 511 216.854C511 210.687 516.011 205.684 522.185 205.684H1247.89C1254.06 205.684 1259.07 210.687 1259.07 216.854C1259.07 223.02 1254.06 228.023 1247.89 228.023H1247.91Z" fill="#636164"/>
<path d="M1247.91 334.243H522.185C516.011 334.243 511 329.24 511 323.074C511 316.907 516.011 311.904 522.185 311.904H1247.89C1254.06 311.904 1259.07 316.907 1259.07 323.074C1259.07 329.24 1254.06 334.243 1247.89 334.243H1247.91Z" fill="#636164"/>
<path d="M814.237 329.24C810.835 329.24 808.086 326.499 808.086 323.098V216.87C808.086 213.468 810.835 210.727 814.237 210.727C817.638 210.727 820.387 213.476 820.387 216.87V323.098C820.387 326.499 817.638 329.24 814.237 329.24Z" fill="#636164"/>
<path d="M958.776 329.24C955.375 329.24 952.626 326.499 952.626 323.098V216.87C952.626 213.468 955.375 210.727 958.776 210.727C962.178 210.727 964.927 213.476 964.927 216.87V323.098C964.927 326.499 962.178 329.24 958.776 329.24Z" fill="#636164"/>
<path d="M525.101 329.24C521.699 329.24 518.951 326.499 518.951 323.098V216.87C518.951 213.468 521.699 210.727 525.101 210.727C528.503 210.727 531.251 213.476 531.251 216.87V323.098C531.251 326.499 528.503 329.24 525.101 329.24Z" fill="#636164"/>
<path d="M669.665 329.24C666.263 329.24 663.515 326.499 663.515 323.098V216.87C663.515 213.468 666.263 210.727 669.665 210.727C673.067 210.727 675.815 213.476 675.815 216.87V323.098C675.815 326.499 673.067 329.24 669.665 329.24Z" fill="#636164"/>
<path d="M1103.35 329.24C1099.95 329.24 1097.2 326.499 1097.2 323.098V216.87C1097.2 213.468 1099.95 210.727 1103.35 210.727C1106.75 210.727 1109.5 213.476 1109.5 216.87V323.098C1109.5 326.499 1106.75 329.24 1103.35 329.24Z" fill="#636164"/>
<path d="M1247.91 329.24C1244.51 329.24 1241.76 326.499 1241.76 323.098V216.87C1241.76 213.468 1244.51 210.727 1247.91 210.727C1251.31 210.727 1254.06 213.476 1254.06 216.87V323.098C1254.06 326.499 1251.31 329.24 1247.91 329.24Z" fill="#636164"/>
<path d="M886.518 329.24C883.117 329.24 880.368 326.499 880.368 323.098V216.87C880.368 213.468 883.117 210.727 886.518 210.727C889.92 210.727 892.669 213.476 892.669 216.87V323.098C892.669 326.499 889.92 329.24 886.518 329.24Z" fill="#636164"/>
<path d="M1031.06 329.24C1027.66 329.24 1024.91 326.499 1024.91 323.098V216.87C1024.91 213.468 1027.66 210.727 1031.06 210.727C1034.46 210.727 1037.21 213.476 1037.21 216.87V323.098C1037.21 326.499 1034.46 329.24 1031.06 329.24Z" fill="#636164"/>
<path d="M597.383 329.24C593.981 329.24 591.233 326.499 591.233 323.098V216.87C591.233 213.468 593.981 210.727 597.383 210.727C600.785 210.727 603.533 213.476 603.533 216.87V323.098C603.533 326.499 600.785 329.24 597.383 329.24Z" fill="#636164"/>
<path d="M741.955 329.24C738.553 329.24 735.804 326.499 735.804 323.098V216.87C735.804 213.468 738.553 210.727 741.955 210.727C745.356 210.727 748.105 213.476 748.105 216.87V323.098C748.105 326.499 745.356 329.24 741.955 329.24Z" fill="#636164"/>
<path d="M1175.63 329.24C1172.23 329.24 1169.48 326.499 1169.48 323.098V216.87C1169.48 213.468 1172.23 210.727 1175.63 210.727C1179.03 210.727 1181.78 213.476 1181.78 216.87V323.098C1181.78 326.499 1179.03 329.24 1175.63 329.24Z" fill="#636164"/>
<path d="M658.551 288.347C710.024 280.452 745.341 232.373 737.438 180.964C729.535 129.555 681.4 94.27 629.935 102.173C578.462 110.068 543.146 158.147 551.049 209.556C558.952 260.965 607.086 296.25 658.551 288.347Z" fill="#C6C2CA"/>
<path d="M589.121 118.855C570.814 136.023 559.358 160.41 559.358 187.488C559.358 239.511 601.565 281.671 653.644 281.671C674.166 281.671 693.151 275.09 708.638 263.969C691.764 279.807 669.083 289.518 644.108 289.518C592.029 289.518 549.822 247.358 549.822 195.336C549.822 163.835 565.333 135.96 589.114 118.863L589.121 118.855Z" fill="#636164"/>
<path d="M716.931 222.924C739.326 200.554 734.458 159.493 706.113 131.148C677.767 102.834 636.627 97.9745 614.233 120.337C591.838 142.708 596.706 183.768 625.051 212.113C653.405 240.427 694.537 245.287 716.931 222.924Z" fill="#949297"/>
</svg>
