<svg width="1771" height="1286" viewBox="0 0 1771 1286" fill="none" xmlns="http://www.w3.org/2000/svg">
<path d="M1211.37 1285.34L1176.04 957.757H1147.78L1177.55 1247.61L892.783 984.272C887.991 979.824 880.557 979.845 875.765 984.293L594.158 1246.52L623.81 957.735H595.544L560.144 1285.99H590.107L590.204 1284.89H1181.36L1181.42 1285.31L1181.39 1285.34H1211.37ZM884.295 1010.52L1004.89 1122.05H764.527L884.295 1010.52ZM1007.74 1143.87L884.832 1257.53L762.755 1143.87H1007.75H1007.74ZM735.874 1148.7L855.352 1259.95H616.418L735.874 1148.7ZM914.377 1259.95L1034.22 1149.14L1154.04 1259.95H914.377Z" fill="#775275"/>
<path d="M1147.76 957.757H1176.02L1142.26 644.725H1115.6L1143.5 916.502L892.063 683.971C887.701 679.931 880.965 679.931 876.603 683.971L628.128 915.352L655.932 644.693H629.278L595.511 957.725H623.777L623.853 956.94H1147.67L1147.75 957.725L1147.77 957.746L1147.76 957.757ZM884.392 707.8L993.911 809.067H775.647L884.413 707.8H884.392ZM996.468 828.889L884.854 932.101L773.992 828.889H996.468ZM749.605 833.294L858.081 934.293H641.107L749.583 833.294H749.605ZM911.702 934.315L1020.52 833.702L1129.33 934.315H911.702Z" fill="#7C797E"/>
<path d="M1115.62 644.736H1142.28L1111.66 360.84H1086.49L1111.78 607.155L891.3 403.255C887.454 399.678 881.513 399.699 877.666 403.255L659.918 606.016L685.036 361.302H659.843L629.289 644.704H655.943L656.018 644.027H1115.57L1115.64 644.704L1115.62 644.725V644.736ZM884.489 424.269L981.083 513.569H788.571L884.489 424.269ZM983.339 531.059L884.897 622.088L787.131 531.059H983.339ZM765.645 534.948L861.315 624.033H669.974L765.645 534.948ZM908.586 624.033L1004.55 535.292L1100.51 624.033H908.586Z" fill="#775275"/>
<path d="M1235.98 820.67C1232.35 801.945 1225.2 782.51 1214.39 763.805C1203.58 745.08 1190.31 729.201 1175.9 716.674L1139.44 653.567L1069.63 693.844C1026.42 718.769 1021.17 790.514 1057.9 854.093C1094.63 917.662 1159.46 948.99 1202.67 924.065L1272.49 883.788L1236.02 820.681H1236L1235.98 820.67Z" fill="#949297"/>
<path d="M1272.45 883.788C1315.67 858.863 1320.92 787.119 1284.19 723.55C1247.46 659.981 1182.63 628.653 1139.41 653.588C1096.19 678.513 1090.93 750.258 1127.67 813.827C1164.4 877.396 1229.22 908.724 1272.45 883.788Z" fill="#C6C2CA"/>
<path d="M701.957 693.812L632.136 653.535L595.672 716.642C581.266 729.168 567.997 745.047 557.189 763.773C546.382 782.499 539.226 801.902 535.595 820.66L499.132 883.767L568.954 924.044C612.164 948.969 676.99 917.651 713.721 854.072C750.453 790.503 745.2 718.747 701.99 693.823L701.968 693.801L701.957 693.812Z" fill="#949297"/>
<path d="M643.878 813.795C680.61 750.226 675.357 678.481 632.136 653.556C588.915 628.631 524.1 659.948 487.357 723.517C450.625 787.086 455.879 858.831 499.1 883.756C542.321 908.681 607.136 877.364 643.878 813.795Z" fill="#C6C2CA"/>
<path d="M471.822 413.397C466.343 413.397 461.917 409.067 461.917 403.717V9.67985C461.917 4.32961 466.343 0 471.822 0C477.301 0 481.727 4.32961 481.727 9.67985V403.717C481.727 409.067 477.301 413.397 471.822 413.397Z" fill="#ADAAB1"/>
<path d="M1302.77 413.397C1297.29 413.397 1292.87 409.067 1292.87 403.717V9.67985C1292.87 4.32961 1297.29 0 1302.77 0C1308.25 0 1312.68 4.32961 1312.68 9.67985V403.717C1312.68 409.067 1308.25 413.397 1302.77 413.397Z" fill="#ADAAB1"/>
<path d="M1350.23 283.82H421.328C413.442 283.82 407.039 277.428 407.039 269.542C407.039 261.657 413.442 255.264 421.328 255.264H1350.23C1358.11 255.264 1364.52 261.657 1364.52 269.542C1364.52 277.428 1358.11 283.82 1350.23 283.82Z" fill="#949297"/>
<path d="M1350.23 419.822H421.328C413.442 419.822 407.039 413.429 407.039 405.544C407.039 397.658 413.442 391.266 421.328 391.266H1350.23C1358.11 391.266 1364.52 397.658 1364.52 405.544C1364.52 413.429 1358.11 419.822 1350.23 419.822Z" fill="#949297"/>
<path d="M795.125 413.397C790.763 413.397 787.26 409.873 787.26 405.544V269.542C787.26 265.191 790.795 261.689 795.125 261.689C799.454 261.689 802.989 265.213 802.989 269.542V405.544C802.989 409.873 799.454 413.397 795.125 413.397Z" fill="#949297"/>
<path d="M980.159 413.397C975.797 413.397 972.295 409.873 972.295 405.544V269.542C972.295 265.191 975.819 261.689 980.159 261.689C984.499 261.689 988.023 265.213 988.023 269.542V405.544C988.023 409.873 984.489 413.397 980.159 413.397Z" fill="#949297"/>
<path d="M425.056 413.397C420.694 413.397 417.192 409.873 417.192 405.544V269.542C417.192 265.191 420.726 261.689 425.056 261.689C429.385 261.689 432.92 265.213 432.92 269.542V405.544C432.92 409.873 429.385 413.397 425.056 413.397Z" fill="#949297"/>
<path d="M610.09 413.397C605.728 413.397 602.226 409.873 602.226 405.544V269.542C602.226 265.191 605.761 261.689 610.09 261.689C614.42 261.689 617.954 265.213 617.954 269.542V405.544C617.954 409.873 614.42 413.397 610.09 413.397Z" fill="#949297"/>
<path d="M1165.19 413.397C1160.83 413.397 1157.33 409.873 1157.33 405.544V269.542C1157.33 265.191 1160.86 261.689 1165.19 261.689C1169.52 261.689 1173.06 265.213 1173.06 269.542V405.544C1173.06 409.873 1169.52 413.397 1165.19 413.397Z" fill="#949297"/>
<path d="M1350.23 413.397C1345.87 413.397 1342.36 409.873 1342.36 405.544V269.542C1342.36 265.191 1345.9 261.689 1350.23 261.689C1354.56 261.689 1358.09 265.213 1358.09 269.542V405.544C1358.09 409.873 1354.56 413.397 1350.23 413.397Z" fill="#949297"/>
<path d="M887.626 413.397C883.264 413.397 879.761 409.873 879.761 405.544V269.542C879.761 265.191 883.296 261.689 887.626 261.689C891.955 261.689 895.49 265.213 895.49 269.542V405.544C895.49 409.873 891.966 413.397 887.626 413.397Z" fill="#949297"/>
<path d="M1072.66 413.397C1068.3 413.397 1064.8 409.873 1064.8 405.544V269.542C1064.8 265.191 1068.33 261.689 1072.66 261.689C1076.99 261.689 1080.52 265.213 1080.52 269.542V405.544C1080.52 409.873 1076.99 413.397 1072.66 413.397Z" fill="#949297"/>
<path d="M517.578 413.397C513.217 413.397 509.714 409.873 509.714 405.544V269.542C509.714 265.191 513.249 261.689 517.578 261.689C521.908 261.689 525.443 265.213 525.443 269.542V405.544C525.443 409.873 521.919 413.397 517.578 413.397Z" fill="#949297"/>
<path d="M702.613 413.397C698.251 413.397 694.749 409.873 694.749 405.544V269.542C694.749 265.191 698.283 261.689 702.613 261.689C706.942 261.689 710.477 265.213 710.477 269.542V405.544C710.477 409.873 706.953 413.397 702.613 413.397Z" fill="#949297"/>
<path d="M1257.69 413.397C1253.33 413.397 1249.83 409.873 1249.83 405.544V269.542C1249.83 265.191 1253.36 261.689 1257.69 261.689C1262.02 261.689 1265.56 265.213 1265.56 269.542V405.544C1265.56 409.873 1262.02 413.397 1257.69 413.397Z" fill="#949297"/>
<path d="M1350.23 393.07C1418.51 393.07 1473.86 337.763 1473.86 269.553C1473.86 201.343 1418.5 146.025 1350.23 146.025C1281.95 146.025 1226.59 201.332 1226.59 269.553C1226.59 337.774 1281.95 393.07 1350.23 393.07Z" fill="#C6C2CA"/>
<path d="M1422.33 169.22C1446.33 191.738 1461.35 223.722 1461.35 259.229C1461.35 327.449 1405.99 382.757 1337.7 382.757C1310.78 382.757 1285.9 374.119 1265.6 359.529C1287.73 380.297 1317.48 393.049 1350.22 393.049C1418.5 393.049 1473.85 337.742 1473.85 269.521C1473.85 228.202 1453.53 191.642 1422.32 169.22H1422.33Z" fill="#636164"/>
<path d="M1375.17 291.513C1412.37 254.362 1418.72 200.473 1389.38 171.154C1360.03 141.835 1306.09 148.184 1268.9 185.346C1231.71 222.497 1225.35 276.386 1254.7 305.705C1284.05 335.024 1337.98 328.674 1375.17 291.513Z" fill="#949297"/>
</svg>
