<svg width="1771" height="2019" viewBox="0 0 1771 2019" fill="none" xmlns="http://www.w3.org/2000/svg">
<path d="M307.027 1262.75L359.125 1123.05L399.157 1014.62L381.697 1228.64L411.157 1215.18L570.72 851.607L722.815 782.099L728.856 853.283L569.376 1142.87L609.723 1124.44L733.038 902.427L746.565 1061.89L770 1051.19L754.166 864.437L826.131 734.881L873.382 713.288V1003.72L885.382 998.208L897.63 1005.31V714.665L945.894 736.723L1014.22 859.74L997.976 1051.2L1021.41 1061.91L1035.35 897.763L1162.32 1126.29L1202.63 1144.71L1039.53 848.553L1045.16 782.116L1197.77 851.839L1357.33 1215.41L1386.69 1228.64L1368.5 1005.56L1411.85 1123.03L1464.48 1264.17L1503.3 1280.74L1441.89 1112.08L1376.5 934.343L1245.82 580.844L1246.03 582.803L1245.15 579.052L1245.82 580.844L1210.35 253.602H1180.44L1212.67 565.973L883.954 415.737L558.422 564.513L590.437 254.249H560.529L525.145 580.844L525.792 579.052L524.912 582.803L525.128 580.844L394.444 934.343L329.051 1112.08L268.224 1279.13L306.994 1262.73H306.944L307.027 1262.75ZM1342.4 934.94L1362.06 1176.06L1225.29 864.42L1334.86 914.493L1342.36 934.924H1342.4V934.94ZM1325.04 887.705L1215.99 837.881L1233.27 637.938L1325.04 887.705ZM1215.45 589.375L1215.61 589.806L1216.87 593.209L1198.68 803.725L1076.79 525.975L1215.46 589.358H1215.43L1215.45 589.375ZM1064.86 549.161L1185.55 824.156L1046.9 760.805L1064.86 549.177V549.144V549.161ZM1018.37 810.247L988.665 756.291L1021.68 771.394L1018.37 810.264V810.247ZM1043.78 510.921L1023.49 750.083L972.383 726.731L968.616 719.877L969.047 721.736L967.653 718.167L968.599 719.86L904.717 447.371L1043.78 510.921ZM897.581 540.165L937.613 710.832L897.581 692.542V540.165ZM749.917 814.978L746.216 771.377L783.227 754.448L749.901 814.978H749.917ZM873.316 691.181L833.649 709.321L873.316 540.182V691.181ZM866.544 445.828L802.297 719.86L803.243 718.167L801.866 721.736L802.297 719.877L799.526 724.906L744.407 750.1L724.109 510.938L866.528 445.844L866.561 445.811L866.544 445.828ZM720.972 760.805L582.836 823.94L703.097 549.957L721.005 760.838H720.989L720.972 760.805ZM555.318 589.84L555.998 587.997V587.782L691.629 525.809L569.625 803.808L551.949 599.018L555.301 589.856H555.318V589.84ZM535.518 643.697L552.281 837.915L446.375 886.311L535.501 643.73L535.534 643.697H535.518ZM425.165 944.052L436.633 912.85L543.103 864.188L406.227 1176.04L425.148 944.036H425.165V944.052Z" fill="#7C797E"/>
<path d="M1386.63 1228.64L1357.27 1215.41L897.597 1005.33L885.349 998.225L873.349 1003.73V1003.95L770 1051.19L746.565 1061.89L307.044 1262.75L268.273 1279.15L264.29 1290.07L0 2017.78L106.868 2017.44H113.59L116.826 2011.57L593.192 1154.09L748.324 1083.2L827.674 2018.19H940.185L1019.54 1083.2L1178.7 1155.95L1654.02 2011.57L1657.26 2017.41H1664L1770.86 2017.78L1506.61 1290.07L1503.2 1280.77L1464.38 1264.21L1386.58 1228.66L1386.63 1228.64ZM286.032 1318.98L297.053 1289.42L371.374 1255.46L242.349 1549.48L286.016 1318.99L286.032 1318.98ZM244.324 1430.46L207.031 1627.2L165.671 1640.78L244.324 1430.46ZM145.987 1693.55L156.692 1664.91L197.603 1651.48L95.8807 1883.26L145.97 1693.55H145.987ZM33.4263 1994.57L74.8191 1883.86L45.5753 1994.59L33.4263 1994.54V1994.57ZM100.146 1994.79L69.0268 1994.69L223.362 1643.05L224.723 1642.59L225.619 1637.87L399.008 1242.83L553.077 1172.43L100.179 1994.79H100.146ZM873.316 1994.06H849.964L771.759 1072.48L873.316 1026.06V1994.06ZM897.581 1994.06V1027.45L996.133 1072.5L917.929 1994.09V1994.06H897.581ZM1670.75 1994.79L1218.86 1174.27L1369.42 1243.08L1542.7 1637.91L1543.6 1642.62L1544.96 1643.05L1699.31 1994.71L1670.78 1994.81H1670.77L1670.75 1994.79ZM1737.47 1994.57L1722.73 1994.62L1687.21 1860.16L1737.47 1994.57ZM1616.08 1669.85L1672.43 1883.26L1570.7 1651.48L1614.57 1665.87L1616.05 1669.85H1616.08ZM1605.56 1641.76L1561.23 1627.22L1521.26 1416.37L1605.54 1641.76H1605.56ZM1477.96 1300.51L1479.59 1304.87L1525.93 1549.49L1397 1255.69L1474.46 1291.08L1477.98 1300.49H1477.94L1477.96 1300.51Z" fill="#775275"/>
<path d="M395.091 498.324C388.601 498.324 383.357 493.113 383.357 486.656V11.6677C383.357 5.21145 388.601 0 395.091 0C401.58 0 406.825 5.21145 406.825 11.6677V486.656C406.825 493.096 401.58 498.324 395.091 498.324Z" fill="#DFDBE4"/>
<path d="M1378.86 498.324C1372.37 498.324 1367.13 493.113 1367.13 486.656V11.6677C1367.13 5.21145 1372.37 0 1378.86 0C1385.35 0 1390.59 5.21145 1390.59 11.6677V486.656C1390.59 493.096 1385.35 498.324 1378.86 498.324Z" fill="#DFDBE4"/>
<path d="M1428.12 350.096H342.794C333.566 350.096 326.081 342.661 326.081 333.483C326.081 324.305 333.566 316.869 342.794 316.869H1428.1C1437.33 316.869 1444.82 324.305 1444.82 333.483C1444.82 342.661 1437.33 350.096 1428.1 350.096H1428.12Z" fill="#C6C2CA"/>
<path d="M1428.12 508.249H342.794C333.566 508.249 326.081 500.814 326.081 491.635C326.081 482.457 333.566 475.022 342.794 475.022H1428.1C1437.33 475.022 1444.82 482.457 1444.82 491.635C1444.82 500.814 1437.33 508.249 1428.1 508.249H1428.12Z" fill="#C6C2CA"/>
<path d="M779.526 500.78C774.448 500.78 770.315 496.681 770.315 491.619V333.466C770.315 328.421 774.415 324.321 779.526 324.321C784.638 324.321 788.738 328.421 788.738 333.466V491.619C788.738 496.664 784.638 500.78 779.526 500.78Z" fill="#C6C2CA"/>
<path d="M995.735 500.78C990.656 500.78 986.524 496.681 986.524 491.619V333.466C986.524 328.421 990.623 324.321 995.735 324.321C1000.85 324.321 1004.95 328.421 1004.95 333.466V491.619C1004.95 496.664 1000.85 500.78 995.735 500.78Z" fill="#C6C2CA"/>
<path d="M347.142 500.78C342.064 500.78 337.931 496.681 337.931 491.619V333.466C337.931 328.421 342.03 324.321 347.142 324.321C352.254 324.321 356.354 328.421 356.354 333.466V491.619C356.354 496.664 352.254 500.78 347.142 500.78Z" fill="#C6C2CA"/>
<path d="M563.334 500.78C558.256 500.78 554.123 496.681 554.123 491.619V333.466C554.123 328.421 558.222 324.321 563.334 324.321C568.446 324.321 572.546 328.421 572.546 333.466V491.619C572.546 496.664 568.446 500.78 563.334 500.78Z" fill="#C6C2CA"/>
<path d="M1211.91 500.78C1206.83 500.78 1202.7 496.681 1202.7 491.619V333.466C1202.7 328.421 1206.8 324.321 1211.91 324.321C1217.02 324.321 1221.12 328.421 1221.12 333.466V491.619C1221.12 496.664 1217.02 500.78 1211.91 500.78Z" fill="#C6C2CA"/>
<path d="M1428.12 500.78C1423.04 500.78 1418.91 496.681 1418.91 491.619V333.466C1418.91 328.421 1423.01 324.321 1428.12 324.321C1433.23 324.321 1437.33 328.421 1437.33 333.466V491.619C1437.33 496.664 1433.23 500.78 1428.12 500.78Z" fill="#C6C2CA"/>
<path d="M887.622 500.78C882.544 500.78 878.411 496.681 878.411 491.619V333.466C878.411 328.421 882.511 324.321 887.622 324.321C892.734 324.321 896.834 328.421 896.834 333.466V491.619C896.834 496.664 892.734 500.78 887.622 500.78Z" fill="#C6C2CA"/>
<path d="M1103.83 500.78C1098.75 500.78 1094.62 496.681 1094.62 491.619V333.466C1094.62 328.421 1098.72 324.321 1103.83 324.321C1108.94 324.321 1113.04 328.421 1113.04 333.466V491.619C1113.04 496.664 1108.94 500.78 1103.83 500.78Z" fill="#C6C2CA"/>
<path d="M455.238 500.78C450.16 500.78 446.027 496.681 446.027 491.619V333.466C446.027 328.421 450.126 324.321 455.238 324.321C460.35 324.321 464.45 328.421 464.45 333.466V491.619C464.45 496.664 460.35 500.78 455.238 500.78Z" fill="#C6C2CA"/>
<path d="M671.447 500.78C666.368 500.78 662.236 496.681 662.236 491.619V333.466C662.236 328.421 666.335 324.321 671.447 324.321C676.559 324.321 680.658 328.421 680.658 333.466V491.619C680.658 496.664 676.559 500.78 671.447 500.78Z" fill="#C6C2CA"/>
<path d="M1320.01 500.78C1314.93 500.78 1310.8 496.681 1310.8 491.619V333.466C1310.8 328.421 1314.89 324.321 1320.01 324.321C1325.12 324.321 1329.22 328.421 1329.22 333.466V491.619C1329.22 496.664 1325.12 500.78 1320.01 500.78Z" fill="#C6C2CA"/>
<path d="M362.494 456.168C441.529 456.168 505.61 392.452 505.61 313.865C505.61 235.279 441.529 171.563 362.494 171.563C283.46 171.563 219.379 235.279 219.379 313.865C219.379 392.452 283.46 456.168 362.494 456.168Z" fill="#C6C2CA"/>
<path d="M279.012 198.284C251.228 224.242 233.851 261.087 233.851 301.965C233.851 380.552 297.932 444.268 376.967 444.268C408.136 444.268 436.932 434.343 460.433 417.53C434.824 441.463 400.385 456.134 362.478 456.134C283.443 456.134 219.362 392.419 219.362 313.832C219.362 266.232 242.897 224.109 278.995 198.284H279.012Z" fill="#636164"/>
<path d="M473.047 355.54C507.021 321.765 499.652 259.676 456.616 216.873C413.563 174.069 351.142 166.75 317.168 200.525C283.194 234.299 290.563 296.389 333.599 339.192C376.652 381.996 439.073 389.315 473.047 355.54Z" fill="#949297"/>
</svg>
